<svg width="130" height="68" viewBox="0 0 130 68" fill="none" xmlns="http://www.w3.org/2000/svg">
<path d="M0.58 41.168V32.096H16.492V25.832H27.436V32.096H37.372V25.832H48.316V32.096H64.228V41.168H0.58ZM38.092 8.264L60.628 20.936L54.94 28.712L32.404 16.256L9.868 28.712L4.18 20.936L26.716 8.264V0.631996H38.092V8.264ZM38.092 47.864L60.628 58.592L55.372 67.016L32.404 56.144L9.436 67.016L4.18 58.592L26.716 47.864V42.968H38.092V47.864ZM122.987 52.904C122.987 54.44 122.699 56 122.123 57.584C121.595 59.168 120.707 60.584 119.459 61.832C118.259 63.08 116.675 64.088 114.707 64.856C112.739 65.672 110.339 66.08 107.507 66.08H88.0665C85.2345 66.08 82.8345 65.672 80.8665 64.856C78.8985 64.088 77.2905 63.08 76.0425 61.832C74.8425 60.584 73.9545 59.168 73.3785 57.584C72.8505 56 72.5865 54.44 72.5865 52.904C72.5865 51.368 72.8505 49.832 73.3785 48.296C73.9545 46.712 74.8425 45.296 76.0425 44.048C77.2905 42.752 78.8985 41.72 80.8665 40.952C82.8345 40.136 85.2345 39.728 88.0665 39.728H107.507C110.339 39.728 112.739 40.136 114.707 40.952C116.675 41.72 118.259 42.752 119.459 44.048C120.707 45.296 121.595 46.712 122.123 48.296C122.699 49.832 122.987 51.368 122.987 52.904ZM65.9625 36.344V27.272H88.2105V17.192H99.2985V27.272H129.611V36.344H65.9625ZM73.1625 11.792V2.432H121.691V22.376L113.627 25.184C111.707 25.856 110.747 25.304 110.747 23.528V11.792H73.1625ZM111.899 52.904C111.899 50.264 110.387 48.944 107.363 48.944H88.2105C85.1865 48.944 83.6745 50.264 83.6745 52.904C83.6745 55.544 85.1865 56.864 88.2105 56.864H107.363C110.387 56.864 111.899 55.544 111.899 52.904Z" fill="#4DB6AC"/>
</svg>
