<svg width="200" height="38" viewBox="0 0 200 38" fill="none" xmlns="http://www.w3.org/2000/svg">
<g filter="url(#filter0_d_564_1996)">
<mask id="path-1-inside-1_564_1996" fill="white">
<path d="M0 14C0 8.47715 4.47715 4 10 4H54C59.5228 4 64 8.47715 64 14V34H0V14Z"/>
</mask>
<path d="M0 14C0 8.47715 4.47715 4 10 4H54C59.5228 4 64 8.47715 64 14V34H0V14Z" fill="#498B70"/>
<path d="M-1 14C-1 7.92487 3.92487 3 10 3H54C60.0751 3 65 7.92487 65 14H63C63 9.02944 58.9706 5 54 5H10C5.02944 5 1 9.02944 1 14H-1ZM64 34H0H64ZM-1 34V14C-1 7.92487 3.92487 3 10 3V5C5.02944 5 1 9.02944 1 14V34H-1ZM54 3C60.0751 3 65 7.92487 65 14V34H63V14C63 9.02944 58.9706 5 54 5V3Z" fill="#498B70" mask="url(#path-1-inside-1_564_1996)"/>
<path d="M29.052 19.232C28.8813 19.2853 28.796 19.2267 28.796 19.056V11.92H29.964V18.928L29.052 19.232ZM26.108 15.888C26.108 16.3893 26.012 16.8213 25.82 17.184C25.6387 17.5467 25.388 17.8453 25.068 18.08C24.748 18.3147 24.3747 18.4853 23.948 18.592C23.5213 18.6987 23.068 18.752 22.588 18.752C22.108 18.752 21.6547 18.6987 21.228 18.592C20.8013 18.4853 20.428 18.3147 20.108 18.08C19.788 17.8453 19.532 17.5467 19.34 17.184C19.1587 16.8213 19.068 16.3893 19.068 15.888V15.104C19.068 14.6027 19.1587 14.1707 19.34 13.808C19.532 13.4453 19.788 13.152 20.108 12.928C20.428 12.6933 20.8013 12.5227 21.228 12.416C21.6547 12.2987 22.108 12.24 22.588 12.24C23.068 12.24 23.5213 12.2987 23.948 12.416C24.3747 12.5227 24.748 12.6933 25.068 12.928C25.388 13.152 25.6387 13.4453 25.82 13.808C26.012 14.1707 26.108 14.6027 26.108 15.104V15.888ZM21.1 25.936V22.384H28.764V20.864H21.1V19.872H29.964V23.328H22.3V24.944H30.204V25.936H21.1ZM24.94 15.248C24.94 14.9173 24.8813 14.6293 24.764 14.384C24.6467 14.1387 24.4813 13.936 24.268 13.776C24.0653 13.616 23.82 13.4987 23.532 13.424C23.244 13.3387 22.9293 13.296 22.588 13.296C21.8947 13.296 21.3293 13.456 20.892 13.776C20.4547 14.096 20.236 14.5867 20.236 15.248V15.76C20.236 16.4213 20.4547 16.912 20.892 17.232C21.3293 17.552 21.8947 17.712 22.588 17.712C22.9293 17.712 23.244 17.6747 23.532 17.6C23.82 17.5147 24.0653 17.392 24.268 17.232C24.4813 17.072 24.6467 16.8693 24.764 16.624C24.8813 16.3787 24.94 16.0907 24.94 15.76V15.248ZM33.167 19.872V12.528H34.335V15.104H38.735V12.528H39.919V19.872H33.167ZM42.767 22.272C42.5963 22.3253 42.511 22.2667 42.511 22.096V11.92H43.679V15.472H45.951V16.496H43.679V21.968L42.767 22.272ZM35.055 25.744V21.472H36.239V24.72H43.919V25.744H35.055ZM38.735 16.096H34.335V18.88H38.735V16.096Z" fill="#DBF0E6"/>
</g>
<g filter="url(#filter1_d_564_1996)">
<mask id="path-4-inside-2_564_1996" fill="white">
<path d="M64 14C64 8.47715 68.4772 4 74 4H118C123.523 4 128 8.47715 128 14V34H64V14Z"/>
</mask>
<path d="M64 14C64 8.47715 68.4772 4 74 4H118C123.523 4 128 8.47715 128 14V34H64V14Z" fill="#F5F5F5"/>
<path d="M63 14C63 7.92487 67.9249 3 74 3H118C124.075 3 129 7.92487 129 14H127C127 9.02944 122.971 5 118 5H74C69.0294 5 65 9.02944 65 14H63ZM128 34H64H128ZM63 34V14C63 7.92487 67.9249 3 74 3V5C69.0294 5 65 9.02944 65 14V34H63ZM118 3C124.075 3 129 7.92487 129 14V34H127V14C127 9.02944 122.971 5 118 5V3Z" fill="#498B70" mask="url(#path-4-inside-2_564_1996)"/>
<path d="M81.2 23.136C81.1253 23.1573 81.0613 23.152 81.008 23.12C80.9547 23.088 80.928 23.0347 80.928 22.96V18.464H75.568V17.44H80.928V14.064H75.6V13.04H82.112V22.832L81.2 23.136ZM85.488 26.08C85.3173 26.1333 85.232 26.08 85.232 25.92V11.92H86.4V25.776L85.488 26.08ZM97.619 15.408C97.619 15.76 97.5603 16.1067 97.443 16.448C97.3257 16.7893 97.1337 17.0933 96.867 17.36C96.611 17.6267 96.275 17.8453 95.859 18.016C95.4537 18.176 94.963 18.256 94.387 18.256H93.299C92.723 18.256 92.227 18.176 91.811 18.016C91.4057 17.8453 91.0697 17.6267 90.803 17.36C90.547 17.0933 90.3603 16.7893 90.243 16.448C90.1257 16.1067 90.067 15.76 90.067 15.408C90.067 15.056 90.1257 14.7093 90.243 14.368C90.3603 14.0267 90.547 13.7227 90.803 13.456C91.0697 13.1893 91.4057 12.976 91.811 12.816C92.227 12.6453 92.723 12.56 93.299 12.56H94.387C94.963 12.56 95.4537 12.6453 95.859 12.816C96.275 12.976 96.611 13.1893 96.867 13.456C97.1337 13.7227 97.3257 14.0267 97.443 14.368C97.5603 14.7093 97.619 15.056 97.619 15.408ZM99.747 26.08C99.5763 26.1333 99.491 26.08 99.491 25.92V22.928H96.179V21.904H99.491V11.92H100.659V25.776L99.747 26.08ZM96.419 15.408C96.419 14.8213 96.2377 14.3733 95.875 14.064C95.5123 13.744 95.011 13.584 94.371 13.584H93.315C92.675 13.584 92.1737 13.744 91.811 14.064C91.4483 14.3733 91.267 14.8213 91.267 15.408C91.267 15.9947 91.4483 16.448 91.811 16.768C92.1737 17.088 92.675 17.248 93.315 17.248H94.371C95.011 17.248 95.5123 17.088 95.875 16.768C96.2377 16.448 96.419 15.9947 96.419 15.408ZM93.283 25.6C93.1017 25.6533 93.011 25.6 93.011 25.44V20.464H89.075V19.44H98.611V20.464H94.179V25.296L93.283 25.6ZM105.11 20.032V13.04H114.374V14.064H106.278V19.024H114.534V20.032H105.11ZM103.254 24.336V23.296H116.15V24.336H103.254Z" fill="black"/>
</g>
<g filter="url(#filter2_d_564_1996)">
<mask id="path-7-inside-3_564_1996" fill="white">
<path d="M128 14C128 8.47715 132.477 4 138 4H182C187.523 4 192 8.47715 192 14V34H128V14Z"/>
</mask>
<path d="M128 14C128 8.47715 132.477 4 138 4H182C187.523 4 192 8.47715 192 14V34H128V14Z" fill="#F5F5F5"/>
<path d="M127 14C127 7.92487 131.925 3 138 3H182C188.075 3 193 7.92487 193 14H191C191 9.02944 186.971 5 182 5H138C133.029 5 129 9.02944 129 14H127ZM192 34H128H192ZM127 34V14C127 7.92487 131.925 3 138 3V5C133.029 5 129 9.02944 129 14V34H127ZM182 3C188.075 3 193 7.92487 193 14V34H191V14C191 9.02944 186.971 5 182 5V3Z" fill="#498B70" mask="url(#path-7-inside-3_564_1996)"/>
<path d="M159.073 23.088C159.073 23.4187 159.015 23.7493 158.897 24.08C158.78 24.4213 158.588 24.7253 158.321 24.992C158.055 25.2693 157.708 25.4933 157.281 25.664C156.865 25.8347 156.348 25.92 155.729 25.92H153.073C152.455 25.92 151.932 25.8347 151.505 25.664C151.079 25.4933 150.732 25.2693 150.465 24.992C150.209 24.7253 150.023 24.4213 149.905 24.08C149.788 23.7493 149.729 23.4187 149.729 23.088C149.729 22.7573 149.788 22.4267 149.905 22.096C150.023 21.7547 150.209 21.4507 150.465 21.184C150.732 20.9173 151.079 20.6987 151.505 20.528C151.932 20.3573 152.455 20.272 153.073 20.272H155.729C156.348 20.272 156.865 20.3573 157.281 20.528C157.708 20.6987 158.055 20.9173 158.321 21.184C158.588 21.4507 158.78 21.7547 158.897 22.096C159.015 22.4267 159.073 22.7573 159.073 23.088ZM157.873 23.088C157.873 22.5227 157.697 22.08 157.345 21.76C156.993 21.44 156.481 21.28 155.809 21.28H152.993C152.321 21.28 151.809 21.44 151.457 21.76C151.105 22.08 150.929 22.5227 150.929 23.088C150.929 23.6533 151.105 24.096 151.457 24.416C151.809 24.736 152.321 24.896 152.993 24.896H155.809C156.481 24.896 156.993 24.736 157.345 24.416C157.697 24.096 157.873 23.6533 157.873 23.088ZM155.089 19.04L151.649 15.536L148.065 19.2L147.265 18.464L151.057 14.608V12.24H152.257V14.624L155.905 18.288L155.089 19.04ZM158.001 20.032C157.831 20.0853 157.745 20.0267 157.745 19.856V11.92H158.913V14.992H161.185V16.016H158.913V19.728L158.001 20.032ZM167.828 22.592L165.396 18.192L162.852 22.784L161.876 22.256L164.804 17.024V12.8H165.988V17.024L168.804 22.064L167.828 22.592ZM170.1 25.44C170.026 25.4613 169.962 25.456 169.908 25.424C169.855 25.4027 169.828 25.3547 169.828 25.28V17.168H167.556V16.144H169.828V12.16H170.996V25.152L170.1 25.44ZM172.948 26.08C172.874 26.1013 172.81 26.096 172.756 26.064C172.703 26.0427 172.676 25.9947 172.676 25.92V11.92H173.844V25.792L172.948 26.08Z" fill="black"/>
</g>
<defs>
<filter id="filter0_d_564_1996" x="0" y="0" width="72" height="38" filterUnits="userSpaceOnUse" color-interpolation-filters="sRGB">
<feFlood flood-opacity="0" result="BackgroundImageFix"/>
<feColorMatrix in="SourceAlpha" type="matrix" values="0 0 0 0 0 0 0 0 0 0 0 0 0 0 0 0 0 0 127 0" result="hardAlpha"/>
<feOffset dx="4"/>
<feGaussianBlur stdDeviation="2"/>
<feComposite in2="hardAlpha" operator="out"/>
<feColorMatrix type="matrix" values="0 0 0 0 0 0 0 0 0 0 0 0 0 0 0 0 0 0 0.25 0"/>
<feBlend mode="normal" in2="BackgroundImageFix" result="effect1_dropShadow_564_1996"/>
<feBlend mode="normal" in="SourceGraphic" in2="effect1_dropShadow_564_1996" result="shape"/>
</filter>
<filter id="filter1_d_564_1996" x="64" y="0" width="72" height="38" filterUnits="userSpaceOnUse" color-interpolation-filters="sRGB">
<feFlood flood-opacity="0" result="BackgroundImageFix"/>
<feColorMatrix in="SourceAlpha" type="matrix" values="0 0 0 0 0 0 0 0 0 0 0 0 0 0 0 0 0 0 127 0" result="hardAlpha"/>
<feOffset dx="4"/>
<feGaussianBlur stdDeviation="2"/>
<feComposite in2="hardAlpha" operator="out"/>
<feColorMatrix type="matrix" values="0 0 0 0 0 0 0 0 0 0 0 0 0 0 0 0 0 0 0.25 0"/>
<feBlend mode="normal" in2="BackgroundImageFix" result="effect1_dropShadow_564_1996"/>
<feBlend mode="normal" in="SourceGraphic" in2="effect1_dropShadow_564_1996" result="shape"/>
</filter>
<filter id="filter2_d_564_1996" x="128" y="0" width="72" height="38" filterUnits="userSpaceOnUse" color-interpolation-filters="sRGB">
<feFlood flood-opacity="0" result="BackgroundImageFix"/>
<feColorMatrix in="SourceAlpha" type="matrix" values="0 0 0 0 0 0 0 0 0 0 0 0 0 0 0 0 0 0 127 0" result="hardAlpha"/>
<feOffset dx="4"/>
<feGaussianBlur stdDeviation="2"/>
<feComposite in2="hardAlpha" operator="out"/>
<feColorMatrix type="matrix" values="0 0 0 0 0 0 0 0 0 0 0 0 0 0 0 0 0 0 0.25 0"/>
<feBlend mode="normal" in2="BackgroundImageFix" result="effect1_dropShadow_564_1996"/>
<feBlend mode="normal" in="SourceGraphic" in2="effect1_dropShadow_564_1996" result="shape"/>
</filter>
</defs>
</svg>
