<svg width="340" height="136" viewBox="0 0 340 136" fill="none" xmlns="http://www.w3.org/2000/svg">
<rect width="340" height="136" fill="white"/>
<rect x="10" y="10" width="320" height="64" rx="10" fill="#498B70"/>
<path d="M21.332 34.524V23.364H27.47V25.47H23.744V32.418H28.046V34.524H21.332ZM29.504 37.944C29.108 38.076 28.91 37.956 28.91 37.584V29.718H26.03V27.594H28.91V22.41H31.268V37.35L29.504 37.944ZM33.122 38.664C32.738 38.796 32.546 38.676 32.546 38.304V22.14H34.886V38.07L33.122 38.664ZM48.6951 38.664C48.2991 38.808 48.1011 38.688 48.1011 38.304V22.14H50.5491V38.016L48.6951 38.664ZM45.9411 30.96C45.9411 31.668 45.8271 32.28 45.5991 32.796C45.3711 33.3 45.0651 33.714 44.6811 34.038C44.2971 34.362 43.8411 34.602 43.3131 34.758C42.7851 34.914 42.2271 34.992 41.6391 34.992C41.0391 34.992 40.4811 34.914 39.9651 34.758C39.4491 34.602 38.9931 34.362 38.5971 34.038C38.2131 33.714 37.9071 33.3 37.6791 32.796C37.4631 32.28 37.3551 31.668 37.3551 30.96V27.036C37.3551 26.328 37.4631 25.722 37.6791 25.218C37.9071 24.702 38.2131 24.282 38.5971 23.958C38.9931 23.634 39.4491 23.394 39.9651 23.238C40.4811 23.082 41.0391 23.004 41.6391 23.004C42.2271 23.004 42.7851 23.082 43.3131 23.238C43.8411 23.394 44.2971 23.634 44.6811 23.958C45.0651 24.282 45.3711 24.702 45.5991 25.218C45.8271 25.722 45.9411 26.328 45.9411 27.036V30.96ZM43.4751 26.964C43.4751 26.316 43.3011 25.848 42.9531 25.56C42.6051 25.272 42.1671 25.128 41.6391 25.128C41.1111 25.128 40.6731 25.272 40.3251 25.56C39.9771 25.848 39.8031 26.316 39.8031 26.964V31.032C39.8031 31.68 39.9771 32.148 40.3251 32.436C40.6731 32.724 41.1111 32.868 41.6391 32.868C42.1671 32.868 42.6051 32.724 42.9531 32.436C43.3011 32.148 43.4751 31.68 43.4751 31.032V26.964ZM53.4502 35.064V23.31H61.2443V25.398H55.9342V28.008H60.7582V29.988H55.9342V32.994H62.7922V35.064H53.4502ZM64.7183 38.664C64.3222 38.808 64.1242 38.688 64.1242 38.304V29.754H61.5683V27.594H64.1242V22.14H66.5723V38.016L64.7183 38.664ZM69.3294 34.848V23.328H71.6694V27H73.7574V23.328H76.0974V27.72H77.3754V22.41H79.7334V37.35L77.9694 37.944C77.5734 38.076 77.3754 37.956 77.3754 37.584V29.88H76.0974V34.848H69.3294ZM81.1914 38.664C80.8074 38.796 80.6154 38.676 80.6154 38.304V22.14H82.9554V38.07L81.1914 38.664ZM73.7574 29.07H71.6694V32.778H73.7574V29.07ZM96.7645 38.664C96.3685 38.808 96.1705 38.688 96.1705 38.304V22.14H98.6185V38.016L96.7645 38.664ZM94.0105 30.96C94.0105 31.668 93.8965 32.28 93.6685 32.796C93.4405 33.3 93.1345 33.714 92.7505 34.038C92.3665 34.362 91.9105 34.602 91.3825 34.758C90.8545 34.914 90.2965 34.992 89.7085 34.992C89.1085 34.992 88.5505 34.914 88.0345 34.758C87.5185 34.602 87.0625 34.362 86.6665 34.038C86.2825 33.714 85.9765 33.3 85.7485 32.796C85.5325 32.28 85.4245 31.668 85.4245 30.96V27.036C85.4245 26.328 85.5325 25.722 85.7485 25.218C85.9765 24.702 86.2825 24.282 86.6665 23.958C87.0625 23.634 87.5185 23.394 88.0345 23.238C88.5505 23.082 89.1085 23.004 89.7085 23.004C90.2965 23.004 90.8545 23.082 91.3825 23.238C91.9105 23.394 92.3665 23.634 92.7505 23.958C93.1345 24.282 93.4405 24.702 93.6685 25.218C93.8965 25.722 94.0105 26.328 94.0105 27.036V30.96ZM91.5445 26.964C91.5445 26.316 91.3705 25.848 91.0225 25.56C90.6745 25.272 90.2365 25.128 89.7085 25.128C89.1805 25.128 88.7425 25.272 88.3945 25.56C88.0465 25.848 87.8725 26.316 87.8725 26.964V31.032C87.8725 31.68 88.0465 32.148 88.3945 32.436C88.7425 32.724 89.1805 32.868 89.7085 32.868C90.2365 32.868 90.6745 32.724 91.0225 32.436C91.3705 32.148 91.5445 31.68 91.5445 31.032V26.964ZM113.616 32.454L108.342 27.918L103.068 32.454L101.448 30.852L107.064 26.064V22.932H109.62V26.064L115.236 30.852L113.616 32.454ZM100.53 36.666V34.524H116.154V36.666H100.53ZM117.219 31.914V26.37H123.069V24.786H117.219V22.77H125.571V28.206H119.703V29.898H126.831V31.914H117.219ZM128.343 34.182C127.947 34.326 127.749 34.206 127.749 33.822V22.14H130.197V26.082H132.681V28.242H130.197V33.534L128.343 34.182ZM119.343 38.25V33.21H121.827V36.144H130.467V38.25H119.343ZM137.995 30.024V23.112H149.479V30.024H137.995ZM143.089 38.664C142.693 38.796 142.495 38.676 142.495 38.304V33.642H135.925V31.5H151.549V33.642H144.979V38.016L143.089 38.664ZM147.031 25.2H140.443V27.936H147.031V25.2ZM164.278 32.85C163.882 32.994 163.684 32.874 163.684 32.49V27.864H161.506C161.446 28.464 161.284 28.98 161.02 29.412C160.768 29.844 160.444 30.198 160.048 30.474C159.664 30.75 159.22 30.954 158.716 31.086C158.212 31.206 157.684 31.266 157.132 31.266C156.532 31.266 155.962 31.194 155.422 31.05C154.894 30.894 154.426 30.66 154.018 30.348C153.622 30.024 153.304 29.616 153.064 29.124C152.836 28.62 152.722 28.014 152.722 27.306V26.442C152.722 25.746 152.836 25.146 153.064 24.642C153.304 24.138 153.622 23.73 154.018 23.418C154.426 23.094 154.894 22.86 155.422 22.716C155.962 22.56 156.532 22.482 157.132 22.482C157.672 22.482 158.188 22.548 158.68 22.68C159.172 22.8 159.61 22.992 159.994 23.256C160.39 23.508 160.714 23.838 160.966 24.246C161.23 24.654 161.404 25.14 161.488 25.704H163.684V22.14H166.132V32.202L164.278 32.85ZM165.646 38.664L160.444 35.334L155.26 38.664L153.856 36.9L159.166 33.498V31.77H161.722V33.498L167.05 36.9L165.646 38.664ZM159.094 26.46C159.094 25.812 158.908 25.344 158.536 25.056C158.176 24.756 157.708 24.606 157.132 24.606C156.556 24.606 156.082 24.756 155.71 25.056C155.35 25.344 155.17 25.812 155.17 26.46V27.288C155.17 27.936 155.35 28.41 155.71 28.71C156.082 28.998 156.556 29.142 157.132 29.142C157.708 29.142 158.176 28.998 158.536 28.71C158.908 28.41 159.094 27.936 159.094 27.288V26.46ZM180.229 38.664C179.833 38.808 179.635 38.688 179.635 38.304V22.14H182.083V38.016L180.229 38.664ZM177.475 30.96C177.475 31.668 177.361 32.28 177.133 32.796C176.905 33.3 176.599 33.714 176.215 34.038C175.831 34.362 175.375 34.602 174.847 34.758C174.319 34.914 173.761 34.992 173.173 34.992C172.573 34.992 172.015 34.914 171.499 34.758C170.983 34.602 170.527 34.362 170.131 34.038C169.747 33.714 169.441 33.3 169.213 32.796C168.997 32.28 168.889 31.668 168.889 30.96V27.036C168.889 26.328 168.997 25.722 169.213 25.218C169.441 24.702 169.747 24.282 170.131 23.958C170.527 23.634 170.983 23.394 171.499 23.238C172.015 23.082 172.573 23.004 173.173 23.004C173.761 23.004 174.319 23.082 174.847 23.238C175.375 23.394 175.831 23.634 176.215 23.958C176.599 24.282 176.905 24.702 177.133 25.218C177.361 25.722 177.475 26.328 177.475 27.036V30.96ZM175.009 26.964C175.009 26.316 174.835 25.848 174.487 25.56C174.139 25.272 173.701 25.128 173.173 25.128C172.645 25.128 172.207 25.272 171.859 25.56C171.511 25.848 171.337 26.316 171.337 26.964V31.032C171.337 31.68 171.511 32.148 171.859 32.436C172.207 32.724 172.645 32.868 173.173 32.868C173.701 32.868 174.139 32.724 174.487 32.436C174.835 32.148 175.009 31.68 175.009 31.032V26.964ZM184.985 34.56V23.364H193.229V25.308H195.659V22.14H198.107V38.016L196.253 38.664C195.857 38.808 195.659 38.688 195.659 38.304V32.22H193.229V34.56H184.985ZM190.781 25.47H187.433V32.472H190.781V25.47ZM193.229 30.078H195.659V27.45H193.229V30.078ZM202.052 39.726H200.144L200.864 35.154H203.672L202.052 39.726ZM217.537 31.032C217.537 31.74 217.423 32.352 217.195 32.868C216.979 33.372 216.673 33.786 216.277 34.11C215.893 34.434 215.443 34.674 214.927 34.83C214.411 34.986 213.859 35.064 213.271 35.064C212.683 35.064 212.131 34.986 211.615 34.83C211.099 34.674 210.643 34.434 210.247 34.11C209.863 33.786 209.557 33.372 209.329 32.868C209.113 32.352 209.005 31.74 209.005 31.032V27.036C209.005 26.328 209.113 25.722 209.329 25.218C209.557 24.702 209.863 24.282 210.247 23.958C210.643 23.634 211.099 23.394 211.615 23.238C212.131 23.082 212.683 23.004 213.271 23.004C213.859 23.004 214.411 23.082 214.927 23.238C215.443 23.394 215.893 23.634 216.277 23.958C216.673 24.282 216.979 24.702 217.195 25.218C217.423 25.722 217.537 26.328 217.537 27.036V27.792H219.751V22.14H222.199V38.016L220.345 38.664C219.949 38.808 219.751 38.688 219.751 38.304V29.952H217.537V31.032ZM215.089 26.964C215.089 26.316 214.915 25.848 214.567 25.56C214.231 25.272 213.799 25.128 213.271 25.128C212.743 25.128 212.305 25.272 211.957 25.56C211.621 25.848 211.453 26.316 211.453 26.964V31.104C211.453 31.752 211.621 32.22 211.957 32.508C212.305 32.796 212.743 32.94 213.271 32.94C213.799 32.94 214.231 32.796 214.567 32.508C214.915 32.22 215.089 31.752 215.089 31.104V26.964ZM236.62 33.966C236.224 34.11 236.026 33.996 236.026 33.624V28.026H233.632V25.938H236.026V22.14H238.474V33.336L236.62 33.966ZM227.44 38.25V32.67H229.924V36.144H238.744V38.25H227.44ZM229.834 31.248V22.842H234.604V24.948H232.228V29.142H235.054V31.248H229.834ZM224.848 31.248V22.842H229.33V24.948H227.224V29.142H229.33V31.248H224.848ZM257.847 35.316C257.847 35.688 257.775 36.06 257.631 36.432C257.499 36.804 257.283 37.14 256.983 37.44C256.683 37.74 256.293 37.98 255.813 38.16C255.345 38.352 254.769 38.448 254.085 38.448H249.765C249.081 38.448 248.499 38.352 248.019 38.16C247.551 37.98 247.167 37.74 246.867 37.44C246.567 37.152 246.345 36.822 246.201 36.45C246.069 36.078 246.003 35.7 246.003 35.316C246.003 34.944 246.069 34.572 246.201 34.2C246.345 33.828 246.567 33.498 246.867 33.21C247.167 32.91 247.551 32.67 248.019 32.49C248.499 32.298 249.081 32.202 249.765 32.202H254.085C254.769 32.202 255.345 32.298 255.813 32.49C256.293 32.67 256.683 32.91 256.983 33.21C257.283 33.498 257.499 33.828 257.631 34.2C257.775 34.572 257.847 34.944 257.847 35.316ZM253.095 28.638C253.095 28.974 253.035 29.316 252.915 29.664C252.795 30 252.603 30.306 252.339 30.582C252.087 30.846 251.751 31.068 251.331 31.248C250.911 31.416 250.401 31.5 249.801 31.5H247.605C246.993 31.5 246.477 31.416 246.057 31.248C245.637 31.068 245.295 30.846 245.031 30.582C244.779 30.306 244.593 30 244.473 29.664C244.353 29.316 244.293 28.974 244.293 28.638C244.293 28.302 244.353 27.966 244.473 27.63C244.593 27.282 244.779 26.97 245.031 26.694C245.295 26.418 245.637 26.196 246.057 26.028C246.477 25.848 246.993 25.758 247.605 25.758H249.801C250.401 25.758 250.911 25.848 251.331 26.028C251.751 26.196 252.087 26.418 252.339 26.694C252.603 26.97 252.795 27.282 252.915 27.63C253.035 27.966 253.095 28.302 253.095 28.638ZM255.813 31.914C255.417 32.058 255.219 31.944 255.219 31.572V30.564H253.347V28.476H255.219V27.486H253.347V25.398H255.219V22.14H257.667V31.284L255.813 31.914ZM243.969 25.272V23.292H247.425V21.942H249.963V23.292H253.221V25.272H243.969ZM255.363 35.316C255.363 34.992 255.261 34.746 255.057 34.578C254.853 34.398 254.565 34.308 254.193 34.308H249.657C249.285 34.308 248.997 34.398 248.793 34.578C248.589 34.746 248.487 34.992 248.487 35.316C248.487 35.652 248.589 35.904 248.793 36.072C248.997 36.252 249.285 36.342 249.657 36.342H254.193C254.565 36.342 254.853 36.252 255.057 36.072C255.261 35.904 255.363 35.652 255.363 35.316ZM250.647 28.638C250.647 28.362 250.557 28.152 250.377 28.008C250.197 27.852 249.957 27.774 249.657 27.774H247.731C247.431 27.774 247.191 27.852 247.011 28.008C246.831 28.152 246.741 28.362 246.741 28.638C246.741 28.914 246.831 29.124 247.011 29.268C247.191 29.412 247.431 29.484 247.731 29.484H249.657C249.957 29.484 250.197 29.412 250.377 29.268C250.557 29.124 250.647 28.914 250.647 28.638ZM268.596 37.944C268.2 38.076 268.002 37.956 268.002 37.584V22.41H270.36V27.846H271.638V22.14H273.978V38.07L272.214 38.664C271.83 38.796 271.638 38.676 271.638 38.304V30.078H270.36V37.35L268.596 37.944ZM260.352 34.992V23.31H266.832V25.398H262.728V27.972H266.742V29.952H262.728V32.922H267.282V34.992H260.352ZM275.529 36.954V34.812H282.189V32.706H277.599V26.91H286.581V25.272H277.599V23.184H289.083V28.872H280.101V30.618H289.353V32.706H284.673V34.812H291.153V36.954H275.529ZM295.82 34.524V23.364H301.958V25.47H298.232V32.418H302.534V34.524H295.82ZM303.992 37.944C303.596 38.076 303.398 37.956 303.398 37.584V29.718H300.518V27.594H303.398V22.41H305.756V37.35L303.992 37.944ZM307.61 38.664C307.226 38.796 307.034 38.676 307.034 38.304V22.14H309.374V38.07L307.61 38.664ZM32.672 60.664C32.276 60.808 32.078 60.688 32.078 60.304V44.14H34.526V60.016L32.672 60.664ZM29.918 52.96C29.918 53.668 29.804 54.28 29.576 54.796C29.348 55.3 29.042 55.714 28.658 56.038C28.274 56.362 27.818 56.602 27.29 56.758C26.762 56.914 26.204 56.992 25.616 56.992C25.016 56.992 24.458 56.914 23.942 56.758C23.426 56.602 22.97 56.362 22.574 56.038C22.19 55.714 21.884 55.3 21.656 54.796C21.44 54.28 21.332 53.668 21.332 52.96V49.036C21.332 48.328 21.44 47.722 21.656 47.218C21.884 46.702 22.19 46.282 22.574 45.958C22.97 45.634 23.426 45.394 23.942 45.238C24.458 45.082 25.016 45.004 25.616 45.004C26.204 45.004 26.762 45.082 27.29 45.238C27.818 45.394 28.274 45.634 28.658 45.958C29.042 46.282 29.348 46.702 29.576 47.218C29.804 47.722 29.918 48.328 29.918 49.036V52.96ZM27.452 48.964C27.452 48.316 27.278 47.848 26.93 47.56C26.582 47.272 26.144 47.128 25.616 47.128C25.088 47.128 24.65 47.272 24.302 47.56C23.954 47.848 23.78 48.316 23.78 48.964V53.032C23.78 53.68 23.954 54.148 24.302 54.436C24.65 54.724 25.088 54.868 25.616 54.868C26.144 54.868 26.582 54.724 26.93 54.436C27.278 54.148 27.452 53.68 27.452 53.032V48.964ZM37.4271 57.064V45.31H45.2211V47.398H39.9111V50.008H44.7351V51.988H39.9111V54.994H46.7691V57.064H37.4271ZM48.6951 60.664C48.2991 60.808 48.1011 60.688 48.1011 60.304V51.754H45.5451V49.594H48.1011V44.14H50.5491V60.016L48.6951 60.664ZM64.1782 60.664C63.7822 60.808 63.5842 60.688 63.5842 60.304V44.14H66.0322V49.882H68.6243V52.042H66.0322V60.016L64.1782 60.664ZM59.2822 57.262C58.8742 57.406 58.6702 57.286 58.6702 56.902V47.47H53.0902V45.364H61.1362V56.614L59.2822 57.262ZM80.3647 56.938L77.0167 52.564L73.5247 57.154L71.6527 55.894L75.7747 50.512V47.47H72.4447V45.364H81.4807V47.47H78.2587V50.494L82.2367 55.678L80.3647 56.938ZM84.0907 60.664C83.6947 60.808 83.4967 60.688 83.4967 60.304V51.448H80.5807V49.288H83.4967V44.14H85.9447V60.016L84.0907 60.664ZM101.68 57.064C101.68 57.472 101.608 57.874 101.464 58.27C101.32 58.678 101.086 59.044 100.762 59.368C100.438 59.692 100.018 59.95 99.5018 60.142C98.9858 60.346 98.3618 60.448 97.6298 60.448H94.0658C93.3338 60.448 92.7098 60.346 92.1938 60.142C91.6778 59.95 91.2578 59.692 90.9338 59.368C90.6098 59.044 90.3758 58.678 90.2318 58.27C90.0878 57.874 90.0158 57.472 90.0158 57.064C90.0158 56.656 90.0878 56.254 90.2318 55.858C90.3758 55.45 90.6098 55.084 90.9338 54.76C91.2578 54.436 91.6778 54.178 92.1938 53.986C92.7098 53.782 93.3338 53.68 94.0658 53.68H97.6298C98.3618 53.68 98.9858 53.782 99.5018 53.986C100.018 54.178 100.438 54.436 100.762 54.76C101.086 55.084 101.32 55.45 101.464 55.858C101.608 56.254 101.68 56.656 101.68 57.064ZM96.2798 52.906L92.8598 50.17L89.2958 53.086L87.7298 51.466L91.6178 48.352V46.948H88.4138V44.842H97.1978V46.948H94.1018V48.334L97.8458 51.286L96.2798 52.906ZM99.6458 53.41C99.2498 53.554 99.0518 53.434 99.0518 53.05V44.14H101.5V47.362H103.984V49.522H101.5V52.762L99.6458 53.41ZM99.1958 57.064C99.1958 56.656 99.0698 56.344 98.8178 56.128C98.5658 55.9 98.2118 55.786 97.7558 55.786H93.9398C93.4838 55.786 93.1298 55.9 92.8778 56.128C92.6258 56.344 92.4998 56.656 92.4998 57.064C92.4998 57.472 92.6258 57.784 92.8778 58C93.1298 58.228 93.4838 58.342 93.9398 58.342H97.7558C98.2118 58.342 98.5658 58.228 98.8178 58C99.0698 57.784 99.1958 57.472 99.1958 57.064ZM103.879 57.406V55.264H108.343V52.924H105.175V45.292H113.743V47.398H107.623V50.818H113.923V52.924H110.845V55.264H114.949V57.406H103.879ZM116.209 60.664C115.813 60.808 115.615 60.688 115.615 60.304V44.14H118.063V60.016L116.209 60.664ZM131.62 60.664C131.224 60.808 131.026 60.688 131.026 60.304V44.14H133.474V49.522H136.066V51.682H133.474V60.016L131.62 60.664ZM120.892 56.254V45.202H123.376V54.148H130V56.254H120.892ZM149.839 49.468C149.839 50.068 149.749 50.638 149.569 51.178C149.389 51.718 149.101 52.192 148.705 52.6C148.309 53.008 147.799 53.332 147.175 53.572C146.563 53.8 145.819 53.914 144.943 53.914H142.531C141.655 53.914 140.905 53.8 140.281 53.572C139.669 53.332 139.165 53.008 138.769 52.6C138.373 52.192 138.085 51.718 137.905 51.178C137.725 50.638 137.635 50.068 137.635 49.468C137.635 48.868 137.725 48.298 137.905 47.758C138.085 47.218 138.373 46.75 138.769 46.354C139.165 45.946 139.669 45.622 140.281 45.382C140.905 45.142 141.655 45.022 142.531 45.022H144.943C145.819 45.022 146.563 45.142 147.175 45.382C147.799 45.622 148.309 45.946 148.705 46.354C149.101 46.75 149.389 47.218 149.569 47.758C149.749 48.298 149.839 48.868 149.839 49.468ZM135.925 58.846V56.704H139.597V54.292H142.063V56.704H145.411V54.292H147.877V56.704H151.549V58.846H135.925ZM147.355 49.468C147.355 48.748 147.151 48.178 146.743 47.758C146.335 47.338 145.699 47.128 144.835 47.128H142.639C141.775 47.128 141.139 47.338 140.731 47.758C140.323 48.178 140.119 48.748 140.119 49.468C140.119 50.188 140.323 50.758 140.731 51.178C141.139 51.598 141.775 51.808 142.639 51.808H144.835C145.699 51.808 146.335 51.598 146.743 51.178C147.151 50.758 147.355 50.188 147.355 49.468ZM161.362 49.054C161.362 49.618 161.254 50.122 161.038 50.566C160.834 51.01 160.558 51.412 160.21 51.772C159.874 52.12 159.484 52.426 159.04 52.69C158.596 52.954 158.146 53.194 157.69 53.41V55.552H155.206V52.096C155.65 51.952 156.094 51.784 156.538 51.592C156.982 51.388 157.378 51.16 157.726 50.908C158.074 50.644 158.356 50.356 158.572 50.044C158.788 49.732 158.896 49.384 158.896 49V48.28C158.896 47.692 158.71 47.224 158.338 46.876C157.966 46.528 157.42 46.354 156.7 46.354C156.316 46.354 155.992 46.408 155.728 46.516C155.476 46.624 155.272 46.78 155.116 46.984C154.96 47.176 154.846 47.41 154.774 47.686C154.702 47.95 154.666 48.244 154.666 48.568L152.164 48.388C152.176 47.728 152.296 47.14 152.524 46.624C152.752 46.096 153.064 45.652 153.46 45.292C153.868 44.932 154.348 44.662 154.9 44.482C155.464 44.29 156.082 44.194 156.754 44.194C157.438 44.194 158.062 44.29 158.626 44.482C159.19 44.662 159.67 44.932 160.066 45.292C160.474 45.652 160.792 46.09 161.02 46.606C161.248 47.122 161.362 47.71 161.362 48.37V49.054ZM155.134 60.034V57.406H157.762V60.034H155.134Z" fill="white"/>
<rect x="10.5" y="84.5" width="319" height="41" rx="9.5" fill="white"/>
<rect x="10.5" y="84.5" width="319" height="41" rx="9.5" stroke="black"/>
<path d="M47.192 110.896L44.192 106.024L41 111.184L38.384 109.72L42.56 103.096V99.064H39.176V96.256H42.536V93.616H45.872V96.256H49.04V99.064H45.848V103.144L49.808 109.432L47.192 110.896ZM51.128 114.592C50.6 114.768 50.336 114.608 50.336 114.112V103.888H47.576V101.008H50.336V93.88H53.48V113.8L51.128 114.592ZM55.496 115.552C54.984 115.728 54.728 115.568 54.728 115.072V93.52H57.848V114.76L55.496 115.552ZM66.9475 111.28C66.4195 111.456 66.1555 111.296 66.1555 110.8V97.96H60.7795V95.152H69.3955V97.792H71.5075V93.88H74.6515V113.8L72.2995 114.592C71.7715 114.768 71.5075 114.608 71.5075 114.112V107.152H69.3955V110.44L66.9475 111.28ZM77.0035 115.552C76.4915 115.728 76.2355 115.568 76.2355 115.072V93.52H79.3555V114.76L77.0035 115.552ZM69.3955 104.296H71.5075V100.648H69.3955V104.296ZM92.943 105.64L88.479 101.776L83.799 105.88L81.639 103.792L86.823 99.328V97.264H82.551V94.456H94.263V97.264H90.135V99.304L95.127 103.552L92.943 105.64ZM98.007 115.552C97.479 115.744 97.215 115.584 97.215 115.072V109.768H85.407V106.96H100.479V114.688L98.007 115.552ZM98.007 106.264C97.479 106.456 97.215 106.304 97.215 105.808V101.032H93.711V98.152H97.215V93.52H100.479V105.424L98.007 106.264ZM105.786 116.968H103.242L104.202 110.872H107.946L105.786 116.968ZM125.473 106.192L121.033 102.16L116.401 106.432L114.193 104.392L119.377 99.688V97.264H115.105V94.456H126.817V97.264H122.689V99.664L127.681 104.152L125.473 106.192ZM130.561 109.288C130.033 109.48 129.769 109.328 129.769 108.832V101.32H126.241V98.416H129.769V93.52H133.033V108.448L130.561 109.288ZM118.321 115V107.56H121.633V112.192H133.393V115H118.321ZM146.764 110.488L142.3 104.632L137.644 110.776L135.148 109.072L140.644 101.896V97.96H136.204V95.152H148.252V97.96H143.956V101.872L149.26 108.784L146.764 110.488ZM151.252 115.552C150.724 115.744 150.46 115.584 150.46 115.072V93.52H153.724V100.936H157.18V103.816H153.724V114.688L151.252 115.552ZM168.512 105.64L164.048 101.776L159.368 105.88L157.208 103.792L162.392 99.328V97.264H158.12V94.456H169.832V97.264H165.704V99.304L170.696 103.552L168.512 105.64ZM173.576 115.552C173.048 115.744 172.784 115.584 172.784 115.072V109.768H160.976V106.96H176.048V114.688L173.576 115.552ZM173.576 106.264C173.048 106.456 172.784 106.304 172.784 105.808V101.032H169.28V98.152H172.784V93.52H176.048V105.424L173.576 106.264ZM181.355 116.968H178.811L179.771 110.872H183.515L181.355 116.968ZM190.913 110.032V95.152H199.097V97.96H194.129V107.224H199.865V110.032H190.913ZM201.809 114.592C201.281 114.768 201.017 114.608 201.017 114.112V103.624H197.177V100.792H201.017V93.88H204.161V113.8L201.809 114.592ZM206.633 115.552C206.121 115.728 205.865 115.568 205.865 115.072V93.52H208.985V114.76L206.633 115.552ZM227.541 115.552C227.013 115.744 226.749 115.584 226.749 115.072V93.52H230.013V114.688L227.541 115.552ZM223.869 105.28C223.869 106.224 223.717 107.04 223.413 107.728C223.109 108.4 222.701 108.952 222.189 109.384C221.677 109.816 221.069 110.136 220.365 110.344C219.661 110.552 218.917 110.656 218.133 110.656C217.333 110.656 216.589 110.552 215.901 110.344C215.213 110.136 214.605 109.816 214.077 109.384C213.565 108.952 213.157 108.4 212.853 107.728C212.565 107.04 212.421 106.224 212.421 105.28V100.048C212.421 99.104 212.565 98.296 212.853 97.624C213.157 96.936 213.565 96.376 214.077 95.944C214.605 95.512 215.213 95.192 215.901 94.984C216.589 94.776 217.333 94.672 218.133 94.672C218.917 94.672 219.661 94.776 220.365 94.984C221.069 95.192 221.677 95.512 222.189 95.944C222.701 96.376 223.109 96.936 223.413 97.624C223.717 98.296 223.869 99.104 223.869 100.048V105.28ZM220.581 99.952C220.581 99.088 220.349 98.464 219.885 98.08C219.421 97.696 218.837 97.504 218.133 97.504C217.429 97.504 216.845 97.696 216.381 98.08C215.917 98.464 215.685 99.088 215.685 99.952V105.376C215.685 106.24 215.917 106.864 216.381 107.248C216.845 107.632 217.429 107.824 218.133 107.824C218.837 107.824 219.421 107.632 219.885 107.248C220.349 106.864 220.581 106.24 220.581 105.376V99.952ZM234.024 110.752V95.08H244.416V97.864H237.336V101.344H243.768V103.984H237.336V107.992H246.48V110.752H234.024ZM249.048 115.552C248.52 115.744 248.256 115.584 248.256 115.072V103.672H244.848V100.792H248.256V93.52H251.52V114.688L249.048 115.552ZM258.821 113.128V110.272H267.581V106.336H261.581V95.056H276.893V106.336H270.893V110.272H279.653V113.128H258.821ZM273.629 97.864H264.845V103.528H273.629V97.864ZM298.953 98.08C298.953 98.576 298.865 99.08 298.689 99.592C298.513 100.088 298.225 100.536 297.825 100.936C297.441 101.336 296.929 101.664 296.289 101.92C295.649 102.176 294.873 102.304 293.961 102.304H287.529C286.617 102.304 285.841 102.176 285.201 101.92C284.561 101.664 284.041 101.336 283.641 100.936C283.257 100.536 282.977 100.088 282.801 99.592C282.625 99.08 282.537 98.576 282.537 98.08C282.537 97.584 282.625 97.088 282.801 96.592C282.977 96.096 283.257 95.648 283.641 95.248C284.041 94.832 284.561 94.496 285.201 94.24C285.841 93.984 286.617 93.856 287.529 93.856H293.961C294.873 93.856 295.649 93.984 296.289 94.24C296.929 94.496 297.441 94.832 297.825 95.248C298.225 95.648 298.513 96.096 298.689 96.592C298.865 97.088 298.953 97.584 298.953 98.08ZM280.329 106.144V103.408H301.161V106.144H280.329ZM282.969 115.144V107.344H298.521V115.144H282.969ZM295.641 98.08C295.641 97.6 295.489 97.24 295.185 97C294.897 96.76 294.473 96.64 293.913 96.64H287.577C287.017 96.64 286.585 96.76 286.281 97C285.993 97.24 285.849 97.6 285.849 98.08C285.849 98.576 285.993 98.944 286.281 99.184C286.585 99.424 287.017 99.544 287.577 99.544H293.913C294.473 99.544 294.897 99.424 295.185 99.184C295.489 98.944 295.641 98.576 295.641 98.08ZM295.257 110.128H286.233V112.36H295.257V110.128Z" fill="#498B70"/>
<rect x="311" y="83" width="25" height="25" rx="12.5" fill="#92006B"/>
<g clip-path="url(#clip0_847_2038)">
<path d="M323.5 90.25C320.184 90.25 317.5 92.9335 317.5 96.25V97.375C317.5 97.5143 317.539 97.6508 317.612 97.7693C317.685 97.8878 317.79 97.9835 317.915 98.0458L318.252 98.2144C318.299 99.6227 319.455 100.75 320.875 100.75H321.438C321.748 100.75 322 100.498 322 100.188V96.0625C322 95.7518 321.748 95.5 321.438 95.5H320.875C320.14 95.5 319.476 95.8019 319 96.2881V96.25C319 93.7687 321.019 91.75 323.5 91.75C325.981 91.75 328 93.7687 328 96.25V96.2881C327.524 95.8019 326.86 95.5 326.125 95.5H325.562C325.252 95.5 325 95.7518 325 96.0625V100.188C325 100.498 325.252 100.75 325.562 100.75H326.125C327.545 100.75 328.701 99.6227 328.748 98.2144L329.085 98.0458C329.21 97.9835 329.315 97.8878 329.388 97.7693C329.461 97.6508 329.5 97.5143 329.5 97.375V96.25C329.5 92.9341 326.816 90.25 323.5 90.25Z" fill="white"/>
</g>
<rect x="311" y="1" width="25" height="25" rx="12.5" fill="#92006B"/>
<g clip-path="url(#clip1_847_2038)">
<path d="M323.5 8.25C320.184 8.25 317.5 10.9335 317.5 14.25V15.375C317.5 15.5143 317.539 15.6508 317.612 15.7693C317.685 15.8878 317.79 15.9835 317.915 16.0458L318.252 16.2144C318.299 17.6227 319.455 18.75 320.875 18.75H321.438C321.748 18.75 322 18.4982 322 18.1875V14.0625C322 13.7518 321.748 13.5 321.438 13.5H320.875C320.14 13.5 319.476 13.8019 319 14.2881V14.25C319 11.7687 321.019 9.75 323.5 9.75C325.981 9.75 328 11.7687 328 14.25V14.2881C327.524 13.8019 326.86 13.5 326.125 13.5H325.562C325.252 13.5 325 13.7518 325 14.0625V18.1875C325 18.4982 325.252 18.75 325.562 18.75H326.125C327.545 18.75 328.701 17.6227 328.748 16.2144L329.085 16.0458C329.21 15.9835 329.315 15.8878 329.388 15.7693C329.461 15.6508 329.5 15.5143 329.5 15.375V14.25C329.5 10.9341 326.816 8.25 323.5 8.25Z" fill="white"/>
</g>
<defs>
<clipPath id="clip0_847_2038">
<rect width="12" height="12" fill="white" transform="translate(317.5 89.5)"/>
</clipPath>
<clipPath id="clip1_847_2038">
<rect width="12" height="12" fill="white" transform="translate(317.5 7.5)"/>
</clipPath>
</defs>
</svg>
