<svg width="271" height="193" viewBox="0 0 271 193" fill="none" xmlns="http://www.w3.org/2000/svg">
<rect width="270" height="192" transform="translate(0.5 0.791016)" fill="white"/>
<path d="M31.244 34.757C30.848 34.901 30.65 34.787 30.65 34.415V30.725H27.86C27.464 31.325 26.936 31.757 26.276 32.021C25.616 32.285 24.89 32.417 24.098 32.417C23.498 32.417 22.928 32.339 22.388 32.183C21.86 32.027 21.392 31.787 20.984 31.463C20.588 31.127 20.27 30.701 20.03 30.185C19.802 29.657 19.688 29.027 19.688 28.295V27.395C19.688 26.663 19.802 26.039 20.03 25.523C20.27 25.007 20.588 24.581 20.984 24.245C21.392 23.909 21.86 23.663 22.388 23.507C22.928 23.351 23.498 23.273 24.098 23.273C24.854 23.273 25.544 23.393 26.168 23.633C26.804 23.873 27.326 24.257 27.734 24.785H30.65V22.931H33.098V34.127L31.244 34.757ZM22.064 39.041V33.641H24.548V36.935H33.368V39.041H22.064ZM26.06 27.341C26.06 26.669 25.874 26.177 25.502 25.865C25.142 25.553 24.674 25.397 24.098 25.397C23.522 25.397 23.048 25.553 22.676 25.865C22.316 26.177 22.136 26.669 22.136 27.341V28.349C22.136 29.021 22.316 29.513 22.676 29.825C23.048 30.137 23.522 30.293 24.098 30.293C24.674 30.293 25.142 30.137 25.502 29.825C25.874 29.513 26.06 29.021 26.06 28.349V27.341ZM28.508 28.295C28.508 28.355 28.508 28.409 28.508 28.457C28.508 28.505 28.502 28.559 28.49 28.619H30.65V26.891H28.472C28.484 26.975 28.49 27.059 28.49 27.143C28.502 27.227 28.508 27.311 28.508 27.395V28.295ZM48.7611 35.855C48.7611 36.263 48.6891 36.665 48.5451 37.061C48.4011 37.469 48.1671 37.835 47.8431 38.159C47.5191 38.483 47.0991 38.741 46.5831 38.933C46.0671 39.137 45.4431 39.239 44.7111 39.239H41.1471C40.4151 39.239 39.7911 39.137 39.2751 38.933C38.7591 38.741 38.3391 38.483 38.0151 38.159C37.6911 37.835 37.4571 37.469 37.3131 37.061C37.1691 36.665 37.0971 36.263 37.0971 35.855C37.0971 35.447 37.1691 35.045 37.3131 34.649C37.4571 34.241 37.6911 33.875 38.0151 33.551C38.3391 33.227 38.7591 32.969 39.2751 32.777C39.7911 32.573 40.4151 32.471 41.1471 32.471H44.7111C45.4431 32.471 46.0671 32.573 46.5831 32.777C47.0991 32.969 47.5191 33.227 47.8431 33.551C48.1671 33.875 48.4011 34.241 48.5451 34.649C48.6891 35.045 48.7611 35.447 48.7611 35.855ZM43.4691 31.553L39.8151 27.989L35.9811 31.751L34.3251 30.257L38.5551 26.135V23.273H41.0571V26.099L45.1431 30.059L43.4691 31.553ZM46.7271 32.201C46.3311 32.345 46.1331 32.225 46.1331 31.841V22.931H48.5811V26.153H51.0651V28.313H48.5811V31.553L46.7271 32.201ZM46.2771 35.855C46.2771 35.447 46.1511 35.135 45.8991 34.919C45.6471 34.691 45.2931 34.577 44.8371 34.577H41.0211C40.5651 34.577 40.2111 34.691 39.9591 34.919C39.7071 35.135 39.5811 35.447 39.5811 35.855C39.5811 36.263 39.7071 36.575 39.9591 36.791C40.2111 37.019 40.5651 37.133 41.0211 37.133H44.8371C45.2931 37.133 45.6471 37.019 45.8991 36.791C46.1511 36.575 46.2771 36.263 46.2771 35.855ZM57.0095 39.149V32.651H67.9535V39.149H57.0095ZM63.7235 27.737C63.7235 28.385 63.6035 28.943 63.3635 29.411C63.1355 29.879 62.8175 30.263 62.4095 30.563C62.0135 30.863 61.5455 31.085 61.0055 31.229C60.4775 31.373 59.9135 31.445 59.3135 31.445C58.7135 31.445 58.1435 31.373 57.6035 31.229C57.0755 31.085 56.6075 30.863 56.1995 30.563C55.8035 30.263 55.4855 29.879 55.2455 29.411C55.0175 28.943 54.9035 28.385 54.9035 27.737V26.981C54.9035 26.333 55.0175 25.775 55.2455 25.307C55.4855 24.839 55.8035 24.455 56.1995 24.155C56.6075 23.855 57.0755 23.633 57.6035 23.489C58.1435 23.345 58.7135 23.273 59.3135 23.273C59.9135 23.273 60.4775 23.345 61.0055 23.489C61.5455 23.633 62.0135 23.855 62.4095 24.155C62.8175 24.455 63.1355 24.839 63.3635 25.307C63.6035 25.775 63.7235 26.333 63.7235 26.981V27.737ZM66.0995 32.129C65.7035 32.273 65.5055 32.159 65.5055 31.787V22.931H67.9535V26.063H70.4375V28.223H67.9535V31.499L66.0995 32.129ZM65.5055 34.757H59.4575V37.043H65.5055V34.757ZM61.2755 27.089C61.2755 26.501 61.0895 26.075 60.7175 25.811C60.3575 25.535 59.8895 25.397 59.3135 25.397C58.7375 25.397 58.2635 25.535 57.8915 25.811C57.5315 26.075 57.3515 26.501 57.3515 27.089V27.629C57.3515 28.217 57.5315 28.649 57.8915 28.925C58.2635 29.189 58.7375 29.321 59.3135 29.321C59.8895 29.321 60.3575 29.189 60.7175 28.925C61.0895 28.649 61.2755 28.217 61.2755 27.629V27.089ZM82.5907 39.455C82.1947 39.599 81.9967 39.479 81.9967 39.095V22.931H84.4447V38.807L82.5907 39.455ZM77.4067 36.053C76.9987 36.197 76.7947 36.077 76.7947 35.693V26.261H71.1427V24.155H79.2607V35.405L77.4067 36.053ZM89.7051 37.637V35.495H96.2751V32.543H91.7751V24.083H103.259V32.543H98.7591V35.495H105.329V37.637H89.7051ZM100.811 26.189H94.2231V30.437H100.811V26.189ZM107.798 32.633V24.173H119.372V26.279H110.246V30.527H119.552V32.633H107.798ZM105.728 37.457V35.315H121.352V37.457H105.728Z" fill="#498B70"/>
<path d="M152.752 35.333L149.116 30.491L145.336 35.549L143.482 34.289L147.874 28.421V23.795H150.376V28.439L154.624 34.073L152.752 35.333ZM156.172 39.455C155.776 39.599 155.578 39.479 155.578 39.095V22.931H158.026V38.807L156.172 39.455ZM162.997 39.149V33.191H174.121V39.149H162.997ZM169.675 29.465C169.675 29.813 169.615 30.161 169.495 30.509C169.375 30.857 169.183 31.169 168.919 31.445C168.655 31.721 168.307 31.949 167.875 32.129C167.443 32.297 166.921 32.381 166.309 32.381H164.095C163.483 32.381 162.961 32.297 162.529 32.129C162.109 31.949 161.767 31.721 161.503 31.445C161.239 31.169 161.047 30.857 160.927 30.509C160.807 30.161 160.747 29.813 160.747 29.465C160.747 29.129 160.807 28.787 160.927 28.439C161.047 28.091 161.239 27.779 161.503 27.503C161.767 27.215 162.109 26.987 162.529 26.819C162.961 26.639 163.483 26.549 164.095 26.549H166.309C166.921 26.549 167.443 26.639 167.875 26.819C168.307 26.987 168.655 27.215 168.919 27.503C169.183 27.779 169.375 28.091 169.495 28.439C169.615 28.787 169.675 29.129 169.675 29.465ZM172.267 32.669C171.871 32.813 171.673 32.699 171.673 32.327V29.519H169.945V27.341H171.673V22.931H174.121V32.039L172.267 32.669ZM160.423 26.063V24.083H163.933V22.733H166.471V24.083H169.855V26.063H160.423ZM171.673 35.279H165.445V37.061H171.673V35.279ZM167.227 29.465C167.227 29.189 167.131 28.973 166.939 28.817C166.747 28.661 166.501 28.583 166.201 28.583H164.221C163.909 28.583 163.657 28.661 163.465 28.817C163.285 28.973 163.195 29.189 163.195 29.465C163.195 29.753 163.285 29.975 163.465 30.131C163.657 30.275 163.909 30.347 164.221 30.347H166.201C166.501 30.347 166.747 30.275 166.939 30.131C167.131 29.975 167.227 29.753 167.227 29.465ZM188.94 33.947C188.94 34.619 188.826 35.219 188.598 35.747C188.37 36.263 188.052 36.701 187.644 37.061C187.236 37.421 186.75 37.697 186.186 37.889C185.622 38.081 185.004 38.177 184.332 38.177C183.66 38.177 183.042 38.075 182.478 37.871C181.914 37.679 181.428 37.403 181.02 37.043C180.612 36.683 180.294 36.251 180.066 35.747C179.85 35.231 179.742 34.655 179.742 34.019L182.244 33.857C182.232 34.493 182.376 35.015 182.676 35.423C182.976 35.819 183.51 36.017 184.278 36.017C184.986 36.017 185.526 35.843 185.898 35.495C186.282 35.135 186.474 34.655 186.474 34.055V32.579C186.474 31.979 186.276 31.499 185.88 31.139C185.484 30.779 184.98 30.599 184.368 30.599C184.068 30.599 183.798 30.635 183.558 30.707C183.33 30.767 183.126 30.845 182.946 30.941C182.766 31.037 182.616 31.145 182.496 31.265C182.388 31.385 182.298 31.505 182.226 31.625L179.886 31.463V23.993H188.49V26.135H182.352V29.015C182.628 28.847 182.952 28.715 183.324 28.619C183.708 28.511 184.092 28.457 184.476 28.457C185.136 28.457 185.742 28.547 186.294 28.727C186.846 28.895 187.314 29.153 187.698 29.501C188.094 29.849 188.4 30.281 188.616 30.797C188.832 31.301 188.94 31.889 188.94 32.561V33.947ZM191.811 30.509V23.417H194.259V24.947H201.027V23.417H203.475V30.509H191.811ZM197.265 35.945C196.881 36.029 196.689 35.915 196.689 35.603V33.533H189.831V31.445H205.455V33.533H199.191V35.549L197.265 35.945ZM191.901 39.041V34.469H194.385V36.935H203.745V39.041H191.901ZM201.027 26.927H194.259V28.493H201.027V26.927ZM214.368 32.435L211.038 29.411L207.564 32.615L205.908 31.085L209.796 27.557V25.739H206.592V23.633H215.376V25.739H212.28V27.539L216.024 30.905L214.368 32.435ZM218.184 34.757C217.788 34.901 217.59 34.787 217.59 34.415V28.781H214.944V26.603H217.59V22.931H220.038V34.127L218.184 34.757ZM209.004 39.041V33.461H211.488V36.935H220.308V39.041H209.004ZM225.226 37.637V35.495H231.796V32.543H227.296V24.083H238.78V32.543H234.28V35.495H240.85V37.637H225.226ZM236.332 26.189H229.744V30.437H236.332V26.189ZM243.319 32.633V24.173H254.893V26.279H245.767V30.527H255.073V32.633H243.319ZM241.249 37.457V35.315H256.873V37.457H241.249Z" fill="#92006B"/>
<rect x="11" y="63.291" width="119" height="119" rx="9.5" stroke="black"/>
<path d="M23.118 88.611V85.209H29.684V84.271H23.118V83.053H31.238V86.371H24.672V87.393H31.448V88.611H23.118ZM27.43 82.395L24.812 80.085L22.054 82.535L21.074 81.569L24.042 78.965V77.943H21.48V76.655H28.046V77.943H25.582V78.951L28.41 81.429L27.43 82.395ZM30.02 82.619C29.9453 82.647 29.8753 82.6423 29.81 82.605C29.754 82.5677 29.726 82.5117 29.726 82.437V76.095H31.238V78.489H33.184V79.805H31.238V82.213L30.02 82.619ZM46.6743 86.035C46.6743 86.343 46.6183 86.6463 46.5063 86.945C46.3943 87.253 46.2123 87.5283 45.9603 87.771C45.7177 88.023 45.4003 88.2237 45.0083 88.373C44.6163 88.5223 44.1403 88.597 43.5803 88.597H40.9483C40.3883 88.597 39.9123 88.5223 39.5203 88.373C39.1283 88.2237 38.8063 88.023 38.5543 87.771C38.3117 87.5283 38.1343 87.253 38.0223 86.945C37.9103 86.6463 37.8543 86.343 37.8543 86.035C37.8543 85.727 37.9103 85.4237 38.0223 85.125C38.1343 84.817 38.3117 84.5417 38.5543 84.299C38.8063 84.047 39.1283 83.8463 39.5203 83.697C39.9123 83.5477 40.3883 83.473 40.9483 83.473H43.5803C44.1403 83.473 44.6163 83.5477 45.0083 83.697C45.4003 83.8463 45.7177 84.047 45.9603 84.299C46.2123 84.5417 46.3943 84.817 46.5063 85.125C46.6183 85.4237 46.6743 85.727 46.6743 86.035ZM42.4043 82.745L39.8283 80.351L37.1123 82.885L36.0903 81.933L39.0583 79.203V77.943H36.4963V76.655H43.0623V77.943H40.5983V79.203L43.4263 81.793L42.4043 82.745ZM45.3163 83.319C45.2417 83.347 45.1717 83.3423 45.1063 83.305C45.0503 83.2677 45.0223 83.2117 45.0223 83.137V80.001H42.7263V78.685H45.0223V76.095H46.5343V82.913L45.3163 83.319ZM45.1343 86.035C45.1343 85.6243 45.0083 85.3117 44.7563 85.097C44.5137 84.873 44.1637 84.761 43.7063 84.761H40.8223C40.365 84.761 40.0103 84.873 39.7583 85.097C39.5157 85.3117 39.3943 85.6243 39.3943 86.035C39.3943 86.4457 39.5157 86.7583 39.7583 86.973C40.0103 87.197 40.365 87.309 40.8223 87.309H43.7063C44.1637 87.309 44.5137 87.197 44.7563 86.973C45.0083 86.7583 45.1343 86.4457 45.1343 86.035ZM57.6272 88.779C57.5525 88.807 57.4825 88.8023 57.4172 88.765C57.3612 88.7277 57.3332 88.6717 57.3332 88.597V76.095H58.8452V88.373L57.6272 88.779ZM49.0312 85.895V80.701H53.5112V78.293H49.0312V77.019H55.0512V81.933H50.5712V84.621H56.3532V85.895H49.0312ZM68.2581 81.345H65.7381V82.773H69.1961V84.061H60.6281V82.773H64.1981V81.345H61.6081V76.585H68.1181V77.873H63.1201V80.057H68.2581V81.345ZM62.9381 88.443V84.803H64.4781V87.155H71.4781V88.443H62.9381ZM70.0501 85.559C69.9754 85.587 69.9054 85.5823 69.8401 85.545C69.7841 85.5077 69.7561 85.4517 69.7561 85.377V76.095H71.2681V85.153L70.0501 85.559ZM84.8704 88.779C84.7957 88.807 84.7257 88.8023 84.6604 88.765C84.6044 88.7277 84.5764 88.6717 84.5764 88.597V76.095H86.0884V88.373L84.8704 88.779ZM76.3304 85.419V77.075H82.2104V78.363H77.8424V84.131H83.5964V85.419H76.3304ZM94.5773 85.685L91.8333 82.171L88.9633 85.853L87.8293 85.069L91.0633 80.939V78.363H88.3333V77.075H95.2353V78.363H92.6033V80.939L95.7113 84.901L94.5773 85.685ZM97.2373 88.779C97.1626 88.807 97.0926 88.8023 97.0273 88.765C96.9713 88.7277 96.9433 88.6717 96.9433 88.597V76.095H98.4553V88.373L97.2373 88.779ZM102.618 88.611V85.279H109.324V84.411H102.618V83.193H110.878V86.441H104.172V87.393H111.088V88.611H102.618ZM102.436 78.825H106.65V80.015H102.436V81.065H108.246V82.311H100.896V76.599H107V77.845H102.436V78.825ZM109.66 82.759C109.585 82.787 109.515 82.7823 109.45 82.745C109.394 82.7077 109.366 82.6517 109.366 82.577V79.791H107.294V78.475H109.366V76.095H110.878V82.353L109.66 82.759ZM30.384 104.779C30.3093 104.807 30.2393 104.802 30.174 104.765C30.118 104.728 30.09 104.672 30.09 104.597V96.771H27.64V95.455H30.09V92.095H31.602V104.373L30.384 104.779ZM27.822 101.545L24.938 97.667L21.928 101.713L20.78 100.929L24.168 96.421V92.795H25.708V96.421L28.97 100.761L27.822 101.545ZM35.4849 104.583V99.613H36.9969V100.775H42.0929V99.613H43.6049V104.583H35.4849ZM33.9029 98.675V95.007H38.5509V93.845H33.9029V92.599H40.0909V96.197H35.4429V97.429H41.2529V98.675H33.9029ZM42.3869 99.179C42.3122 99.207 42.2422 99.2023 42.1769 99.165C42.1209 99.1277 42.0929 99.0717 42.0929 98.997V92.095H43.6049V94.699H45.5509V96.015H43.6049V98.773L42.3869 99.179ZM42.0929 102.035H36.9969V103.323H42.0929V102.035ZM56.1117 102.035C56.1117 102.343 56.0557 102.646 55.9438 102.945C55.8317 103.253 55.6497 103.528 55.3977 103.771C55.1551 104.023 54.8378 104.224 54.4458 104.373C54.0538 104.522 53.5778 104.597 53.0178 104.597H50.5257C49.9657 104.597 49.4897 104.522 49.0977 104.373C48.7057 104.224 48.3837 104.023 48.1317 103.771C47.8891 103.528 47.7117 103.253 47.5997 102.945C47.4877 102.646 47.4317 102.343 47.4317 102.035C47.4317 101.727 47.4877 101.424 47.5997 101.125C47.7117 100.817 47.8891 100.542 48.1317 100.299C48.3837 100.047 48.7057 99.8463 49.0977 99.697C49.4897 99.5477 49.9657 99.473 50.5257 99.473H53.0178C53.5778 99.473 54.0538 99.5477 54.4458 99.697C54.8378 99.8463 55.1551 100.047 55.3977 100.299C55.6497 100.542 55.8317 100.817 55.9438 101.125C56.0557 101.424 56.1117 101.727 56.1117 102.035ZM52.1497 98.675L49.5457 96.323L46.8017 98.815L45.8077 97.849L48.7757 95.189V93.943H46.2137V92.655H52.7797V93.943H50.3157V95.175L53.1437 97.709L52.1497 98.675ZM54.7537 99.319C54.6791 99.347 54.6091 99.3423 54.5437 99.305C54.4877 99.2677 54.4597 99.2117 54.4597 99.137V92.095H55.9717V94.699H57.9177V96.015H55.9717V98.913L54.7537 99.319ZM54.5718 102.035C54.5718 101.624 54.4458 101.312 54.1938 101.097C53.9511 100.873 53.6011 100.761 53.1437 100.761H50.3997C49.9424 100.761 49.5877 100.873 49.3357 101.097C49.0931 101.312 48.9717 101.624 48.9717 102.035C48.9717 102.446 49.0931 102.758 49.3357 102.973C49.5877 103.197 49.9424 103.309 50.3997 103.309H53.1437C53.6011 103.309 53.9511 103.197 54.1938 102.973C54.4458 102.758 54.5718 102.446 54.5718 102.035ZM64.6566 101.895L62.0526 98.535L59.3226 102.063L58.1886 101.279L61.2826 97.303V94.993H58.5526V93.705H61.2686V92.165H62.8366V93.705H65.4546V94.993H62.8226V97.303L65.7906 101.111L64.6566 101.895ZM67.4846 104.779C67.41 104.807 67.34 104.802 67.2746 104.765C67.2186 104.728 67.1906 104.672 67.1906 104.597V97.793H64.7406V96.477H67.1906V92.095H68.7026V104.373L67.4846 104.779ZM72.8655 104.527V99.893H81.1255V104.527H72.8655ZM71.1435 98.871V95.105H75.5815V93.845H71.1435V92.599H77.1215V96.295H72.6835V97.625H78.4935V98.871H71.1435ZM79.9075 99.459C79.8328 99.487 79.7628 99.4823 79.6975 99.445C79.6415 99.4077 79.6135 99.3517 79.6135 99.277V95.861H77.6815V94.545H79.6135V92.095H81.1255V99.053L79.9075 99.459ZM79.6135 101.181H74.3775V103.239H79.6135V101.181ZM83.8744 105.591H82.7544L83.3144 102.231H85.1344L83.8744 105.591ZM90.9485 104.611V101.209H97.6545V100.271H90.9485V99.053H99.2085V102.371H92.5025V103.393H99.4185V104.611H90.9485ZM88.7365 98.115V96.827H90.2345V94.391H91.7465V96.827H93.8325V94.391H95.3445V96.827H96.8425V98.115H88.7365ZM97.9905 98.619C97.9159 98.647 97.8459 98.6423 97.7805 98.605C97.7245 98.5677 97.6965 98.5117 97.6965 98.437V92.095H99.2085V98.213L97.9905 98.619ZM89.0865 93.943V92.655H96.4365V93.943H89.0865ZM111.365 96.155C111.365 96.6123 111.295 97.0463 111.155 97.457C111.015 97.8583 110.796 98.213 110.497 98.521C110.199 98.829 109.811 99.0717 109.335 99.249C108.869 99.4263 108.304 99.515 107.641 99.515H105.989C105.327 99.515 104.757 99.4263 104.281 99.249C103.815 99.0717 103.432 98.829 103.133 98.521C102.835 98.213 102.615 97.8583 102.475 97.457C102.335 97.0463 102.265 96.6123 102.265 96.155C102.265 95.6977 102.335 95.2683 102.475 94.867C102.615 94.4563 102.835 94.097 103.133 93.789C103.432 93.481 103.815 93.2383 104.281 93.061C104.757 92.8837 105.327 92.795 105.989 92.795H107.641C108.304 92.795 108.869 92.8837 109.335 93.061C109.811 93.2383 110.199 93.481 110.497 93.789C110.796 94.097 111.015 94.4563 111.155 94.867C111.295 95.2683 111.365 95.6977 111.365 96.155ZM100.935 103.351V102.035H103.875V99.865H105.415V102.035H108.215V99.865H109.755V102.035H112.695V103.351H100.935ZM109.825 96.155C109.825 95.5203 109.648 95.0163 109.293 94.643C108.939 94.2697 108.379 94.083 107.613 94.083H106.017C105.252 94.083 104.692 94.2697 104.337 94.643C103.983 95.0163 103.805 95.5203 103.805 96.155C103.805 96.7897 103.983 97.2937 104.337 97.667C104.692 98.0403 105.252 98.227 106.017 98.227H107.613C108.379 98.227 108.939 98.0403 109.293 97.667C109.648 97.2937 109.825 96.7897 109.825 96.155ZM28.13 113.275C28.13 113.564 28.0787 113.858 27.976 114.157C27.8733 114.456 27.7053 114.726 27.472 114.969C27.248 115.202 26.954 115.394 26.59 115.543C26.226 115.692 25.778 115.767 25.246 115.767H24.462C23.93 115.767 23.482 115.692 23.118 115.543C22.754 115.394 22.4553 115.202 22.222 114.969C21.998 114.726 21.8347 114.456 21.732 114.157C21.6293 113.858 21.578 113.564 21.578 113.275C21.578 112.986 21.6293 112.692 21.732 112.393C21.8347 112.094 21.998 111.828 22.222 111.595C22.4553 111.352 22.754 111.156 23.118 111.007C23.482 110.858 23.93 110.783 24.462 110.783H25.246C25.778 110.783 26.226 110.858 26.59 111.007C26.954 111.156 27.248 111.352 27.472 111.595C27.7053 111.828 27.8733 112.094 27.976 112.393C28.0787 112.692 28.13 112.986 28.13 113.275ZM30.02 117.419C29.9453 117.447 29.8753 117.442 29.81 117.405C29.754 117.368 29.726 117.312 29.726 117.237V108.095H31.238V111.819H33.184V113.135H31.238V117.013L30.02 117.419ZM23.188 120.443V116.663H24.728V119.155H31.448V120.443H23.188ZM21.214 110.335V109.047H24.07V107.955H25.638V109.047H28.368V110.335H21.214ZM26.59 113.275C26.59 112.902 26.4687 112.608 26.226 112.393C25.9833 112.178 25.6613 112.071 25.26 112.071H24.448C24.0467 112.071 23.7247 112.178 23.482 112.393C23.2393 112.608 23.118 112.902 23.118 113.275C23.118 113.648 23.2393 113.942 23.482 114.157C23.7247 114.372 24.0467 114.479 24.448 114.479H25.26C25.6613 114.479 25.9833 114.372 26.226 114.157C26.4687 113.942 26.59 113.648 26.59 113.275ZM46.6743 118.035C46.6743 118.343 46.6183 118.646 46.5063 118.945C46.3943 119.253 46.2123 119.528 45.9603 119.771C45.7177 120.023 45.4003 120.224 45.0083 120.373C44.6163 120.522 44.1403 120.597 43.5803 120.597H40.9483C40.3883 120.597 39.9123 120.522 39.5203 120.373C39.1283 120.224 38.8063 120.023 38.5543 119.771C38.3117 119.528 38.1343 119.253 38.0223 118.945C37.9103 118.646 37.8543 118.343 37.8543 118.035C37.8543 117.727 37.9103 117.424 38.0223 117.125C38.1343 116.817 38.3117 116.542 38.5543 116.299C38.8063 116.047 39.1283 115.846 39.5203 115.697C39.9123 115.548 40.3883 115.473 40.9483 115.473H43.5803C44.1403 115.473 44.6163 115.548 45.0083 115.697C45.4003 115.846 45.7177 116.047 45.9603 116.299C46.2123 116.542 46.3943 116.817 46.5063 117.125C46.6183 117.424 46.6743 117.727 46.6743 118.035ZM42.4043 114.745L39.8283 112.351L37.1123 114.885L36.0903 113.933L39.0583 111.203V109.943H36.4963V108.655H43.0623V109.943H40.5983V111.203L43.4263 113.793L42.4043 114.745ZM45.3163 115.319C45.2417 115.347 45.1717 115.342 45.1063 115.305C45.0503 115.268 45.0223 115.212 45.0223 115.137V112.001H42.7263V110.685H45.0223V108.095H46.5343V114.913L45.3163 115.319ZM45.1343 118.035C45.1343 117.624 45.0083 117.312 44.7563 117.097C44.5137 116.873 44.1637 116.761 43.7063 116.761H40.8223C40.365 116.761 40.0103 116.873 39.7583 117.097C39.5157 117.312 39.3943 117.624 39.3943 118.035C39.3943 118.446 39.5157 118.758 39.7583 118.973C40.0103 119.197 40.365 119.309 40.8223 119.309H43.7063C44.1637 119.309 44.5137 119.197 44.7563 118.973C45.0083 118.758 45.1343 118.446 45.1343 118.035ZM48.2612 119.351V118.035H53.3712V115.725H49.8712V108.977H51.3832V111.021H56.8992V108.977H58.4112V115.725H54.9112V118.035H60.0212V119.351H48.2612ZM56.8992 112.309H51.3832V114.437H56.8992V112.309ZM60.6281 115.137V113.905H72.3881V115.137H60.6281ZM62.1681 120.611V117.573H69.2941V116.943H62.1681V115.753H70.8481V118.707H63.7221V119.421H71.0581V120.611H62.1681ZM62.1681 113.303V110.279H69.2941V109.663H62.1681V108.473H70.8481V111.413H63.7221V112.113H71.0581V113.303H62.1681ZM77.7444 120.583V116.033H79.2564V116.999H84.6324V116.033H86.1444V120.583H77.7444ZM82.7424 112.743L79.8444 110.643L76.7784 112.855L75.8964 111.805L79.0744 109.523V108.165H80.6144V109.523L83.6244 111.693L82.7424 112.743ZM79.0884 115.669C79.0044 115.688 78.9344 115.683 78.8784 115.655C78.8224 115.618 78.7944 115.562 78.7944 115.487V114.367H75.5044V113.107H84.0724V114.367H80.3344V115.403L79.0884 115.669ZM84.9264 115.669C84.8517 115.697 84.7817 115.692 84.7164 115.655C84.6604 115.618 84.6324 115.562 84.6324 115.487V108.095H86.1444V115.263L84.9264 115.669ZM84.6324 118.245H79.2564V119.337H84.6324V118.245ZM91.8333 118.217C91.7586 118.245 91.6886 118.24 91.6233 118.203C91.5673 118.166 91.5393 118.11 91.5393 118.035V110.363H88.2493V109.075H93.0513V112.575H94.5073V108.305H95.9913V119.827L94.8013 120.219C94.7266 120.247 94.6566 120.242 94.5913 120.205C94.5353 120.168 94.5073 120.112 94.5073 120.037V113.891H93.0513V117.811L91.8333 118.217ZM97.5453 120.779C97.4706 120.807 97.4006 120.802 97.3353 120.765C97.2793 120.728 97.2513 120.672 97.2513 120.597V108.095H98.7353V120.387L97.5453 120.779ZM112.8 120.723L108.908 118.721L105.016 120.723L104.288 119.561L108.138 117.601V117.041H104.778V115.753H113.038V117.041H109.678V117.601L113.528 119.561L112.8 120.723ZM109.146 114.955L106.542 112.561L103.798 115.095L102.804 114.143L105.772 111.441V110.363H103.182V109.075H105.758V107.955H107.326V109.075H109.804V110.363H107.312V111.427L110.14 114.003L109.146 114.955ZM111.75 115.319C111.675 115.347 111.605 115.342 111.54 115.305C111.484 115.268 111.456 115.212 111.456 115.137V108.095H112.968V110.909H114.914V112.225H112.968V114.913L111.75 115.319ZM21.018 135.351V134.035H25.288V129.835H26.828V134.035H32.778V135.351H21.018ZM29.95 132.131C29.8753 132.159 29.8053 132.154 29.74 132.117C29.684 132.08 29.656 132.024 29.656 131.949V126.293H22.488V125.005H31.168V131.725L29.95 132.131ZM44.8963 133.559C44.8217 133.587 44.7517 133.582 44.6863 133.545C44.6303 133.508 44.6023 133.452 44.6023 133.377V124.095H46.1143V127.819H48.0603V129.135H46.1143V133.153L44.8963 133.559ZM35.7543 131.641V130.353H38.2743V127.735H39.8143V130.353H44.0423V131.641H35.7543ZM37.9243 136.443V132.663H39.4643V135.155H46.3243V136.443H37.9243ZM36.4543 125.873V124.585H42.8943V129.233L41.6763 129.639C41.6017 129.667 41.5317 129.662 41.4663 129.625C41.4103 129.588 41.3823 129.532 41.3823 129.457V125.873H36.4543ZM57.6272 136.779C57.5525 136.807 57.4825 136.802 57.4172 136.765C57.3612 136.728 57.3332 136.672 57.3332 136.597V124.095H58.8452V136.373L57.6272 136.779ZM49.0312 133.895V128.701H53.5112V126.293H49.0312V125.019H55.0512V129.933H50.5712V132.621H56.3532V133.895H49.0312ZM62.7281 136.611V133.363H69.2941V132.523H62.7281V131.333H70.8481V134.497H64.2821V135.421H71.0581V136.611H62.7281ZM67.7961 128.645C67.7961 128.888 67.7541 129.13 67.6701 129.373C67.5861 129.606 67.4507 129.816 67.2641 130.003C67.0774 130.19 66.8301 130.344 66.5221 130.465C66.2234 130.586 65.8501 130.647 65.4021 130.647H63.5261C63.0781 130.647 62.7001 130.586 62.3921 130.465C62.0934 130.344 61.8507 130.19 61.6641 130.003C61.4774 129.816 61.3421 129.606 61.2581 129.373C61.1741 129.13 61.1321 128.888 61.1321 128.645C61.1321 128.412 61.1741 128.174 61.2581 127.931C61.3421 127.688 61.4774 127.474 61.6641 127.287C61.8507 127.1 62.0934 126.946 62.3921 126.825C62.7001 126.704 63.0781 126.643 63.5261 126.643H65.4021C65.8501 126.643 66.2234 126.704 66.5221 126.825C66.8301 126.946 67.0774 127.1 67.2641 127.287C67.4507 127.474 67.5861 127.688 67.6701 127.931C67.7541 128.174 67.7961 128.412 67.7961 128.645ZM69.6301 130.899C69.5554 130.927 69.4854 130.922 69.4201 130.885C69.3641 130.848 69.3361 130.792 69.3361 130.717V124.095H70.8481V127.049H72.7941V128.365H70.8481V130.493L69.6301 130.899ZM60.8241 126.237V124.949H63.6801V123.885H65.2481V124.949H67.9781V126.237H60.8241ZM66.2561 128.645C66.2561 128.402 66.1767 128.22 66.0181 128.099C65.8594 127.968 65.6447 127.903 65.3741 127.903H63.5541C63.2834 127.903 63.0687 127.968 62.9101 128.099C62.7514 128.22 62.6721 128.402 62.6721 128.645C62.6721 128.888 62.7514 129.074 62.9101 129.205C63.0687 129.326 63.2834 129.387 63.5541 129.387H65.3741C65.6447 129.387 65.8594 129.326 66.0181 129.205C66.1767 129.074 66.2561 128.888 66.2561 128.645ZM80.9084 136.779C80.8337 136.807 80.7637 136.802 80.6984 136.765C80.6424 136.728 80.6144 136.672 80.6144 136.597V132.621H75.5044V131.305H87.2644V132.621H82.1544V136.373L80.9084 136.779ZM85.6684 130.325L81.3844 127.441L77.1004 130.325L76.2464 129.261L80.6004 126.335V124.445H82.1684V126.335L86.5224 129.261L85.6684 130.325ZM97.4507 128.001C97.4507 128.496 97.3621 128.92 97.1847 129.275C97.0167 129.63 96.7834 129.924 96.4847 130.157C96.1954 130.381 95.8547 130.549 95.4627 130.661C95.0707 130.764 94.6554 130.815 94.2167 130.815C93.7781 130.815 93.3627 130.764 92.9707 130.661C92.5787 130.549 92.2334 130.381 91.9347 130.157C91.6454 129.924 91.4121 129.63 91.2347 129.275C91.0667 128.92 90.9827 128.496 90.9827 128.001V127.189C90.9827 126.694 91.0667 126.27 91.2347 125.915C91.4121 125.56 91.6454 125.271 91.9347 125.047C92.2334 124.814 92.5787 124.646 92.9707 124.543C93.3627 124.431 93.7781 124.375 94.2167 124.375C94.6554 124.375 95.0707 124.431 95.4627 124.543C95.8547 124.646 96.1954 124.814 96.4847 125.047C96.7834 125.271 97.0167 125.56 97.1847 125.915C97.3621 126.27 97.4507 126.694 97.4507 127.189V128.001ZM100.769 136.723L98.7807 134.385L96.7227 136.681C96.6947 136.709 96.6574 136.723 96.6107 136.723C96.5641 136.723 96.5267 136.709 96.4987 136.681L94.4407 134.385L92.4527 136.723L91.3607 135.897L93.6287 133.237V131.613H95.1967V133.195L96.6107 134.763L98.0247 133.195V131.613H99.5927V133.237L101.861 135.897L100.769 136.723ZM95.9387 127.301C95.9387 126.741 95.7754 126.335 95.4487 126.083C95.1314 125.822 94.7207 125.691 94.2167 125.691C93.7127 125.691 93.2974 125.822 92.9707 126.083C92.6534 126.335 92.4947 126.741 92.4947 127.301V127.889C92.4947 128.449 92.6534 128.86 92.9707 129.121C93.2974 129.373 93.7127 129.499 94.2167 129.499C94.7207 129.499 95.1314 129.373 95.4487 129.121C95.7754 128.86 95.9387 128.449 95.9387 127.889V127.301ZM99.8027 131.319C99.7281 131.347 99.6581 131.342 99.5927 131.305C99.5367 131.268 99.5087 131.212 99.5087 131.137V124.095H101.021V130.913L99.8027 131.319ZM106.71 134.217C106.635 134.245 106.565 134.24 106.5 134.203C106.444 134.166 106.416 134.11 106.416 134.035V126.363H103.126V125.075H107.928V128.575H109.384V124.305H110.868V135.827L109.678 136.219C109.603 136.247 109.533 136.242 109.468 136.205C109.412 136.168 109.384 136.112 109.384 136.037V129.891H107.928V133.811L106.71 134.217ZM112.422 136.779C112.347 136.807 112.277 136.802 112.212 136.765C112.156 136.728 112.128 136.672 112.128 136.597V124.095H113.612V136.387L112.422 136.779ZM28.102 152.219C28.0273 152.247 27.9573 152.242 27.892 152.205C27.836 152.168 27.808 152.112 27.808 152.037V140.305H29.292V145.345H30.398V140.095H31.882V152.387L30.692 152.779C30.6173 152.807 30.5473 152.802 30.482 152.765C30.426 152.728 30.398 152.672 30.398 152.597V146.689H29.292V151.827L28.102 152.219ZM26.982 148.075C26.982 148.523 26.912 148.906 26.772 149.223C26.632 149.54 26.436 149.802 26.184 150.007C25.9413 150.212 25.652 150.362 25.316 150.455C24.9893 150.548 24.6393 150.595 24.266 150.595C23.8833 150.595 23.5287 150.548 23.202 150.455C22.8753 150.362 22.586 150.212 22.334 150.007C22.0913 149.802 21.9 149.54 21.76 149.223C21.62 148.906 21.55 148.523 21.55 148.075V146.003C21.55 145.555 21.62 145.172 21.76 144.855C21.9 144.538 22.0913 144.276 22.334 144.071C22.586 143.866 22.8753 143.716 23.202 143.623C23.5287 143.53 23.8833 143.483 24.266 143.483C24.6393 143.483 24.9893 143.53 25.316 143.623C25.652 143.716 25.9413 143.866 26.184 144.071C26.436 144.276 26.632 144.538 26.772 144.855C26.912 145.172 26.982 145.555 26.982 146.003V148.075ZM21.256 142.993V141.705H23.496V140.165H25.036V141.705H27.15V142.993H21.256ZM25.498 146.087C25.498 145.639 25.3813 145.312 25.148 145.107C24.9147 144.902 24.6207 144.799 24.266 144.799C23.9113 144.799 23.6173 144.902 23.384 145.107C23.1507 145.312 23.034 145.639 23.034 146.087V147.991C23.034 148.439 23.1507 148.766 23.384 148.971C23.6173 149.176 23.9113 149.279 24.266 149.279C24.6207 149.279 24.9147 149.176 25.148 148.971C25.3813 148.766 25.498 148.439 25.498 147.991V146.087ZM43.3389 146.451L39.2649 144.197L35.1909 146.451L34.4069 145.331L38.4949 143.091V142.153H34.9249V140.865H43.6049V142.153H40.0349V143.091L44.1229 145.331L43.3389 146.451ZM38.7889 152.779C38.7142 152.807 38.6442 152.802 38.5789 152.765C38.5229 152.728 38.4949 152.672 38.4949 152.597V148.621H33.3849V147.305H45.1449V148.621H40.0349V152.373L38.7889 152.779ZM47.3617 145.135V140.375H48.9017V143.847H56.1818V145.135H47.3617ZM45.7517 147.823V146.535H57.5117V147.823H45.7517ZM47.3617 152.443V148.663H48.9017V151.155H56.1818V152.443H47.3617ZM67.4881 149.475L64.5761 145.597L61.5381 149.643L60.3901 148.859L63.8061 144.337V140.795H65.3461V144.337L68.6361 148.691L67.4881 149.475ZM69.9941 152.779C69.9194 152.807 69.8494 152.802 69.7841 152.765C69.7281 152.728 69.7001 152.672 69.7001 152.597V140.095H71.2121V152.373L69.9941 152.779ZM83.019 147.935L78.875 144.225L74.731 147.935L73.765 146.955L78.091 143.105V140.725H79.659V143.105L83.985 146.955L83.019 147.935ZM72.995 151.211V149.895H84.755V151.211H72.995ZM87.8818 152.527V147.977H96.2818V152.527H87.8818ZM87.4758 143.147H90.3878V144.337H87.4758V145.709H91.7038V146.955H85.9638V140.599H90.8078V141.845H87.4758V143.147ZM92.6978 147.543C92.6232 147.571 92.5532 147.566 92.4878 147.529C92.4318 147.492 92.4038 147.436 92.4038 147.361V144.113H90.8918V142.797H92.4038V140.235H93.8878V147.151L92.6978 147.543ZM94.7698 149.265H89.3938V151.519H94.7698V149.265ZM95.0918 147.543C95.0172 147.571 94.9472 147.566 94.8818 147.529C94.8258 147.492 94.7978 147.436 94.7978 147.361V140.095H96.2818V147.151L95.0918 147.543ZM107.095 152.779C107.02 152.807 106.95 152.802 106.885 152.765C106.829 152.728 106.801 152.672 106.801 152.597V140.095H108.313V152.373L107.095 152.779ZM104.687 146.969C104.687 147.492 104.603 147.94 104.435 148.313C104.276 148.677 104.052 148.976 103.763 149.209C103.483 149.442 103.151 149.615 102.769 149.727C102.395 149.839 101.994 149.895 101.565 149.895C101.135 149.895 100.729 149.839 100.347 149.727C99.9734 149.615 99.642 149.442 99.3527 149.209C99.0727 148.976 98.8487 148.677 98.6807 148.313C98.522 147.94 98.4427 147.492 98.4427 146.969V143.721C98.4427 143.208 98.522 142.764 98.6807 142.391C98.8487 142.018 99.0727 141.714 99.3527 141.481C99.642 141.248 99.9734 141.075 100.347 140.963C100.729 140.851 101.135 140.795 101.565 140.795C101.994 140.795 102.395 140.851 102.769 140.963C103.151 141.075 103.483 141.248 103.763 141.481C104.052 141.714 104.276 142.018 104.435 142.391C104.603 142.764 104.687 143.208 104.687 143.721V146.969ZM103.175 143.749C103.175 143.18 103.021 142.764 102.713 142.503C102.414 142.242 102.031 142.111 101.565 142.111C101.098 142.111 100.711 142.242 100.403 142.503C100.104 142.764 99.9547 143.18 99.9547 143.749V146.941C99.9547 147.51 100.104 147.926 100.403 148.187C100.711 148.448 101.098 148.579 101.565 148.579C102.031 148.579 102.414 148.448 102.713 148.187C103.021 147.926 103.175 147.51 103.175 146.941V143.749ZM27.724 165.685L24.98 162.171L22.11 165.853L20.976 165.069L24.21 160.939V158.363H21.48V157.075H28.382V158.363H25.75V160.939L28.858 164.901L27.724 165.685ZM30.384 168.779C30.3093 168.807 30.2393 168.802 30.174 168.765C30.118 168.728 30.09 168.672 30.09 168.597V156.095H31.602V168.373L30.384 168.779ZM36.0869 164.971H34.6869L34.4769 156.571H36.2969L36.0869 164.971ZM34.5469 168.191V166.511H36.2269V168.191H34.5469Z" fill="#498B70"/>
<rect x="141" y="63.291" width="119" height="119" rx="9.5" stroke="black"/>
<path d="M156.628 87.055L154.628 83.807L152.5 87.247L150.756 86.271L153.54 81.855V79.167H151.284V77.295H153.524V75.535H155.748V77.295H157.86V79.167H155.732V81.887L158.372 86.079L156.628 87.055ZM159.252 89.519C158.9 89.6363 158.724 89.5297 158.724 89.199V82.383H156.884V80.463H158.724V75.711H160.82V88.991L159.252 89.519ZM162.164 90.159C161.823 90.2763 161.652 90.1697 161.652 89.839V75.471H163.732V89.631L162.164 90.159ZM169.655 87.311C169.303 87.4283 169.127 87.3217 169.127 86.991V78.431H165.543V76.559H171.287V78.319H172.695V75.711H174.791V88.991L173.223 89.519C172.871 89.6363 172.695 89.5297 172.695 89.199V84.559H171.287V86.751L169.655 87.311ZM176.359 90.159C176.018 90.2763 175.847 90.1697 175.847 89.839V75.471H177.927V89.631L176.359 90.159ZM171.287 82.655H172.695V80.223H171.287V82.655ZM186.842 83.551L183.866 80.975L180.746 83.711L179.306 82.319L182.762 79.343V77.967H179.914V76.095H187.722V77.967H184.97V79.327L188.298 82.159L186.842 83.551ZM190.218 90.159C189.866 90.287 189.69 90.1803 189.69 89.839V86.303H181.818V84.431H191.866V89.583L190.218 90.159ZM190.218 83.967C189.866 84.095 189.69 83.9937 189.69 83.663V80.479H187.354V78.559H189.69V75.471H191.866V83.407L190.218 83.967ZM205.821 80.287C205.821 80.8203 205.741 81.327 205.581 81.807C205.421 82.287 205.165 82.7083 204.813 83.071C204.461 83.4337 204.008 83.7217 203.453 83.935C202.909 84.1377 202.248 84.239 201.469 84.239H199.325C198.546 84.239 197.88 84.1377 197.325 83.935C196.781 83.7217 196.333 83.4337 195.981 83.071C195.629 82.7083 195.373 82.287 195.213 81.807C195.053 81.327 194.973 80.8203 194.973 80.287C194.973 79.7537 195.053 79.247 195.213 78.767C195.373 78.287 195.629 77.871 195.981 77.519C196.333 77.1563 196.781 76.8683 197.325 76.655C197.88 76.4417 198.546 76.335 199.325 76.335H201.469C202.248 76.335 202.909 76.4417 203.453 76.655C204.008 76.8683 204.461 77.1563 204.813 77.519C205.165 77.871 205.421 78.287 205.581 78.767C205.741 79.247 205.821 79.7537 205.821 80.287ZM193.453 88.383V86.479H207.341V88.383H193.453ZM203.613 80.287C203.613 79.647 203.432 79.1403 203.069 78.767C202.706 78.3937 202.141 78.207 201.373 78.207H199.421C198.653 78.207 198.088 78.3937 197.725 78.767C197.362 79.1403 197.181 79.647 197.181 80.287C197.181 80.927 197.362 81.4337 197.725 81.807C198.088 82.1803 198.653 82.367 199.421 82.367H201.373C202.141 82.367 202.706 82.1803 203.069 81.807C203.432 81.4337 203.613 80.927 203.613 80.287ZM207.648 88.639V86.735H213.568V84.863H209.488V79.711H217.472V78.255H209.488V76.399H219.696V81.455H211.712V83.007H219.936V84.863H215.776V86.735H221.536V88.639H207.648ZM232.356 86.847L229.38 82.959L226.276 87.039L224.612 85.919L228.276 81.135V78.431H225.316V76.559H233.348V78.431H230.484V81.119L234.02 85.727L232.356 86.847ZM235.668 90.159C235.316 90.287 235.14 90.1803 235.14 89.839V81.967H232.548V80.047H235.14V75.471H237.316V89.583L235.668 90.159ZM163.156 106.959C163.156 107.322 163.092 107.679 162.964 108.031C162.836 108.394 162.628 108.719 162.34 109.007C162.052 109.295 161.679 109.524 161.22 109.695C160.761 109.876 160.207 109.967 159.556 109.967H156.388C155.737 109.967 155.183 109.876 154.724 109.695C154.265 109.524 153.892 109.295 153.604 109.007C153.316 108.719 153.108 108.394 152.98 108.031C152.852 107.679 152.788 107.322 152.788 106.959C152.788 106.596 152.852 106.239 152.98 105.887C153.108 105.524 153.316 105.199 153.604 104.911C153.892 104.623 154.265 104.394 154.724 104.223C155.183 104.042 155.737 103.951 156.388 103.951H159.556C160.207 103.951 160.761 104.042 161.22 104.223C161.679 104.394 162.052 104.623 162.34 104.911C162.628 105.199 162.836 105.524 162.964 105.887C163.092 106.239 163.156 106.596 163.156 106.959ZM158.356 103.263L155.316 100.831L152.148 103.423L150.756 101.983L154.212 99.215V97.967H151.364V96.095H159.172V97.967H156.42V99.199L159.748 101.823L158.356 103.263ZM161.348 103.711C160.996 103.839 160.82 103.732 160.82 103.391V95.471H162.996V98.335H165.204V100.255H162.996V103.135L161.348 103.711ZM160.948 106.959C160.948 106.596 160.836 106.319 160.612 106.127C160.388 105.924 160.073 105.823 159.668 105.823H156.276C155.871 105.823 155.556 105.924 155.332 106.127C155.108 106.319 154.996 106.596 154.996 106.959C154.996 107.322 155.108 107.599 155.332 107.791C155.556 107.994 155.871 108.095 156.276 108.095H159.668C160.073 108.095 160.388 107.994 160.612 107.791C160.836 107.599 160.948 107.322 160.948 106.959ZM165.063 104.911V103.071H169.031V101.679H166.183V96.015H173.863V97.871H168.359V99.823H174.023V101.679H171.255V103.071H174.903V104.911H165.063ZM167.703 109.791V105.631H169.911V107.919H177.911V109.791H167.703ZM176.023 106.367C175.671 106.495 175.495 106.394 175.495 106.063V95.471H177.671V105.807L176.023 106.367ZM183.003 106.479V96.559H188.459V98.431H185.147V104.607H188.971V106.479H183.003ZM190.267 109.519C189.915 109.636 189.739 109.53 189.739 109.199V102.207H187.179V100.319H189.739V95.711H191.835V108.991L190.267 109.519ZM193.483 110.159C193.142 110.276 192.971 110.17 192.971 109.839V95.471H195.051V109.631L193.483 110.159ZM207.278 110.159C206.926 110.287 206.75 110.18 206.75 109.839V95.471H208.926V109.583L207.278 110.159ZM204.83 103.311C204.83 103.94 204.729 104.484 204.526 104.943C204.324 105.391 204.052 105.759 203.71 106.047C203.369 106.335 202.964 106.548 202.494 106.687C202.025 106.826 201.529 106.895 201.006 106.895C200.473 106.895 199.977 106.826 199.518 106.687C199.06 106.548 198.654 106.335 198.302 106.047C197.961 105.759 197.689 105.391 197.486 104.943C197.294 104.484 197.198 103.94 197.198 103.311V99.823C197.198 99.1937 197.294 98.655 197.486 98.207C197.689 97.7483 197.961 97.375 198.302 97.087C198.654 96.799 199.06 96.5857 199.518 96.447C199.977 96.3083 200.473 96.239 201.006 96.239C201.529 96.239 202.025 96.3083 202.494 96.447C202.964 96.5857 203.369 96.799 203.71 97.087C204.052 97.375 204.324 97.7483 204.526 98.207C204.729 98.655 204.83 99.1937 204.83 99.823V103.311ZM202.638 99.759C202.638 99.183 202.484 98.767 202.174 98.511C201.865 98.255 201.476 98.127 201.006 98.127C200.537 98.127 200.148 98.255 199.838 98.511C199.529 98.767 199.374 99.183 199.374 99.759V103.375C199.374 103.951 199.529 104.367 199.838 104.623C200.148 104.879 200.537 105.007 201.006 105.007C201.476 105.007 201.865 104.879 202.174 104.623C202.484 104.367 202.638 103.951 202.638 103.375V99.759ZM211.457 106.959V96.511H218.385V98.367H213.665V100.687H217.953V102.447H213.665V105.119H219.761V106.959H211.457ZM221.473 110.159C221.121 110.287 220.945 110.18 220.945 109.839V102.239H218.673V100.319H220.945V95.471H223.121V109.583L221.473 110.159ZM235.732 110.159C235.38 110.287 235.204 110.18 235.204 109.839V95.471H237.38V109.583L235.732 110.159ZM233.908 99.951C233.908 100.388 233.834 100.826 233.684 101.263C233.546 101.69 233.322 102.074 233.012 102.415C232.703 102.756 232.298 103.034 231.796 103.247C231.306 103.46 230.708 103.567 230.004 103.567H229.396C228.692 103.567 228.09 103.46 227.588 103.247C227.098 103.034 226.692 102.756 226.372 102.415C226.063 102.074 225.834 101.69 225.684 101.263C225.546 100.826 225.476 100.388 225.476 99.951C225.476 99.5137 225.546 99.0817 225.684 98.655C225.834 98.2177 226.063 97.8283 226.372 97.487C226.692 97.1457 227.098 96.8683 227.588 96.655C228.09 96.4417 228.692 96.335 229.396 96.335H230.004C230.708 96.335 231.306 96.4417 231.796 96.655C232.298 96.8683 232.703 97.1457 233.012 97.487C233.322 97.8283 233.546 98.2177 233.684 98.655C233.834 99.0817 233.908 99.5137 233.908 99.951ZM224.772 107.151V105.247H234.612V107.151H224.772ZM231.684 99.951C231.684 99.375 231.519 98.943 231.188 98.655C230.858 98.3563 230.42 98.207 229.876 98.207H229.524C228.98 98.207 228.538 98.3563 228.196 98.655C227.866 98.943 227.7 99.375 227.7 99.951C227.7 100.527 227.866 100.964 228.196 101.263C228.538 101.551 228.98 101.695 229.524 101.695H229.876C230.42 101.695 230.858 101.551 231.188 101.263C231.519 100.964 231.684 100.527 231.684 99.951ZM150.868 128.543V126.639H156.708V124.015H152.708V116.495H162.916V124.015H158.916V126.639H164.756V128.543H150.868ZM160.74 118.367H154.884V122.143H160.74V118.367ZM177.479 118.511C177.479 118.842 177.42 119.178 177.303 119.519C177.186 119.85 176.994 120.148 176.727 120.415C176.471 120.682 176.13 120.9 175.703 121.071C175.276 121.242 174.759 121.327 174.151 121.327H169.863C169.255 121.327 168.738 121.242 168.311 121.071C167.884 120.9 167.538 120.682 167.271 120.415C167.015 120.148 166.828 119.85 166.711 119.519C166.594 119.178 166.535 118.842 166.535 118.511C166.535 118.18 166.594 117.85 166.711 117.519C166.828 117.188 167.015 116.89 167.271 116.623C167.538 116.346 167.884 116.122 168.311 115.951C168.738 115.78 169.255 115.695 169.863 115.695H174.151C174.759 115.695 175.276 115.78 175.703 115.951C176.13 116.122 176.471 116.346 176.727 116.623C176.994 116.89 177.186 117.188 177.303 117.519C177.42 117.85 177.479 118.18 177.479 118.511ZM165.063 123.887V122.063H178.951V123.887H165.063ZM166.823 129.887V124.687H177.191V129.887H166.823ZM175.271 118.511C175.271 118.191 175.17 117.951 174.967 117.791C174.775 117.631 174.492 117.551 174.119 117.551H169.895C169.522 117.551 169.234 117.631 169.031 117.791C168.839 117.951 168.743 118.191 168.743 118.511C168.743 118.842 168.839 119.087 169.031 119.247C169.234 119.407 169.522 119.487 169.895 119.487H174.119C174.492 119.487 174.775 119.407 174.967 119.247C175.17 119.087 175.271 118.842 175.271 118.511ZM175.015 126.543H168.999V128.031H175.015V126.543ZM182.986 125.615H180.97L180.682 115.999H183.274L182.986 125.615ZM180.81 129.599V127.263H183.146V129.599H180.81ZM199.081 123.935C199.081 124.703 198.943 125.391 198.665 125.999C198.388 126.596 198.009 127.098 197.529 127.503C197.06 127.908 196.511 128.218 195.881 128.431C195.252 128.644 194.585 128.751 193.881 128.751H188.841V116.367H193.881C194.585 116.367 195.252 116.474 195.881 116.687C196.511 116.9 197.06 117.21 197.529 117.615C198.009 118.02 198.388 118.527 198.665 119.135C198.943 119.732 199.081 120.415 199.081 121.183V123.935ZM196.649 121.503C196.649 120.479 196.388 119.716 195.865 119.215C195.353 118.703 194.692 118.447 193.881 118.447H191.273V126.671H193.881C194.692 126.671 195.353 126.42 195.865 125.919C196.388 125.407 196.649 124.639 196.649 123.615V121.503ZM210.176 125.263C210.176 125.871 210.064 126.399 209.84 126.847C209.626 127.284 209.333 127.642 208.96 127.919C208.586 128.207 208.154 128.415 207.664 128.543C207.173 128.682 206.661 128.751 206.128 128.751H200.896V116.367H205.888C206.421 116.367 206.922 116.426 207.392 116.543C207.872 116.66 208.288 116.847 208.64 117.103C208.992 117.359 209.269 117.69 209.472 118.095C209.685 118.49 209.792 118.97 209.792 119.535C209.792 120.186 209.653 120.756 209.376 121.247C209.098 121.738 208.688 122.106 208.144 122.351C208.752 122.596 209.242 122.954 209.616 123.423C209.989 123.892 210.176 124.506 210.176 125.263ZM207.328 119.887C207.328 119.61 207.269 119.38 207.152 119.199C207.045 119.018 206.896 118.874 206.704 118.767C206.512 118.65 206.288 118.57 206.032 118.527C205.786 118.474 205.525 118.447 205.248 118.447H203.328V121.327H205.088C205.376 121.327 205.653 121.306 205.92 121.263C206.186 121.21 206.421 121.13 206.624 121.023C206.837 120.906 207.008 120.756 207.136 120.575C207.264 120.394 207.328 120.164 207.328 119.887ZM207.712 125.039C207.712 124.719 207.637 124.458 207.488 124.255C207.349 124.042 207.157 123.876 206.912 123.759C206.677 123.631 206.41 123.54 206.112 123.487C205.813 123.434 205.504 123.407 205.184 123.407H203.328V126.671H205.344C205.664 126.671 205.968 126.644 206.256 126.591C206.544 126.538 206.794 126.452 207.008 126.335C207.221 126.207 207.392 126.042 207.52 125.839C207.648 125.626 207.712 125.359 207.712 125.039ZM222.517 128.751L221.909 120.479L219.285 128.751H216.853L214.229 120.479L213.621 128.751H211.189L212.309 116.367H215.109L218.069 125.695L221.029 116.367H223.829L224.949 128.751H222.517ZM235.158 125.423C235.158 126.095 235.025 126.666 234.758 127.135C234.502 127.594 234.161 127.967 233.734 128.255C233.307 128.543 232.822 128.751 232.278 128.879C231.745 129.007 231.206 129.071 230.662 129.071C230.001 129.071 229.387 128.986 228.822 128.815C228.257 128.655 227.761 128.41 227.334 128.079C226.907 127.748 226.561 127.332 226.294 126.831C226.027 126.33 225.862 125.743 225.798 125.071L228.23 124.751C228.283 125.444 228.518 125.988 228.934 126.383C229.35 126.778 229.926 126.975 230.662 126.975C231.281 126.975 231.771 126.842 232.134 126.575C232.507 126.298 232.694 125.887 232.694 125.343C232.694 125.098 232.646 124.884 232.55 124.703C232.465 124.522 232.337 124.367 232.166 124.239C232.006 124.1 231.814 123.983 231.59 123.887C231.366 123.791 231.126 123.7 230.87 123.615L229.206 123.071C228.779 122.932 228.379 122.772 228.006 122.591C227.643 122.399 227.329 122.17 227.062 121.903C226.795 121.626 226.582 121.306 226.422 120.943C226.273 120.57 226.198 120.127 226.198 119.615C226.198 119.05 226.299 118.548 226.502 118.111C226.715 117.663 227.009 117.29 227.382 116.991C227.755 116.682 228.203 116.447 228.726 116.287C229.249 116.127 229.825 116.047 230.454 116.047C231.051 116.047 231.606 116.127 232.118 116.287C232.63 116.436 233.083 116.666 233.478 116.975C233.873 117.274 234.193 117.647 234.438 118.095C234.683 118.532 234.843 119.039 234.918 119.615L232.518 119.935C232.454 119.391 232.257 118.954 231.926 118.623C231.606 118.292 231.131 118.127 230.502 118.127C229.883 118.127 229.419 118.255 229.11 118.511C228.811 118.767 228.662 119.114 228.662 119.551C228.662 119.786 228.705 119.988 228.79 120.159C228.886 120.33 229.009 120.479 229.158 120.607C229.307 120.735 229.473 120.847 229.654 120.943C229.846 121.028 230.038 121.103 230.23 121.167L231.894 121.711C232.395 121.871 232.849 122.058 233.254 122.271C233.659 122.484 234.001 122.74 234.278 123.039C234.566 123.338 234.785 123.684 234.934 124.079C235.083 124.463 235.158 124.911 235.158 125.423ZM235.534 128.751V126.639H241.454V124.959H237.374V119.647H245.358V118.431H237.374V116.367H247.838V121.583H239.854V122.895H248.078V124.959H243.918V126.639H249.678V128.751H235.534ZM161.332 146.303C160.905 146.452 160.692 146.33 160.692 145.935V135.423H163.124V139.503H165.316V141.647H163.124V145.679L161.332 146.303ZM153.06 149.839V145.359H155.524V147.759H163.364V149.839H153.06ZM150.58 144.479V142.431H153.3V139.727H155.764V142.431H160.132V144.479H150.58ZM151.38 138.047V135.967H159.284V141.103L157.492 141.727C157.065 141.876 156.852 141.754 156.852 141.359V138.047H151.38ZM175.943 150.207C175.516 150.356 175.303 150.234 175.303 149.839V135.423H177.735V149.583L175.943 150.207ZM165.815 146.959V140.559H170.759V138.511H165.815V136.463H173.239V142.511H168.295V144.911H174.423V146.959H165.815ZM179.13 147.311V145.199H183.05V143.327H180.282V136.447H188.042V138.527H182.714V141.247H188.202V143.327H185.514V145.199H189.002V147.311H179.13ZM190.202 150.207C189.775 150.356 189.562 150.234 189.562 149.839V135.423H191.994V149.583L190.202 150.207ZM193.325 144.655V142.575H207.469V144.655H193.325ZM205.949 141.407H195.165V135.727H197.629V139.327H205.949V141.407ZM195.165 149.839V145.439H197.629V147.759H205.949V149.839H195.165ZM218.113 143.983L215.121 141.439L212.017 144.143L210.417 142.607L213.889 139.615V138.127H211.105V136.047H219.073V138.127H216.353V139.583L219.729 142.447L218.113 143.983ZM221.521 145.951C221.095 146.1 220.881 145.978 220.881 145.583V140.831H218.609V138.687H220.881V135.423H223.313V145.327L221.521 145.951ZM213.249 149.839V144.815H215.713V147.759H223.553V149.839H213.249ZM232.068 146.911L229.156 143.087L226.132 147.103L224.276 145.855L227.924 141.039V138.575H225.044V136.495H233.188V138.575H230.388V141.023L233.94 145.663L232.068 146.911ZM235.172 150.207C234.746 150.356 234.532 150.234 234.532 149.839V135.423H236.964V140.303H239.252V142.447H236.964V149.583L235.172 150.207ZM158.42 163.663L155.412 161.215L152.292 163.823L150.708 162.271L154.18 159.407V158.127H151.396V156.047H159.364V158.127H156.644V159.391L160.02 162.111L158.42 163.663ZM153.3 166.495V164.415H163.604V169.583L161.812 170.207C161.385 170.356 161.172 170.234 161.172 169.839V166.495H153.3ZM161.812 163.967C161.385 164.116 161.172 163.994 161.172 163.599V160.671H158.932V158.527H161.172V155.423H163.604V163.343L161.812 163.967ZM180.888 166.975C180.888 167.338 180.819 167.7 180.68 168.063C180.552 168.426 180.344 168.751 180.056 169.039C179.768 169.327 179.39 169.562 178.92 169.743C178.462 169.924 177.902 170.015 177.24 170.015H173.752C173.091 170.015 172.526 169.924 172.056 169.743C171.598 169.562 171.224 169.327 170.936 169.039C170.648 168.751 170.435 168.426 170.296 168.063C170.168 167.7 170.104 167.338 170.104 166.975C170.104 166.612 170.168 166.25 170.296 165.887C170.435 165.524 170.648 165.199 170.936 164.911C171.224 164.623 171.598 164.388 172.056 164.207C172.526 164.026 173.091 163.935 173.752 163.935H177.24C177.902 163.935 178.462 164.026 178.92 164.207C179.39 164.388 179.768 164.623 180.056 164.911C180.344 165.199 180.552 165.524 180.68 165.887C180.819 166.25 180.888 166.612 180.888 166.975ZM173.768 158.127V159.311L177.144 161.823L175.608 163.439L172.536 161.135L169.352 163.599L167.832 161.983L171.304 159.343V158.127H168.52V156.047H176.488V158.127H173.768ZM178.936 163.647C178.51 163.796 178.296 163.674 178.296 163.279V160.591H176.056V158.447H178.296V155.423H180.728V163.023L178.936 163.647ZM178.424 166.975C178.424 166.666 178.328 166.431 178.136 166.271C177.955 166.1 177.694 166.015 177.352 166.015H173.64C173.299 166.015 173.032 166.1 172.84 166.271C172.659 166.431 172.568 166.666 172.568 166.975C172.568 167.284 172.659 167.524 172.84 167.695C173.032 167.855 173.299 167.935 173.64 167.935H177.352C177.694 167.935 177.955 167.855 178.136 167.695C178.328 167.524 178.424 167.284 178.424 166.975ZM182.059 168.671V166.559H187.899V164.511H183.899V156.415H186.331V158.431H191.931V156.415H194.363V164.511H190.363V166.559H196.203V168.671H182.059ZM191.931 160.447H186.331V162.463H191.931V160.447ZM201.904 169.999V163.775H204.336V164.879H209.616V163.775H212.048V169.999H201.904ZM205.12 158.127V159.039L208.528 161.487L207.024 163.119L203.888 160.863L200.64 163.279L199.152 161.647L202.656 159.071V158.127H199.84V156.047H207.872V158.127H205.12ZM210.256 163.327C209.829 163.476 209.616 163.354 209.616 162.959V155.423H212.048V162.703L210.256 163.327ZM209.616 166.863H204.336V167.983H209.616V166.863ZM215.779 169.999V164.287H218.211V165.167H223.331V164.287H225.763V169.999H215.779ZM222.195 161.231C222.195 161.53 222.141 161.828 222.035 162.127C221.939 162.426 221.779 162.698 221.555 162.943C221.331 163.178 221.037 163.37 220.675 163.519C220.323 163.668 219.885 163.743 219.363 163.743H216.771C216.248 163.743 215.805 163.668 215.443 163.519C215.091 163.37 214.803 163.178 214.579 162.943C214.355 162.698 214.189 162.426 214.083 162.127C213.987 161.828 213.939 161.53 213.939 161.231C213.939 160.932 213.987 160.634 214.083 160.335C214.189 160.036 214.355 159.77 214.579 159.535C214.803 159.29 215.091 159.092 215.443 158.943C215.805 158.794 216.248 158.719 216.771 158.719H219.363C219.885 158.719 220.323 158.794 220.675 158.943C221.037 159.092 221.331 159.29 221.555 159.535C221.779 159.77 221.939 160.036 222.035 160.335C222.141 160.634 222.195 160.932 222.195 161.231ZM223.971 163.839C223.544 163.988 223.331 163.866 223.331 163.471V155.423H225.763V158.863H227.955V161.007H225.763V163.215L223.971 163.839ZM213.683 158.335V156.415H216.819V155.247H219.315V156.415H222.339V158.335H213.683ZM223.331 167.119H218.211V168.015H223.331V167.119ZM219.795 161.231C219.795 161.05 219.731 160.911 219.603 160.815C219.475 160.719 219.32 160.671 219.139 160.671H216.995C216.813 160.671 216.659 160.719 216.531 160.815C216.403 160.911 216.339 161.05 216.339 161.231C216.339 161.412 216.403 161.551 216.531 161.647C216.659 161.743 216.813 161.791 216.995 161.791H219.139C219.32 161.791 219.475 161.743 219.603 161.647C219.731 161.551 219.795 161.412 219.795 161.231ZM233.27 167.199L231.366 164.063L229.302 167.391L227.366 166.287L230.15 161.919V159.327H227.91V157.247H230.134V155.487H232.598V157.247H234.694V159.327H232.582V161.935L235.206 166.095L233.27 167.199ZM235.974 169.567C235.76 169.642 235.6 169.652 235.494 169.599C235.398 169.546 235.35 169.412 235.35 169.199V162.559H233.622V160.415H235.35V155.663H237.654V168.991L235.974 169.567ZM239.014 170.207C238.8 170.282 238.64 170.292 238.534 170.239C238.438 170.186 238.39 170.052 238.39 169.839V155.423H240.694V169.631L239.014 170.207ZM245.849 165.551H243.609L243.289 155.951H246.169L245.849 165.551ZM243.449 169.711V167.151H246.009V169.711H243.449Z" fill="#498B70"/>
</svg>
