<svg width="340" height="96" viewBox="0 0 340 96" fill="none" xmlns="http://www.w3.org/2000/svg">
<rect width="340" height="96" rx="20" fill="#F5F5F5"/>
<path d="M21.36 22.624C21.36 23.3173 21.2427 23.936 21.008 24.48C20.7733 25.024 20.4533 25.4933 20.048 25.888L21.36 27.76H18.576L18.048 27.008C17.4507 27.1893 16.8213 27.28 16.16 27.28C15.424 27.28 14.736 27.1733 14.096 26.96C13.4667 26.7573 12.9173 26.4533 12.448 26.048C11.9893 25.6533 11.6267 25.168 11.36 24.592C11.0933 24.016 10.96 23.36 10.96 22.624V18.912C10.96 18.176 11.0933 17.52 11.36 16.944C11.6267 16.368 11.9893 15.8827 12.448 15.488C12.9173 15.0827 13.4667 14.7787 14.096 14.576C14.736 14.3627 15.424 14.256 16.16 14.256C16.896 14.256 17.5787 14.3627 18.208 14.576C18.848 14.7787 19.3973 15.0827 19.856 15.488C20.3253 15.8827 20.6933 16.368 20.96 16.944C21.2267 17.52 21.36 18.176 21.36 18.912V22.624ZM18.928 19.296C18.928 17.3653 18.0053 16.4 16.16 16.4C14.3147 16.4 13.392 17.3653 13.392 19.296V22.24C13.392 24.1707 14.3147 25.136 16.16 25.136C16.256 25.136 16.3467 25.136 16.432 25.136C16.528 25.1253 16.6187 25.1147 16.704 25.104L14.576 22.048H17.36L18.608 23.856C18.8213 23.408 18.928 22.8693 18.928 22.24V19.296ZM23.4825 19.168V16.608H26.0425V19.168H23.4825ZM23.4825 24.928V22.368H26.0425V24.928H23.4825ZM40.6435 22.144C40.6435 22.88 40.5102 23.5307 40.2435 24.096C39.9768 24.6613 39.6142 25.136 39.1555 25.52C38.7075 25.904 38.1848 26.1973 37.5875 26.4C36.9902 26.6027 36.3608 26.704 35.6995 26.704H31.4275V14.832H35.6995C36.3608 14.832 36.9902 14.9333 37.5875 15.136C38.1848 15.3387 38.7075 15.632 39.1555 16.016C39.6142 16.4 39.9768 16.8747 40.2435 17.44C40.5102 18.0053 40.6435 18.656 40.6435 19.392V22.144ZM39.4755 19.696C39.4755 19.0453 39.3688 18.48 39.1555 18C38.9528 17.52 38.6755 17.12 38.3235 16.8C37.9715 16.48 37.5662 16.2453 37.1075 16.096C36.6488 15.936 36.1742 15.856 35.6835 15.856H32.6115V25.68H35.6835C36.1742 25.68 36.6488 25.6053 37.1075 25.456C37.5662 25.296 37.9715 25.056 38.3235 24.736C38.6755 24.416 38.9528 24.016 39.1555 23.536C39.3688 23.056 39.4755 22.4907 39.4755 21.84V19.696ZM50.7066 23.472C50.7066 24.048 50.6 24.5387 50.3866 24.944C50.184 25.3493 49.9066 25.6853 49.5546 25.952C49.2133 26.208 48.8133 26.3947 48.3546 26.512C47.896 26.64 47.416 26.704 46.9146 26.704H42.4506V14.832H46.6746C47.176 14.832 47.6453 14.8853 48.0826 14.992C48.5306 15.0987 48.92 15.2693 49.2506 15.504C49.5813 15.7387 49.8426 16.0427 50.0346 16.416C50.2266 16.7787 50.3226 17.2213 50.3226 17.744C50.3226 18.352 50.1946 18.9013 49.9386 19.392C49.6933 19.872 49.2453 20.2507 48.5946 20.528C49.3306 20.784 49.864 21.1627 50.1946 21.664C50.536 22.1653 50.7066 22.768 50.7066 23.472ZM49.1866 17.952C49.1866 17.568 49.1173 17.2427 48.9786 16.976C48.8506 16.7093 48.6693 16.496 48.4346 16.336C48.2 16.1653 47.9173 16.0427 47.5866 15.968C47.2666 15.8933 46.9146 15.856 46.5306 15.856H43.6346V20.064H46.4346C46.808 20.064 47.16 20.0267 47.4906 19.952C47.8213 19.8667 48.1093 19.7387 48.3546 19.568C48.6106 19.3973 48.8133 19.1787 48.9626 18.912C49.112 18.6453 49.1866 18.3253 49.1866 17.952ZM49.5706 23.376C49.5706 22.9493 49.4853 22.5867 49.3146 22.288C49.144 21.9893 48.9146 21.7493 48.6266 21.568C48.3493 21.376 48.024 21.2427 47.6506 21.168C47.288 21.0827 46.904 21.04 46.4986 21.04H43.6346V25.68H46.5946C47.032 25.68 47.432 25.6427 47.7946 25.568C48.1573 25.4827 48.472 25.3547 48.7386 25.184C49.0053 25.0027 49.208 24.768 49.3466 24.48C49.496 24.1813 49.5706 23.8133 49.5706 23.376ZM63.2965 26.704L62.4005 16.64L58.7045 26.704H57.4565L53.7765 16.64L52.8645 26.704H51.7125L52.8005 14.832H54.2725L58.0805 25.216L61.8885 14.832H63.3605L64.4485 26.704H63.2965ZM73.6422 23.84C73.6422 24.416 73.5249 24.9067 73.2902 25.312C73.0662 25.7067 72.7676 26.032 72.3942 26.288C72.0209 26.544 71.5942 26.7307 71.1142 26.848C70.6449 26.9653 70.1649 27.024 69.6742 27.024C69.1089 27.024 68.5809 26.9493 68.0902 26.8C67.5996 26.6507 67.1622 26.432 66.7782 26.144C66.3942 25.8667 66.0742 25.52 65.8182 25.104C65.5729 24.6773 65.4022 24.192 65.3062 23.648L66.5702 23.456C66.6236 23.8293 66.7356 24.176 66.9062 24.496C67.0876 24.8053 67.3116 25.072 67.5782 25.296C67.8556 25.52 68.1702 25.696 68.5222 25.824C68.8742 25.9413 69.2582 26 69.6742 26C70.5062 26 71.1729 25.8133 71.6742 25.44C72.1862 25.056 72.4422 24.496 72.4422 23.76C72.4422 23.12 72.2449 22.608 71.8502 22.224C71.4662 21.8293 70.8956 21.52 70.1382 21.296L68.2662 20.736C67.9142 20.6293 67.5782 20.4853 67.2582 20.304C66.9489 20.1227 66.6769 19.904 66.4422 19.648C66.2182 19.3813 66.0369 19.0773 65.8982 18.736C65.7702 18.384 65.7062 17.9893 65.7062 17.552C65.7062 17.0613 65.7969 16.6293 65.9782 16.256C66.1702 15.872 66.4316 15.552 66.7622 15.296C67.1036 15.0293 67.5089 14.8267 67.9782 14.688C68.4476 14.5493 68.9596 14.48 69.5142 14.48C70.0262 14.48 70.4956 14.5493 70.9222 14.688C71.3596 14.8267 71.7436 15.024 72.0742 15.28C72.4156 15.536 72.6982 15.8507 72.9222 16.224C73.1462 16.5973 73.3062 17.024 73.4022 17.504L72.1862 17.712C72.0689 17.0613 71.7756 16.528 71.3062 16.112C70.8476 15.696 70.2556 15.488 69.5302 15.488C68.6876 15.488 68.0369 15.6747 67.5782 16.048C67.1302 16.4107 66.9062 16.8853 66.9062 17.472C66.9062 18.0907 67.0769 18.592 67.4182 18.976C67.7702 19.3493 68.2716 19.6373 68.9222 19.84L70.7942 20.416C71.7436 20.704 72.4529 21.1147 72.9222 21.648C73.4022 22.1813 73.6422 22.912 73.6422 23.84ZM76.4913 19.472V14.24H77.6753V18.464H86.0433V19.472H76.4913ZM74.6353 22.384V21.36H87.5313V22.384H74.6353ZM76.4913 27.744V23.632H77.6753V26.72H85.9953V27.744H76.4913ZM99.3436 21.728C99.3436 22.2933 99.253 22.7787 99.0716 23.184C98.901 23.5787 98.661 23.904 98.3516 24.16C98.0423 24.416 97.6796 24.6027 97.2636 24.72C96.8583 24.8373 96.4263 24.896 95.9676 24.896C95.4983 24.896 95.0556 24.8373 94.6396 24.72C94.2343 24.6027 93.877 24.416 93.5676 24.16C93.269 23.904 93.029 23.5787 92.8476 23.184C92.677 22.7787 92.5916 22.2933 92.5916 21.728V17.888C92.5916 17.3333 92.677 16.8587 92.8476 16.464C93.029 16.0587 93.269 15.728 93.5676 15.472C93.877 15.216 94.2343 15.0293 94.6396 14.912C95.0556 14.784 95.4983 14.72 95.9676 14.72C96.4263 14.72 96.8583 14.784 97.2636 14.912C97.6796 15.0293 98.0423 15.216 98.3516 15.472C98.661 15.728 98.901 16.0587 99.0716 16.464C99.253 16.8587 99.3436 17.3333 99.3436 17.888V19.152H102.128V13.92H103.296V27.776L102.384 28.08C102.213 28.1333 102.128 28.08 102.128 27.92V20.176H99.3436V21.728ZM98.1596 17.984C98.1596 17.6 98.101 17.2693 97.9836 16.992C97.877 16.704 97.7223 16.4747 97.5196 16.304C97.3276 16.1227 97.0983 15.9893 96.8316 15.904C96.565 15.8187 96.277 15.776 95.9676 15.776C95.6583 15.776 95.365 15.8187 95.0876 15.904C94.821 15.9893 94.5863 16.1227 94.3836 16.304C94.1916 16.4747 94.037 16.704 93.9196 16.992C93.813 17.2693 93.7596 17.6 93.7596 17.984V21.632C93.7596 22.016 93.813 22.352 93.9196 22.64C94.037 22.9173 94.1916 23.1467 94.3836 23.328C94.5863 23.4987 94.821 23.6267 95.0876 23.712C95.365 23.7973 95.6583 23.84 95.9676 23.84C96.277 23.84 96.565 23.7973 96.8316 23.712C97.0983 23.6267 97.3276 23.4987 97.5196 23.328C97.7223 23.1467 97.877 22.9173 97.9836 22.64C98.101 22.352 98.1596 22.016 98.1596 21.632V17.984ZM117.875 26.08C117.875 26.3147 117.832 26.5493 117.747 26.784C117.672 27.0187 117.544 27.232 117.363 27.424C117.192 27.616 116.957 27.7707 116.659 27.888C116.371 28.0053 116.019 28.064 115.603 28.064H110.963C110.547 28.064 110.189 28.0053 109.891 27.888C109.603 27.7707 109.368 27.616 109.187 27.424C109.016 27.232 108.888 27.0187 108.803 26.784C108.728 26.5493 108.691 26.3147 108.691 26.08C108.691 25.8453 108.728 25.6107 108.803 25.376C108.888 25.1413 109.016 24.928 109.187 24.736C109.368 24.544 109.603 24.3893 109.891 24.272C110.189 24.1547 110.547 24.096 110.963 24.096H115.603C116.019 24.096 116.371 24.1547 116.659 24.272C116.957 24.3893 117.192 24.544 117.363 24.736C117.544 24.928 117.672 25.1413 117.747 25.376C117.832 25.6107 117.875 25.8453 117.875 26.08ZM110.947 20.512V14.56H114.803V15.584H112.131V19.488H115.363V20.512H110.947ZM116.691 26.08C116.691 25.76 116.579 25.5147 116.355 25.344C116.141 25.1733 115.843 25.088 115.459 25.088H111.107C110.723 25.088 110.419 25.1733 110.195 25.344C109.981 25.5147 109.875 25.76 109.875 26.08C109.875 26.3893 109.981 26.6293 110.195 26.8C110.419 26.9707 110.723 27.056 111.107 27.056H115.459C115.843 27.056 116.141 26.9707 116.355 26.8C116.579 26.6293 116.691 26.3893 116.691 26.08ZM106.627 20.512V14.56H110.403V15.584H107.795V19.488H110.403V20.512H106.627ZM116.803 21.456C116.632 21.5093 116.547 21.4507 116.547 21.28V17.936H113.955V16.912H116.547V13.92H117.715V21.152L116.803 21.456ZM108.451 23.392V22.4H112.675V21.136H113.891V22.4H118.115V23.392H108.451ZM124.694 25.2C124.619 25.2213 124.555 25.216 124.502 25.184C124.448 25.152 124.422 25.0987 124.422 25.024V16.064H120.598V15.04H125.606V19.136H127.75V14.16H128.918V27.152L128.022 27.44C127.84 27.4933 127.75 27.44 127.75 27.28V20.176H125.606V24.896L124.694 25.2ZM131.11 28.08C131.035 28.1013 130.971 28.096 130.918 28.064C130.864 28.0427 130.838 27.9947 130.838 27.92V13.92H132.006V27.792L131.11 28.08ZM138.106 24.416V15.04H143.002V16.064H139.274V23.392H143.626V24.416H138.106ZM145.178 27.44C144.997 27.4933 144.906 27.44 144.906 27.28V20H141.946V18.96H144.906V14.16H146.074V27.152L145.178 27.44ZM148.234 28.08C148.159 28.1013 148.095 28.096 148.042 28.064C147.989 28.0427 147.962 27.9947 147.962 27.92V13.92H149.13V27.792L148.234 28.08ZM162.093 28.08C161.922 28.1333 161.837 28.08 161.837 27.92V13.92H163.005V27.776L162.093 28.08ZM159.085 21.664C159.085 22.2293 158.994 22.7147 158.813 23.12C158.642 23.5147 158.402 23.84 158.093 24.096C157.784 24.352 157.421 24.5387 157.005 24.656C156.6 24.7733 156.162 24.832 155.693 24.832C155.224 24.832 154.781 24.7733 154.365 24.656C153.96 24.5387 153.602 24.352 153.293 24.096C152.984 23.84 152.738 23.5147 152.557 23.12C152.386 22.7147 152.301 22.2293 152.301 21.664V17.888C152.301 17.3333 152.386 16.8587 152.557 16.464C152.738 16.0587 152.984 15.728 153.293 15.472C153.602 15.216 153.96 15.0293 154.365 14.912C154.781 14.784 155.224 14.72 155.693 14.72C156.162 14.72 156.6 14.784 157.005 14.912C157.421 15.0293 157.784 15.216 158.093 15.472C158.402 15.728 158.642 16.0587 158.813 16.464C158.994 16.8587 159.085 17.3333 159.085 17.888V21.664ZM157.917 17.984C157.917 17.6 157.858 17.2693 157.741 16.992C157.634 16.704 157.48 16.4747 157.277 16.304C157.074 16.1227 156.84 15.9893 156.573 15.904C156.306 15.8187 156.013 15.776 155.693 15.776C155.373 15.776 155.08 15.8187 154.813 15.904C154.546 15.9893 154.312 16.1227 154.109 16.304C153.906 16.4747 153.746 16.704 153.629 16.992C153.522 17.2693 153.469 17.6 153.469 17.984V21.568C153.469 21.952 153.522 22.288 153.629 22.576C153.746 22.8533 153.906 23.0827 154.109 23.264C154.312 23.4347 154.546 23.5627 154.813 23.648C155.08 23.7333 155.373 23.776 155.693 23.776C156.013 23.776 156.306 23.7333 156.573 23.648C156.84 23.5627 157.074 23.4347 157.277 23.264C157.48 23.0827 157.634 22.8533 157.741 22.576C157.858 22.288 157.917 21.952 157.917 21.568V17.984ZM166.56 24.896V14.976H172.896V16H167.744V19.28H172.496V20.256H167.744V23.872H174.448V24.896H166.56ZM176.288 28.08C176.117 28.1333 176.032 28.08 176.032 27.92V20H173.424V18.976H176.032V13.92H177.2V27.776L176.288 28.08ZM184.644 20.512V14.8H193.828V20.512H184.644ZM192.66 15.824H185.812V19.504H192.66V15.824ZM188.916 28.08C188.735 28.1333 188.644 28.08 188.644 27.92V23.312H182.788V22.288H195.684V23.312H189.828V27.776L188.916 28.08ZM203.351 20.816C203.277 20.8373 203.213 20.832 203.159 20.8C203.106 20.768 203.079 20.7147 203.079 20.64V15.584H197.591V14.56H204.263V15.584H207.415V13.92H208.583V20.832L207.671 21.136C207.501 21.1893 207.415 21.1307 207.415 20.96V19.232H204.263V20.512L203.351 20.816ZM199.719 27.936V24.336H207.383V22.768H199.719V21.792H208.583V25.28H200.919V26.944H208.823V27.936H199.719ZM204.263 18.208H207.415V16.608H204.263V18.208ZM222.938 25.088C222.938 25.4187 222.88 25.7493 222.762 26.08C222.645 26.4213 222.453 26.7253 222.186 26.992C221.92 27.2693 221.573 27.4933 221.146 27.664C220.73 27.8347 220.213 27.92 219.594 27.92H216.778C216.16 27.92 215.637 27.8347 215.21 27.664C214.784 27.4933 214.437 27.2693 214.17 26.992C213.914 26.7253 213.728 26.4213 213.61 26.08C213.493 25.7493 213.434 25.4187 213.434 25.088C213.434 24.7573 213.493 24.4267 213.61 24.096C213.728 23.7547 213.914 23.4507 214.17 23.184C214.437 22.9173 214.784 22.6987 215.21 22.528C215.637 22.3573 216.16 22.272 216.778 22.272H219.594C220.213 22.272 220.73 22.3573 221.146 22.528C221.573 22.6987 221.92 22.9173 222.186 23.184C222.453 23.4507 222.645 23.7547 222.762 24.096C222.88 24.4267 222.938 24.7573 222.938 25.088ZM221.738 25.088C221.738 24.5227 221.562 24.08 221.21 23.76C220.858 23.44 220.346 23.28 219.674 23.28H216.698C216.026 23.28 215.514 23.44 215.162 23.76C214.81 24.08 214.634 24.5227 214.634 25.088C214.634 25.6533 214.81 26.096 215.162 26.416C215.514 26.736 216.026 26.896 216.698 26.896H219.674C220.346 26.896 220.858 26.736 221.21 26.416C221.562 26.096 221.738 25.6533 221.738 25.088ZM218.634 21.12L215.194 17.616L211.61 21.28L210.81 20.544L214.602 16.688V14.24H215.802V16.704L219.45 20.368L218.634 21.12ZM221.866 22.032C221.696 22.0853 221.61 22.0267 221.61 21.856V17.328H218.586V16.304H221.61V13.92H222.778V21.728L221.866 22.032ZM236.813 16.464C236.813 16.7413 236.765 17.0187 236.669 17.296C236.573 17.5627 236.413 17.8027 236.189 18.016C235.976 18.2293 235.693 18.4053 235.341 18.544C234.989 18.6827 234.563 18.752 234.061 18.752H229.581C229.08 18.752 228.653 18.6827 228.301 18.544C227.949 18.4053 227.661 18.2293 227.437 18.016C227.224 17.8027 227.069 17.5627 226.973 17.296C226.877 17.0187 226.829 16.7413 226.829 16.464C226.829 16.1973 226.877 15.9253 226.973 15.648C227.069 15.3707 227.224 15.1253 227.437 14.912C227.661 14.688 227.949 14.5067 228.301 14.368C228.653 14.2293 229.08 14.16 229.581 14.16H234.061C234.563 14.16 234.989 14.2293 235.341 14.368C235.693 14.5067 235.976 14.688 236.189 14.912C236.413 15.1253 236.573 15.3707 236.669 15.648C236.765 15.9253 236.813 16.1973 236.813 16.464ZM225.373 20.88V19.872H238.269V20.88H225.373ZM227.149 27.936V24.496H235.293V23.072H227.149V22.112H236.493V25.44H228.349V26.96H236.733V27.936H227.149ZM235.613 16.464C235.613 16.0587 235.48 15.744 235.213 15.52C234.947 15.296 234.573 15.184 234.093 15.184H229.549C229.069 15.184 228.696 15.296 228.429 15.52C228.163 15.744 228.029 16.0587 228.029 16.464C228.029 16.8693 228.163 17.184 228.429 17.408C228.696 17.632 229.069 17.744 229.549 17.744H234.093C234.573 17.744 234.947 17.632 235.213 17.408C235.48 17.184 235.613 16.8693 235.613 16.464ZM253.778 17.664C253.778 18.0373 253.714 18.4107 253.586 18.784C253.468 19.1467 253.266 19.4773 252.978 19.776C252.7 20.064 252.332 20.2987 251.874 20.48C251.426 20.6613 250.876 20.752 250.226 20.752H247.666C247.004 20.752 246.45 20.6613 246.002 20.48C245.554 20.2987 245.186 20.064 244.898 19.776C244.62 19.4773 244.418 19.1467 244.29 18.784C244.172 18.4107 244.114 18.0373 244.114 17.664C244.114 17.2907 244.172 16.9227 244.29 16.56C244.418 16.1867 244.62 15.8507 244.898 15.552C245.186 15.2533 245.554 15.0133 246.002 14.832C246.45 14.6507 247.004 14.56 247.666 14.56H250.226C250.876 14.56 251.426 14.6507 251.874 14.832C252.332 15.0133 252.7 15.2533 252.978 15.552C253.266 15.8507 253.468 16.1867 253.586 16.56C253.714 16.9227 253.778 17.2907 253.778 17.664ZM252.578 17.664C252.578 17.0027 252.37 16.4907 251.954 16.128C251.548 15.7653 250.972 15.584 250.226 15.584H247.666C246.919 15.584 246.338 15.7653 245.922 16.128C245.516 16.4907 245.314 17.0027 245.314 17.664C245.314 18.3253 245.516 18.8373 245.922 19.2C246.338 19.5627 246.919 19.744 247.666 19.744H250.226C250.972 19.744 251.548 19.5627 251.954 19.2C252.37 18.8373 252.578 18.3253 252.578 17.664ZM246.194 28.08C246.012 28.1333 245.922 28.08 245.922 27.92V23.28H242.498V22.256H255.394V23.28H251.97V27.776L251.058 28.08C250.876 28.1333 250.786 28.08 250.786 27.92V23.28H247.106V27.776L246.194 28.08ZM264.357 24.608L261.029 20.224L257.589 24.8L256.677 24.176L260.437 19.2V16.064H257.237V15.04H264.741V16.064H261.637V19.216L265.253 23.984L264.357 24.608ZM267.317 28.08C267.146 28.1333 267.061 28.08 267.061 27.92V13.92H268.229V27.776L267.317 28.08ZM278.552 22.48C278.552 23.0453 278.461 23.5307 278.28 23.936C278.098 24.3307 277.848 24.6613 277.528 24.928C277.218 25.184 276.856 25.376 276.44 25.504C276.024 25.6213 275.576 25.68 275.096 25.68C274.626 25.68 274.178 25.6213 273.752 25.504C273.336 25.376 272.973 25.184 272.664 24.928C272.354 24.6613 272.109 24.3307 271.928 23.936C271.746 23.5307 271.656 23.0453 271.656 22.48V20.976C271.656 20.4107 271.746 19.9253 271.928 19.52C272.109 19.1147 272.354 18.784 272.664 18.528C272.973 18.2613 273.336 18.0693 273.752 17.952C274.178 17.824 274.626 17.76 275.096 17.76C275.576 17.76 276.024 17.824 276.44 17.952C276.856 18.0693 277.218 18.2613 277.528 18.528C277.848 18.784 278.098 19.1147 278.28 19.52C278.461 19.9253 278.552 20.4107 278.552 20.976V22.48ZM277.368 21.024C277.368 20.2773 277.149 19.7227 276.712 19.36C276.285 18.9973 275.746 18.816 275.096 18.816C274.456 18.816 273.917 18.9973 273.48 19.36C273.053 19.7227 272.84 20.2773 272.84 21.024V22.416C272.84 23.1627 273.053 23.7227 273.48 24.096C273.917 24.4587 274.456 24.64 275.096 24.64C275.746 24.64 276.285 24.4587 276.712 24.096C277.149 23.7227 277.368 23.1627 277.368 22.416V21.024ZM281.032 28.032C280.861 28.0747 280.776 28.0373 280.776 27.92V13.92H281.944V20.048H284.312V21.072H281.944V27.776L281.032 28.032ZM271.128 16.848V15.824H274.504V13.968H275.704V15.824H278.92V16.848H271.128ZM295.227 28.08C295.056 28.1333 294.971 28.08 294.971 27.92V13.92H296.139V18.912H298.507V19.936H296.139V27.776L295.227 28.08ZM285.979 24.192V14.88H287.163V23.168H293.675V24.192H285.979ZM310.638 18.464C310.638 18.976 310.558 19.4613 310.398 19.92C310.248 20.368 310.008 20.7627 309.678 21.104C309.347 21.4347 308.915 21.7013 308.382 21.904C307.859 22.096 307.23 22.192 306.494 22.192H304.958C304.222 22.192 303.587 22.096 303.054 21.904C302.531 21.7013 302.104 21.4347 301.774 21.104C301.443 20.7627 301.198 20.368 301.038 19.92C300.888 19.4613 300.814 18.976 300.814 18.464C300.814 17.952 300.888 17.472 301.038 17.024C301.198 16.5653 301.443 16.1653 301.774 15.824C302.104 15.4827 302.531 15.216 303.054 15.024C303.587 14.8213 304.222 14.72 304.958 14.72H306.494C307.23 14.72 307.859 14.8213 308.382 15.024C308.915 15.216 309.347 15.4827 309.678 15.824C310.008 16.1653 310.248 16.5653 310.398 17.024C310.558 17.472 310.638 17.952 310.638 18.464ZM309.438 18.464C309.438 17.6427 309.198 16.9867 308.718 16.496C308.248 15.9947 307.502 15.744 306.478 15.744H304.974C303.95 15.744 303.198 15.9947 302.718 16.496C302.248 16.9867 302.014 17.6427 302.014 18.464C302.014 19.2853 302.248 19.9467 302.718 20.448C303.198 20.9387 303.95 21.184 304.974 21.184H306.478C307.502 21.184 308.248 20.9387 308.718 20.448C309.198 19.9467 309.438 19.2853 309.438 18.464ZM299.278 26.496V25.456H302.654V22.72H303.838V25.456H307.614V22.72H308.798V25.456H312.174V26.496H299.278ZM320.465 18.16C320.465 18.6293 320.374 19.056 320.193 19.44C320.022 19.824 319.782 20.1707 319.473 20.48C319.174 20.7787 318.827 21.0507 318.433 21.296C318.038 21.5307 317.622 21.7387 317.185 21.92V24.208H315.985V21.232C316.422 21.0933 316.838 20.928 317.233 20.736C317.627 20.5333 317.974 20.304 318.273 20.048C318.582 19.792 318.827 19.504 319.009 19.184C319.19 18.8533 319.281 18.4853 319.281 18.08V17.264C319.281 16.6027 319.067 16.0747 318.641 15.68C318.225 15.2747 317.595 15.072 316.753 15.072C316.347 15.072 316.006 15.136 315.729 15.264C315.451 15.3813 315.222 15.5467 315.041 15.76C314.859 15.9733 314.721 16.224 314.625 16.512C314.529 16.7893 314.47 17.088 314.449 17.408L313.217 17.296C313.249 16.7947 313.355 16.3413 313.537 15.936C313.729 15.5307 313.979 15.1893 314.289 14.912C314.609 14.624 314.977 14.4053 315.393 14.256C315.819 14.096 316.283 14.016 316.785 14.016C317.339 14.016 317.841 14.0907 318.289 14.24C318.747 14.3893 319.137 14.608 319.457 14.896C319.777 15.1733 320.022 15.5147 320.193 15.92C320.374 16.3253 320.465 16.7893 320.465 17.312V18.16ZM315.889 27.456V26.064H317.281V27.456H315.889Z" fill="#92006B"/>
<path d="M19.504 58.96L18.448 56.048H13.696L12.656 58.96H10.16L14.784 46.576H17.376L22 58.96H19.504ZM14.448 53.968H17.696L16.08 49.456L14.448 53.968ZM23.3262 51.168V48.608H25.8863V51.168H23.3262ZM23.3262 56.928V54.368H25.8863V56.928H23.3262ZM40.4872 54.144C40.4872 54.88 40.3539 55.5307 40.0872 56.096C39.8206 56.6613 39.4579 57.136 38.9992 57.52C38.5512 57.904 38.0286 58.1973 37.4312 58.4C36.8339 58.6027 36.2046 58.704 35.5432 58.704H31.2712V46.832H35.5432C36.2046 46.832 36.8339 46.9333 37.4312 47.136C38.0286 47.3387 38.5512 47.632 38.9992 48.016C39.4579 48.4 39.8206 48.8747 40.0872 49.44C40.3539 50.0053 40.4872 50.656 40.4872 51.392V54.144ZM39.3192 51.696C39.3192 51.0453 39.2126 50.48 38.9992 50C38.7966 49.52 38.5192 49.12 38.1672 48.8C37.8152 48.48 37.4099 48.2453 36.9512 48.096C36.4926 47.936 36.0179 47.856 35.5272 47.856H32.4552V57.68H35.5272C36.0179 57.68 36.4926 57.6053 36.9512 57.456C37.4099 57.296 37.8152 57.056 38.1672 56.736C38.5192 56.416 38.7966 56.016 38.9992 55.536C39.2126 55.056 39.3192 54.4907 39.3192 53.84V51.696ZM50.5504 55.472C50.5504 56.048 50.4437 56.5387 50.2304 56.944C50.0277 57.3493 49.7504 57.6853 49.3984 57.952C49.057 58.208 48.657 58.3947 48.1984 58.512C47.7397 58.64 47.2597 58.704 46.7584 58.704H42.2944V46.832H46.5184C47.0197 46.832 47.489 46.8853 47.9264 46.992C48.3744 47.0987 48.7637 47.2693 49.0944 47.504C49.425 47.7387 49.6864 48.0427 49.8784 48.416C50.0704 48.7787 50.1664 49.2213 50.1664 49.744C50.1664 50.352 50.0384 50.9013 49.7824 51.392C49.537 51.872 49.089 52.2507 48.4384 52.528C49.1744 52.784 49.7077 53.1627 50.0384 53.664C50.3797 54.1653 50.5504 54.768 50.5504 55.472ZM49.0304 49.952C49.0304 49.568 48.961 49.2427 48.8224 48.976C48.6944 48.7093 48.513 48.496 48.2784 48.336C48.0437 48.1653 47.761 48.0427 47.4304 47.968C47.1104 47.8933 46.7584 47.856 46.3744 47.856H43.4784V52.064H46.2784C46.6517 52.064 47.0037 52.0267 47.3344 51.952C47.665 51.8667 47.953 51.7387 48.1984 51.568C48.4544 51.3973 48.657 51.1787 48.8064 50.912C48.9557 50.6453 49.0304 50.3253 49.0304 49.952ZM49.4144 55.376C49.4144 54.9493 49.329 54.5867 49.1584 54.288C48.9877 53.9893 48.7584 53.7493 48.4704 53.568C48.193 53.376 47.8677 53.2427 47.4944 53.168C47.1317 53.0827 46.7477 53.04 46.3424 53.04H43.4784V57.68H46.4384C46.8757 57.68 47.2757 57.6427 47.6384 57.568C48.001 57.4827 48.3157 57.3547 48.5824 57.184C48.849 57.0027 49.0517 56.768 49.1904 56.48C49.3397 56.1813 49.4144 55.8133 49.4144 55.376ZM63.1402 58.704L62.2442 48.64L58.5482 58.704H57.3002L53.6202 48.64L52.7082 58.704H51.5562L52.6442 46.832H54.1162L57.9242 57.216L61.7322 46.832H63.2042L64.2922 58.704H63.1402ZM73.486 55.84C73.486 56.416 73.3687 56.9067 73.134 57.312C72.91 57.7067 72.6113 58.032 72.238 58.288C71.8647 58.544 71.438 58.7307 70.958 58.848C70.4887 58.9653 70.0087 59.024 69.518 59.024C68.9527 59.024 68.4247 58.9493 67.934 58.8C67.4433 58.6507 67.006 58.432 66.622 58.144C66.238 57.8667 65.918 57.52 65.662 57.104C65.4167 56.6773 65.246 56.192 65.15 55.648L66.414 55.456C66.4673 55.8293 66.5793 56.176 66.75 56.496C66.9313 56.8053 67.1553 57.072 67.422 57.296C67.6993 57.52 68.014 57.696 68.366 57.824C68.718 57.9413 69.102 58 69.518 58C70.35 58 71.0167 57.8133 71.518 57.44C72.03 57.056 72.286 56.496 72.286 55.76C72.286 55.12 72.0887 54.608 71.694 54.224C71.31 53.8293 70.7393 53.52 69.982 53.296L68.11 52.736C67.758 52.6293 67.422 52.4853 67.102 52.304C66.7927 52.1227 66.5207 51.904 66.286 51.648C66.062 51.3813 65.8807 51.0773 65.742 50.736C65.614 50.384 65.55 49.9893 65.55 49.552C65.55 49.0613 65.6407 48.6293 65.822 48.256C66.014 47.872 66.2753 47.552 66.606 47.296C66.9473 47.0293 67.3527 46.8267 67.822 46.688C68.2913 46.5493 68.8033 46.48 69.358 46.48C69.87 46.48 70.3393 46.5493 70.766 46.688C71.2033 46.8267 71.5873 47.024 71.918 47.28C72.2593 47.536 72.542 47.8507 72.766 48.224C72.99 48.5973 73.15 49.024 73.246 49.504L72.03 49.712C71.9127 49.0613 71.6193 48.528 71.15 48.112C70.6913 47.696 70.0993 47.488 69.374 47.488C68.5313 47.488 67.8807 47.6747 67.422 48.048C66.974 48.4107 66.75 48.8853 66.75 49.472C66.75 50.0907 66.9207 50.592 67.262 50.976C67.614 51.3493 68.1153 51.6373 68.766 51.84L70.638 52.416C71.5873 52.704 72.2967 53.1147 72.766 53.648C73.246 54.1813 73.486 54.912 73.486 55.84ZM76.335 51.472V46.24H77.519V50.464H85.887V51.472H76.335ZM74.479 54.384V53.36H87.375V54.384H74.479ZM76.335 59.744V55.632H77.519V58.72H85.839V59.744H76.335ZM102.771 52.976L98.0514 50.192L93.3314 52.976L92.7074 52.08L97.4594 49.296V47.824H93.3314V46.8H102.771V47.824H98.6434V49.296L103.395 52.08L102.771 52.976ZM97.7314 60.08C97.55 60.1333 97.4594 60.08 97.4594 59.92V55.28H91.6034V54.256H104.499V55.28H98.6434V59.776L97.7314 60.08ZM105.798 58.496V57.456H111.734V54.832H107.654V50.304H115.654V47.856H107.654V46.832H116.838V51.28H108.838V53.824H117.078V54.832H112.918V57.456H118.694V58.496H105.798ZM123.755 56.416V47.04H128.651V48.064H124.923V55.392H129.275V56.416H123.755ZM130.827 59.44C130.645 59.4933 130.555 59.44 130.555 59.28V52H127.595V50.96H130.555V46.16H131.723V59.152L130.827 59.44ZM133.883 60.08C133.808 60.1013 133.744 60.096 133.691 60.064C133.637 60.0427 133.611 59.9947 133.611 59.92V45.92H134.779V59.792L133.883 60.08ZM147.742 60.08C147.571 60.1333 147.486 60.08 147.486 59.92V45.92H148.654V59.776L147.742 60.08ZM144.734 53.664C144.734 54.2293 144.643 54.7147 144.462 55.12C144.291 55.5147 144.051 55.84 143.742 56.096C143.432 56.352 143.07 56.5387 142.654 56.656C142.248 56.7733 141.811 56.832 141.342 56.832C140.872 56.832 140.43 56.7733 140.014 56.656C139.608 56.5387 139.251 56.352 138.942 56.096C138.632 55.84 138.387 55.5147 138.206 55.12C138.035 54.7147 137.95 54.2293 137.95 53.664V49.888C137.95 49.3333 138.035 48.8587 138.206 48.464C138.387 48.0587 138.632 47.728 138.942 47.472C139.251 47.216 139.608 47.0293 140.014 46.912C140.43 46.784 140.872 46.72 141.342 46.72C141.811 46.72 142.248 46.784 142.654 46.912C143.07 47.0293 143.432 47.216 143.742 47.472C144.051 47.728 144.291 48.0587 144.462 48.464C144.643 48.8587 144.734 49.3333 144.734 49.888V53.664ZM143.566 49.984C143.566 49.6 143.507 49.2693 143.39 48.992C143.283 48.704 143.128 48.4747 142.926 48.304C142.723 48.1227 142.488 47.9893 142.222 47.904C141.955 47.8187 141.662 47.776 141.342 47.776C141.022 47.776 140.728 47.8187 140.462 47.904C140.195 47.9893 139.96 48.1227 139.758 48.304C139.555 48.4747 139.395 48.704 139.278 48.992C139.171 49.2693 139.118 49.6 139.118 49.984V53.568C139.118 53.952 139.171 54.288 139.278 54.576C139.395 54.8533 139.555 55.0827 139.758 55.264C139.96 55.4347 140.195 55.5627 140.462 55.648C140.728 55.7333 141.022 55.776 141.342 55.776C141.662 55.776 141.955 55.7333 142.222 55.648C142.488 55.5627 142.723 55.4347 142.926 55.264C143.128 55.0827 143.283 54.8533 143.39 54.576C143.507 54.288 143.566 53.952 143.566 53.568V49.984ZM152.209 56.896V46.976H158.545V48H153.393V51.28H158.145V52.256H153.393V55.872H160.097V56.896H152.209ZM161.937 60.08C161.766 60.1333 161.681 60.08 161.681 59.92V52H159.073V50.976H161.681V45.92H162.849V59.776L161.937 60.08ZM171.908 54.192C171.908 54.672 171.833 55.0827 171.684 55.424C171.534 55.7653 171.326 56.048 171.06 56.272C170.804 56.4853 170.5 56.6453 170.148 56.752C169.806 56.848 169.438 56.896 169.044 56.896C168.638 56.896 168.26 56.848 167.908 56.752C167.566 56.6453 167.268 56.4853 167.012 56.272C166.756 56.048 166.553 55.7653 166.404 55.424C166.254 55.0827 166.18 54.672 166.18 54.192V49.424C166.18 48.944 166.254 48.5333 166.404 48.192C166.553 47.8507 166.756 47.5733 167.012 47.36C167.268 47.136 167.566 46.976 167.908 46.88C168.26 46.7733 168.638 46.72 169.044 46.72C169.438 46.72 169.806 46.7733 170.148 46.88C170.5 46.976 170.804 47.136 171.06 47.36C171.326 47.5733 171.534 47.8507 171.684 48.192C171.833 48.5333 171.908 48.944 171.908 49.424V51.152H173.572V46.16H174.74V59.152L173.844 59.44C173.662 59.4933 173.572 59.44 173.572 59.28V52.176H171.908V54.192ZM170.74 49.504C170.74 48.9067 170.58 48.4693 170.26 48.192C169.94 47.9147 169.534 47.776 169.044 47.776C168.553 47.776 168.148 47.9147 167.828 48.192C167.508 48.4693 167.348 48.9067 167.348 49.504V54.112C167.348 54.7093 167.508 55.1467 167.828 55.424C168.148 55.7013 168.553 55.84 169.044 55.84C169.534 55.84 169.94 55.7013 170.26 55.424C170.58 55.1467 170.74 54.7093 170.74 54.112V49.504ZM176.468 60.08C176.393 60.1013 176.329 60.096 176.276 60.064C176.222 60.0427 176.196 59.9947 176.196 59.92V45.92H177.364V59.792L176.468 60.08ZM190.056 53.472L186.936 50.432L183.688 53.632L182.872 52.88L186.344 49.488V47.584H183.32V46.56H190.472V47.584H187.544V49.504L190.872 52.72L190.056 53.472ZM193.32 60.08C193.149 60.1333 193.064 60.08 193.064 59.92V55.76H185.208V54.752H194.232V59.776L193.32 60.08ZM193.32 54.096C193.149 54.1493 193.064 54.0907 193.064 53.92V50.032H190.28V49.008H193.064V45.92H194.232V53.792L193.32 54.096ZM196.827 53.712V52.704H200.219V51.04C199.536 50.8587 199.046 50.544 198.747 50.096C198.459 49.648 198.315 49.1733 198.315 48.672C198.315 48.3733 198.368 48.0747 198.475 47.776C198.582 47.4667 198.752 47.1947 198.987 46.96C199.232 46.7253 199.542 46.5333 199.915 46.384C200.288 46.2347 200.747 46.16 201.291 46.16H205.259C205.803 46.16 206.262 46.2347 206.635 46.384C207.008 46.5333 207.312 46.7253 207.547 46.96C207.792 47.1947 207.968 47.4667 208.075 47.776C208.182 48.0747 208.235 48.3733 208.235 48.672C208.235 49.1733 208.086 49.648 207.787 50.096C207.499 50.544 207.014 50.8587 206.331 51.04V52.704H209.723V53.712H196.827ZM208.251 57.376C208.251 57.6747 208.198 57.9733 208.091 58.272C207.984 58.5813 207.808 58.8533 207.563 59.088C207.328 59.3333 207.019 59.5307 206.635 59.68C206.262 59.84 205.798 59.92 205.243 59.92H201.307C200.752 59.92 200.283 59.84 199.899 59.68C199.526 59.5307 199.216 59.3333 198.971 59.088C198.736 58.8533 198.566 58.5813 198.459 58.272C198.352 57.9733 198.299 57.6747 198.299 57.376C198.299 57.0773 198.352 56.7787 198.459 56.48C198.566 56.1813 198.736 55.9147 198.971 55.68C199.216 55.4347 199.526 55.2373 199.899 55.088C200.283 54.928 200.752 54.848 201.307 54.848H205.243C205.798 54.848 206.262 54.928 206.635 55.088C207.019 55.2373 207.328 55.4347 207.563 55.68C207.808 55.9147 207.984 56.1813 208.091 56.48C208.198 56.7787 208.251 57.0773 208.251 57.376ZM207.051 57.376C207.051 56.896 206.896 56.5227 206.587 56.256C206.288 55.9893 205.851 55.856 205.275 55.856H201.275C200.699 55.856 200.256 55.9893 199.947 56.256C199.648 56.5227 199.499 56.896 199.499 57.376C199.499 57.856 199.648 58.2293 199.947 58.496C200.256 58.7627 200.699 58.896 201.275 58.896H205.275C205.851 58.896 206.288 58.7627 206.587 58.496C206.896 58.2293 207.051 57.856 207.051 57.376ZM207.035 48.672C207.035 48.192 206.875 47.824 206.555 47.568C206.246 47.312 205.819 47.184 205.275 47.184H201.275C200.731 47.184 200.299 47.312 199.979 47.568C199.67 47.824 199.515 48.192 199.515 48.672C199.515 49.152 199.67 49.52 199.979 49.776C200.299 50.032 200.731 50.16 201.275 50.16H205.275C205.819 50.16 206.246 50.032 206.555 49.776C206.875 49.52 207.035 49.152 207.035 48.672ZM201.419 52.704H205.131V51.168H201.419V52.704ZM211.038 57.216V56.176H215.166V53.312H212.19V46.96H219.182V47.984H213.358V52.304H219.342V53.312H216.35V56.176H220.606V57.216H211.038ZM221.71 60.08C221.539 60.1333 221.454 60.08 221.454 59.92V45.92H222.622V59.776L221.71 60.08ZM227.073 51.472V46.24H228.257V50.464H236.625V51.472H227.073ZM225.217 54.384V53.36H238.113V54.384H225.217ZM227.073 59.744V55.632H228.257V58.72H236.577V59.744H227.073ZM253.029 56.272C252.859 56.3253 252.773 56.2667 252.773 56.096V52.128H249.781C249.515 52.768 249.088 53.232 248.501 53.52C247.925 53.7973 247.275 53.936 246.549 53.936C246.069 53.936 245.616 53.8773 245.189 53.76C244.773 53.632 244.405 53.44 244.085 53.184C243.765 52.9173 243.509 52.5813 243.317 52.176C243.136 51.76 243.045 51.2693 243.045 50.704V49.488C243.045 48.9227 243.136 48.4373 243.317 48.032C243.509 47.616 243.765 47.28 244.085 47.024C244.405 46.7573 244.773 46.56 245.189 46.432C245.616 46.304 246.069 46.24 246.549 46.24C247.232 46.24 247.856 46.3733 248.421 46.64C248.997 46.9067 249.424 47.3227 249.701 47.888H252.773V45.92H253.941V55.968L253.029 56.272ZM248.869 49.552C248.869 48.784 248.651 48.2187 248.213 47.856C247.787 47.4827 247.232 47.296 246.549 47.296C245.856 47.296 245.291 47.4827 244.853 47.856C244.427 48.2187 244.213 48.784 244.213 49.552V50.64C244.213 51.408 244.427 51.9787 244.853 52.352C245.291 52.7147 245.856 52.896 246.549 52.896C247.232 52.896 247.787 52.7147 248.213 52.352C248.651 51.9787 248.869 51.408 248.869 50.64V49.552ZM245.157 59.744V55.216H246.341V58.72H254.181V59.744H245.157ZM250.053 50.704C250.053 50.7787 250.048 50.848 250.037 50.912C250.037 50.976 250.037 51.04 250.037 51.104H252.773V48.928H250.021C250.032 49.0133 250.037 49.104 250.037 49.2C250.048 49.296 250.053 49.392 250.053 49.488V50.704ZM263.801 53.68L260.393 49.952L256.841 53.84L256.009 53.136L259.801 49.008V46.24H261.001V49.008L264.649 52.96L263.801 53.68ZM266.745 56.272C266.574 56.3253 266.489 56.2667 266.489 56.096V45.92H267.657V49.312H269.929V50.336H267.657V55.968L266.745 56.272ZM259.033 59.744V55.152H260.217V58.72H267.897V59.744H259.033ZM277.131 54.192C277.131 54.672 277.057 55.0827 276.907 55.424C276.758 55.7653 276.55 56.048 276.283 56.272C276.027 56.4853 275.723 56.6453 275.371 56.752C275.03 56.848 274.662 56.896 274.267 56.896C273.862 56.896 273.483 56.848 273.131 56.752C272.79 56.6453 272.491 56.4853 272.235 56.272C271.979 56.048 271.777 55.7653 271.627 55.424C271.478 55.0827 271.403 54.672 271.403 54.192V49.424C271.403 48.944 271.478 48.5333 271.627 48.192C271.777 47.8507 271.979 47.5733 272.235 47.36C272.491 47.136 272.79 46.976 273.131 46.88C273.483 46.7733 273.862 46.72 274.267 46.72C274.662 46.72 275.03 46.7733 275.371 46.88C275.723 46.976 276.027 47.136 276.283 47.36C276.55 47.5733 276.758 47.8507 276.907 48.192C277.057 48.5333 277.131 48.944 277.131 49.424V51.152H278.795V46.16H279.963V59.152L279.067 59.44C278.886 59.4933 278.795 59.44 278.795 59.28V52.176H277.131V54.192ZM275.963 49.504C275.963 48.9067 275.803 48.4693 275.483 48.192C275.163 47.9147 274.758 47.776 274.267 47.776C273.777 47.776 273.371 47.9147 273.051 48.192C272.731 48.4693 272.571 48.9067 272.571 49.504V54.112C272.571 54.7093 272.731 55.1467 273.051 55.424C273.371 55.7013 273.777 55.84 274.267 55.84C274.758 55.84 275.163 55.7013 275.483 55.424C275.803 55.1467 275.963 54.7093 275.963 54.112V49.504ZM281.691 60.08C281.617 60.1013 281.553 60.096 281.499 60.064C281.446 60.0427 281.419 59.9947 281.419 59.92V45.92H282.587V59.792L281.691 60.08ZM293.728 56.768L291.36 52.88L288.88 56.96L287.904 56.432L290.768 51.744V48.064H288.4V47.04H294.24V48.064H291.952V51.744L294.704 56.24L293.728 56.768ZM296.112 59.44C295.931 59.4933 295.84 59.44 295.84 59.28V51.6H293.584V50.576H295.84V46.16H297.008V59.152L296.112 59.44ZM298.816 60.08C298.741 60.1013 298.677 60.096 298.624 60.064C298.571 60.0427 298.544 59.9947 298.544 59.92V45.92H299.712V59.792L298.816 60.08ZM18.656 73.664C18.656 73.984 18.6027 74.3093 18.496 74.64C18.3893 74.9707 18.2133 75.2693 17.968 75.536C17.7227 75.8027 17.4027 76.0213 17.008 76.192C16.6133 76.352 16.128 76.432 15.552 76.432H14.56C13.984 76.432 13.4987 76.352 13.104 76.192C12.7093 76.0213 12.3893 75.8027 12.144 75.536C11.8987 75.2693 11.7227 74.9707 11.616 74.64C11.5093 74.3093 11.456 73.984 11.456 73.664C11.456 73.3333 11.5093 73.0027 11.616 72.672C11.7227 72.3413 11.8987 72.0427 12.144 71.776C12.3893 71.5093 12.7093 71.296 13.104 71.136C13.4987 70.9653 13.984 70.88 14.56 70.88H15.552C16.128 70.88 16.6133 70.9653 17.008 71.136C17.4027 71.296 17.7227 71.5093 17.968 71.776C18.2133 72.0427 18.3893 72.3413 18.496 72.672C18.6027 73.0027 18.656 73.3333 18.656 73.664ZM21.072 78.432C20.9013 78.4853 20.816 78.4267 20.816 78.256V67.92H21.984V72.272H24.256V73.296H21.984V78.128L21.072 78.432ZM17.456 73.664C17.456 73.088 17.2907 72.6507 16.96 72.352C16.6293 72.0533 16.1653 71.904 15.568 71.904H14.544C13.9467 71.904 13.4827 72.0533 13.152 72.352C12.8213 72.6507 12.656 73.088 12.656 73.664C12.656 74.2293 12.8213 74.6613 13.152 74.96C13.4827 75.2587 13.9467 75.408 14.544 75.408H15.568C16.1653 75.408 16.6293 75.2587 16.96 74.96C17.2907 74.6613 17.456 74.2293 17.456 73.664ZM13.36 81.744V77.632H14.544V80.72H22.224V81.744H13.36ZM11.04 70.112V69.088H14.448V67.712H15.648V69.088H18.896V70.112H11.04ZM36.499 70.464C36.499 70.7413 36.451 71.0187 36.355 71.296C36.259 71.5627 36.099 71.8027 35.875 72.016C35.6617 72.2293 35.379 72.4053 35.027 72.544C34.675 72.6827 34.2483 72.752 33.747 72.752H29.267C28.7657 72.752 28.339 72.6827 27.987 72.544C27.635 72.4053 27.347 72.2293 27.123 72.016C26.9097 71.8027 26.755 71.5627 26.659 71.296C26.563 71.0187 26.515 70.7413 26.515 70.464C26.515 70.1973 26.563 69.9253 26.659 69.648C26.755 69.3707 26.9097 69.1253 27.123 68.912C27.347 68.688 27.635 68.5067 27.987 68.368C28.339 68.2293 28.7657 68.16 29.267 68.16H33.747C34.2483 68.16 34.675 68.2293 35.027 68.368C35.379 68.5067 35.6617 68.688 35.875 68.912C36.099 69.1253 36.259 69.3707 36.355 69.648C36.451 69.9253 36.499 70.1973 36.499 70.464ZM25.059 74.88V73.872H37.955V74.88H25.059ZM26.835 81.936V78.496H34.979V77.072H26.835V76.112H36.179V79.44H28.035V80.96H36.419V81.936H26.835ZM35.299 70.464C35.299 70.0587 35.1657 69.744 34.899 69.52C34.6323 69.296 34.259 69.184 33.779 69.184H29.235C28.755 69.184 28.3817 69.296 28.115 69.52C27.8483 69.744 27.715 70.0587 27.715 70.464C27.715 70.8693 27.8483 71.184 28.115 71.408C28.3817 71.632 28.755 71.744 29.235 71.744H33.779C34.259 71.744 34.6323 71.632 34.899 71.408C35.1657 71.184 35.299 70.8693 35.299 70.464ZM44.0394 74.512V68.8H53.3034V69.824H45.2074V73.504H53.4634V74.512H44.0394ZM48.3114 82.08C48.13 82.1333 48.0394 82.08 48.0394 81.92V77.312H42.1834V76.288H55.0794V77.312H49.2234V81.776L48.3114 82.08ZM63.9624 75.728C63.9624 76.2933 63.8717 76.7787 63.6904 77.184C63.5197 77.5787 63.2797 77.904 62.9704 78.16C62.661 78.416 62.2984 78.6027 61.8824 78.72C61.477 78.8373 61.045 78.896 60.5864 78.896C60.117 78.896 59.6744 78.8373 59.2584 78.72C58.853 78.6027 58.4957 78.416 58.1864 78.16C57.8877 77.904 57.6477 77.5787 57.4664 77.184C57.2957 76.7787 57.2104 76.2933 57.2104 75.728V71.888C57.2104 71.3333 57.2957 70.8587 57.4664 70.464C57.6477 70.0587 57.8877 69.728 58.1864 69.472C58.4957 69.216 58.853 69.0293 59.2584 68.912C59.6744 68.784 60.117 68.72 60.5864 68.72C61.045 68.72 61.477 68.784 61.8824 68.912C62.2984 69.0293 62.661 69.216 62.9704 69.472C63.2797 69.728 63.5197 70.0587 63.6904 70.464C63.8717 70.8587 63.9624 71.3333 63.9624 71.888V73.152H66.7464V67.92H67.9144V81.776L67.0024 82.08C66.8317 82.1333 66.7464 82.08 66.7464 81.92V74.176H63.9624V75.728ZM62.7784 71.984C62.7784 71.6 62.7197 71.2693 62.6024 70.992C62.4957 70.704 62.341 70.4747 62.1384 70.304C61.9464 70.1227 61.717 69.9893 61.4504 69.904C61.1837 69.8187 60.8957 69.776 60.5864 69.776C60.277 69.776 59.9837 69.8187 59.7064 69.904C59.4397 69.9893 59.205 70.1227 59.0024 70.304C58.8104 70.4747 58.6557 70.704 58.5384 70.992C58.4317 71.2693 58.3784 71.6 58.3784 71.984V75.632C58.3784 76.016 58.4317 76.352 58.5384 76.64C58.6557 76.9173 58.8104 77.1467 59.0024 77.328C59.205 77.4987 59.4397 77.6267 59.7064 77.712C59.9837 77.7973 60.277 77.84 60.5864 77.84C60.8957 77.84 61.1837 77.7973 61.4504 77.712C61.717 77.6267 61.9464 77.4987 62.1384 77.328C62.341 77.1467 62.4957 76.9173 62.6024 76.64C62.7197 76.352 62.7784 76.016 62.7784 75.632V71.984ZM74.3347 78.416V69.04H79.2307V70.064H75.5027V77.392H79.8547V78.416H74.3347ZM81.4067 81.44C81.2254 81.4933 81.1347 81.44 81.1347 81.28V74H78.1747V72.96H81.1347V68.16H82.3027V81.152L81.4067 81.44ZM84.4627 82.08C84.3881 82.1013 84.3241 82.096 84.2707 82.064C84.2174 82.0427 84.1907 81.9947 84.1907 81.92V67.92H85.3587V81.792L84.4627 82.08ZM98.3217 82.08C98.1511 82.1333 98.0657 82.08 98.0657 81.92V67.92H99.2337V81.776L98.3217 82.08ZM95.3137 75.664C95.3137 76.2293 95.2231 76.7147 95.0417 77.12C94.8711 77.5147 94.6311 77.84 94.3217 78.096C94.0124 78.352 93.6497 78.5387 93.2337 78.656C92.8284 78.7733 92.3911 78.832 91.9217 78.832C91.4524 78.832 91.0097 78.7733 90.5937 78.656C90.1884 78.5387 89.8311 78.352 89.5217 78.096C89.2124 77.84 88.9671 77.5147 88.7857 77.12C88.6151 76.7147 88.5297 76.2293 88.5297 75.664V71.888C88.5297 71.3333 88.6151 70.8587 88.7857 70.464C88.9671 70.0587 89.2124 69.728 89.5217 69.472C89.8311 69.216 90.1884 69.0293 90.5937 68.912C91.0097 68.784 91.4524 68.72 91.9217 68.72C92.3911 68.72 92.8284 68.784 93.2337 68.912C93.6497 69.0293 94.0124 69.216 94.3217 69.472C94.6311 69.728 94.8711 70.0587 95.0417 70.464C95.2231 70.8587 95.3137 71.3333 95.3137 71.888V75.664ZM94.1457 71.984C94.1457 71.6 94.0871 71.2693 93.9697 70.992C93.8631 70.704 93.7084 70.4747 93.5057 70.304C93.3031 70.1227 93.0684 69.9893 92.8017 69.904C92.5351 69.8187 92.2417 69.776 91.9217 69.776C91.6017 69.776 91.3084 69.8187 91.0417 69.904C90.7751 69.9893 90.5404 70.1227 90.3377 70.304C90.1351 70.4747 89.9751 70.704 89.8577 70.992C89.7511 71.2693 89.6977 71.6 89.6977 71.984V75.568C89.6977 75.952 89.7511 76.288 89.8577 76.576C89.9751 76.8533 90.1351 77.0827 90.3377 77.264C90.5404 77.4347 90.7751 77.5627 91.0417 77.648C91.3084 77.7333 91.6017 77.776 91.9217 77.776C92.2417 77.776 92.5351 77.7333 92.8017 77.648C93.0684 77.5627 93.3031 77.4347 93.5057 77.264C93.7084 77.0827 93.8631 76.8533 93.9697 76.576C94.0871 76.288 94.1457 75.952 94.1457 75.568V71.984ZM102.789 78.896V68.976H109.125V70H103.973V73.28H108.725V74.256H103.973V77.872H110.677V78.896H102.789ZM112.517 82.08C112.346 82.1333 112.261 82.08 112.261 81.92V74H109.653V72.976H112.261V67.92H113.429V81.776L112.517 82.08ZM120.873 74.512V68.8H130.057V74.512H120.873ZM128.889 69.824H122.041V73.504H128.889V69.824ZM125.145 82.08C124.964 82.1333 124.873 82.08 124.873 81.92V77.312H119.017V76.288H131.913V77.312H126.057V81.776L125.145 82.08ZM139.58 74.816C139.505 74.8373 139.441 74.832 139.388 74.8C139.335 74.768 139.308 74.7147 139.308 74.64V69.584H133.82V68.56H140.492V69.584H143.644V67.92H144.812V74.832L143.9 75.136C143.729 75.1893 143.644 75.1307 143.644 74.96V73.232H140.492V74.512L139.58 74.816ZM135.948 81.936V78.336H143.612V76.768H135.948V75.792H144.812V79.28H137.148V80.944H145.052V81.936H135.948ZM140.492 72.208H143.644V70.608H140.492V72.208ZM159.167 79.088C159.167 79.4187 159.108 79.7493 158.991 80.08C158.874 80.4213 158.682 80.7253 158.415 80.992C158.148 81.2693 157.802 81.4933 157.375 81.664C156.959 81.8347 156.442 81.92 155.823 81.92H153.007C152.388 81.92 151.866 81.8347 151.439 81.664C151.012 81.4933 150.666 81.2693 150.399 80.992C150.143 80.7253 149.956 80.4213 149.839 80.08C149.722 79.7493 149.663 79.4187 149.663 79.088C149.663 78.7573 149.722 78.4267 149.839 78.096C149.956 77.7547 150.143 77.4507 150.399 77.184C150.666 76.9173 151.012 76.6987 151.439 76.528C151.866 76.3573 152.388 76.272 153.007 76.272H155.823C156.442 76.272 156.959 76.3573 157.375 76.528C157.802 76.6987 158.148 76.9173 158.415 77.184C158.682 77.4507 158.874 77.7547 158.991 78.096C159.108 78.4267 159.167 78.7573 159.167 79.088ZM157.967 79.088C157.967 78.5227 157.791 78.08 157.439 77.76C157.087 77.44 156.575 77.28 155.903 77.28H152.927C152.255 77.28 151.743 77.44 151.391 77.76C151.039 78.08 150.863 78.5227 150.863 79.088C150.863 79.6533 151.039 80.096 151.391 80.416C151.743 80.736 152.255 80.896 152.927 80.896H155.903C156.575 80.896 157.087 80.736 157.439 80.416C157.791 80.096 157.967 79.6533 157.967 79.088ZM154.863 75.12L151.423 71.616L147.839 75.28L147.039 74.544L150.831 70.688V68.24H152.031V70.704L155.679 74.368L154.863 75.12ZM158.095 76.032C157.924 76.0853 157.839 76.0267 157.839 75.856V71.328H154.815V70.304H157.839V67.92H159.007V75.728L158.095 76.032ZM173.042 70.464C173.042 70.7413 172.994 71.0187 172.898 71.296C172.802 71.5627 172.642 71.8027 172.418 72.016C172.205 72.2293 171.922 72.4053 171.57 72.544C171.218 72.6827 170.791 72.752 170.29 72.752H165.81C165.309 72.752 164.882 72.6827 164.53 72.544C164.178 72.4053 163.89 72.2293 163.666 72.016C163.453 71.8027 163.298 71.5627 163.202 71.296C163.106 71.0187 163.058 70.7413 163.058 70.464C163.058 70.1973 163.106 69.9253 163.202 69.648C163.298 69.3707 163.453 69.1253 163.666 68.912C163.89 68.688 164.178 68.5067 164.53 68.368C164.882 68.2293 165.309 68.16 165.81 68.16H170.29C170.791 68.16 171.218 68.2293 171.57 68.368C171.922 68.5067 172.205 68.688 172.418 68.912C172.642 69.1253 172.802 69.3707 172.898 69.648C172.994 69.9253 173.042 70.1973 173.042 70.464ZM161.602 74.88V73.872H174.498V74.88H161.602ZM163.378 81.936V78.496H171.522V77.072H163.378V76.112H172.722V79.44H164.578V80.96H172.962V81.936H163.378ZM171.842 70.464C171.842 70.0587 171.709 69.744 171.442 69.52C171.175 69.296 170.802 69.184 170.322 69.184H165.778C165.298 69.184 164.925 69.296 164.658 69.52C164.391 69.744 164.258 70.0587 164.258 70.464C164.258 70.8693 164.391 71.184 164.658 71.408C164.925 71.632 165.298 71.744 165.778 71.744H170.322C170.802 71.744 171.175 71.632 171.442 71.408C171.709 71.184 171.842 70.8693 171.842 70.464ZM190.007 71.664C190.007 72.0373 189.943 72.4107 189.815 72.784C189.697 73.1467 189.495 73.4773 189.207 73.776C188.929 74.064 188.561 74.2987 188.103 74.48C187.655 74.6613 187.105 74.752 186.455 74.752H183.895C183.233 74.752 182.679 74.6613 182.231 74.48C181.783 74.2987 181.415 74.064 181.127 73.776C180.849 73.4773 180.647 73.1467 180.519 72.784C180.401 72.4107 180.343 72.0373 180.343 71.664C180.343 71.2907 180.401 70.9227 180.519 70.56C180.647 70.1867 180.849 69.8507 181.127 69.552C181.415 69.2533 181.783 69.0133 182.231 68.832C182.679 68.6507 183.233 68.56 183.895 68.56H186.455C187.105 68.56 187.655 68.6507 188.103 68.832C188.561 69.0133 188.929 69.2533 189.207 69.552C189.495 69.8507 189.697 70.1867 189.815 70.56C189.943 70.9227 190.007 71.2907 190.007 71.664ZM188.807 71.664C188.807 71.0027 188.599 70.4907 188.183 70.128C187.777 69.7653 187.201 69.584 186.455 69.584H183.895C183.148 69.584 182.567 69.7653 182.151 70.128C181.745 70.4907 181.543 71.0027 181.543 71.664C181.543 72.3253 181.745 72.8373 182.151 73.2C182.567 73.5627 183.148 73.744 183.895 73.744H186.455C187.201 73.744 187.777 73.5627 188.183 73.2C188.599 72.8373 188.807 72.3253 188.807 71.664ZM182.423 82.08C182.241 82.1333 182.151 82.08 182.151 81.92V77.28H178.727V76.256H191.623V77.28H188.199V81.776L187.287 82.08C187.105 82.1333 187.015 82.08 187.015 81.92V77.28H183.335V81.776L182.423 82.08ZM200.585 78.608L197.257 74.224L193.817 78.8L192.905 78.176L196.665 73.2V70.064H193.465V69.04H200.969V70.064H197.865V73.216L201.481 77.984L200.585 78.608ZM203.545 82.08C203.375 82.1333 203.289 82.08 203.289 81.92V67.92H204.457V81.776L203.545 82.08ZM209.533 81.904V76.592H210.701V78.128H217.069V76.592H218.237V81.904H209.533ZM214.957 73.232C214.957 73.5093 214.909 73.792 214.813 74.08C214.717 74.3573 214.562 74.608 214.349 74.832C214.135 75.056 213.853 75.2427 213.501 75.392C213.159 75.5307 212.743 75.6 212.253 75.6H210.365C209.863 75.6 209.442 75.5307 209.101 75.392C208.759 75.2427 208.482 75.056 208.269 74.832C208.055 74.608 207.901 74.3573 207.805 74.08C207.709 73.792 207.661 73.5093 207.661 73.232C207.661 72.9547 207.709 72.6773 207.805 72.4C207.901 72.1227 208.055 71.872 208.269 71.648C208.482 71.424 208.759 71.2427 209.101 71.104C209.442 70.9547 209.863 70.88 210.365 70.88H212.253C212.743 70.88 213.159 70.9547 213.501 71.104C213.853 71.2427 214.135 71.424 214.349 71.648C214.562 71.872 214.717 72.1227 214.813 72.4C214.909 72.6773 214.957 72.9547 214.957 73.232ZM213.741 73.232C213.741 72.784 213.613 72.4533 213.357 72.24C213.101 72.016 212.733 71.904 212.253 71.904H210.349C209.869 71.904 209.501 72.016 209.245 72.24C208.989 72.4533 208.861 72.784 208.861 73.232C208.861 73.68 208.989 74.016 209.245 74.24C209.501 74.464 209.869 74.576 210.349 74.576H212.253C212.733 74.576 213.101 74.464 213.357 74.24C213.613 74.016 213.741 73.68 213.741 73.232ZM217.325 75.936C217.154 75.9893 217.069 75.9307 217.069 75.76V67.92H218.237V71.632H220.509V72.656H218.237V75.632L217.325 75.936ZM217.069 79.136H210.701V80.896H217.069V79.136ZM207.293 70.112V69.088H210.701V67.712H211.901V69.088H215.149V70.112H207.293ZM231.935 82.08C231.765 82.1333 231.679 82.08 231.679 81.92V67.92H232.847V81.776L231.935 82.08ZM222.591 78.192V68.88H223.775V77.168H230.383V78.192H222.591ZM236.307 78.288V69.04H242.579V70.064H237.475V77.264H244.099V78.288H236.307ZM245.651 82.08C245.48 82.1333 245.395 82.08 245.395 81.92V67.92H246.563V73.072H248.931V74.096H246.563V81.776L245.651 82.08ZM249.797 81.296V79.904H251.189V81.296H249.797Z" fill="#498B70"/>
</svg>
