<svg width="348" height="220" viewBox="0 0 348 220" fill="none" xmlns="http://www.w3.org/2000/svg">
<g filter="url(#filter0_dd_199_2246)">
<path d="M4 25C4 13.9543 12.9543 5 24 5H324C335.046 5 344 13.9543 344 25V195C344 206.046 335.046 215 324 215H24C12.9543 215 4 206.046 4 195V25Z" fill="white" shape-rendering="crispEdges"/>
<path d="M23.452 27.257C23.452 27.9483 23.3443 28.5433 23.129 29.042C22.9137 29.5407 22.6133 29.9487 22.228 30.266C21.854 30.5833 21.412 30.8157 20.902 30.963C20.4033 31.1103 19.865 31.184 19.287 31.184C18.709 31.184 18.165 31.1103 17.655 30.963C17.1563 30.8157 16.7143 30.5833 16.329 30.266C15.955 29.9487 15.6603 29.5407 15.445 29.042C15.2297 28.5433 15.122 27.9483 15.122 27.257V23.585C15.122 22.8937 15.2297 22.2987 15.445 21.8C15.6603 21.3013 15.955 20.8933 16.329 20.576C16.7143 20.2587 17.1563 20.0263 17.655 19.879C18.165 19.7317 18.709 19.658 19.287 19.658C19.865 19.658 20.4033 19.7317 20.902 19.879C21.412 20.0263 21.854 20.2587 22.228 20.576C22.6133 20.8933 22.9137 21.3013 23.129 21.8C23.3443 22.2987 23.452 22.8937 23.452 23.585V24.129H25.271V18.859H27.855V33.904L25.951 34.567C25.4977 34.7257 25.271 34.5953 25.271 34.176V26.407H23.452V27.257ZM20.868 23.483C20.868 22.9163 20.715 22.5083 20.409 22.259C20.1143 21.9983 19.7403 21.868 19.287 21.868C18.8337 21.868 18.454 21.9983 18.148 22.259C17.8533 22.5083 17.706 22.9163 17.706 23.483V27.359C17.706 27.9257 17.8533 28.3393 18.148 28.6C18.454 28.8493 18.8337 28.974 19.287 28.974C19.7403 28.974 20.1143 28.8493 20.409 28.6C20.715 28.3393 20.868 27.9257 20.868 27.359V23.483ZM41.2981 30.045C40.8447 30.2037 40.6181 30.0733 40.6181 29.654V24.622H38.4931V22.446H40.6181V18.859H43.2021V29.382L41.2981 30.045ZM32.5091 34.176V28.838H35.1271V31.966H43.4571V34.176H32.5091ZM39.7681 27.648H34.7701V19.522H39.3771V21.732H37.2521V25.438H39.7681V27.648ZM34.2941 27.648H30.0611V19.522H34.2941V21.732H32.5431V25.438H34.2941V27.648ZM55.9085 33.887C55.6818 33.9663 55.5118 33.9777 55.3985 33.921C55.2965 33.8643 55.2455 33.7227 55.2455 33.496V19.114H57.6935V23.823H59.1045V18.859H61.5525V33.955L59.7675 34.567C59.5408 34.6463 59.3708 34.6577 59.2575 34.601C59.1555 34.5443 59.1045 34.4027 59.1045 34.176V26.203H57.6935V33.275L55.9085 33.887ZM54.5655 30.436H48.5815V19.828H51.1655V28.226H54.5655V30.436ZM62.7215 28.005V25.863H66.2235V24.707C65.8722 24.5937 65.5719 24.4407 65.3225 24.248C65.0845 24.044 64.8862 23.823 64.7275 23.585C64.5802 23.347 64.4669 23.092 64.3875 22.82C64.3195 22.548 64.2855 22.2817 64.2855 22.021C64.2855 21.681 64.3479 21.3353 64.4725 20.984C64.5972 20.6327 64.7955 20.321 65.0675 20.049C65.3395 19.7657 65.6965 19.539 66.1385 19.369C66.5805 19.1877 67.1189 19.097 67.7535 19.097H72.7175C73.3522 19.097 73.8905 19.1877 74.3325 19.369C74.7745 19.539 75.1315 19.7657 75.4035 20.049C75.6755 20.321 75.8739 20.6327 75.9985 20.984C76.1232 21.3353 76.1855 21.681 76.1855 22.021C76.1855 22.2817 76.1459 22.548 76.0665 22.82C75.9985 23.092 75.8852 23.347 75.7265 23.585C75.5792 23.823 75.3809 24.044 75.1315 24.248C74.8822 24.4407 74.5875 24.5937 74.2475 24.707V25.863H77.7495V28.005H62.7215ZM76.1855 31.456C76.1855 31.796 76.1232 32.1417 75.9985 32.493C75.8739 32.8443 75.6755 33.156 75.4035 33.428C75.1315 33.7113 74.7745 33.938 74.3325 34.108C73.8905 34.2893 73.3522 34.38 72.7175 34.38H67.7535C67.1189 34.38 66.5805 34.2893 66.1385 34.108C65.6965 33.938 65.3395 33.7113 65.0675 33.428C64.7955 33.156 64.5972 32.8443 64.4725 32.493C64.3479 32.1417 64.2855 31.796 64.2855 31.456C64.2855 31.116 64.3479 30.7703 64.4725 30.419C64.5972 30.0677 64.7955 29.756 65.0675 29.484C65.3395 29.2007 65.6965 28.974 66.1385 28.804C66.5805 28.6227 67.1189 28.532 67.7535 28.532H72.7175C73.3522 28.532 73.8905 28.6227 74.3325 28.804C74.7745 28.974 75.1315 29.2007 75.4035 29.484C75.6755 29.756 75.8739 30.0677 75.9985 30.419C76.1232 30.7703 76.1855 31.116 76.1855 31.456ZM73.5675 22.021C73.5675 21.7603 73.4825 21.5733 73.3125 21.46C73.1425 21.3353 72.9159 21.273 72.6325 21.273H67.8385C67.5552 21.273 67.3285 21.3353 67.1585 21.46C66.9885 21.5733 66.9035 21.7603 66.9035 22.021C66.9035 22.2817 66.9885 22.4743 67.1585 22.599C67.3285 22.7123 67.5552 22.769 67.8385 22.769H72.6325C72.9159 22.769 73.1425 22.7123 73.3125 22.599C73.4825 22.4743 73.5675 22.2817 73.5675 22.021ZM73.5675 31.456C73.5675 31.1953 73.4825 31.0083 73.3125 30.895C73.1425 30.7703 72.9159 30.708 72.6325 30.708H67.8385C67.5552 30.708 67.3285 30.7703 67.1585 30.895C66.9885 31.0083 66.9035 31.1953 66.9035 31.456C66.9035 31.7167 66.9885 31.9037 67.1585 32.017C67.3285 32.1417 67.5552 32.204 67.8385 32.204H72.6325C72.9159 32.204 73.1425 32.1417 73.3125 32.017C73.4825 31.9037 73.5675 31.7167 73.5675 31.456ZM68.8075 25.863H71.6635V24.945H68.8075V25.863ZM89.5266 34.567C89.0733 34.7257 88.8466 34.5953 88.8466 34.176V18.859H91.4306V33.904L89.5266 34.567ZM87.0956 27.189C87.0956 27.8803 86.9823 28.4753 86.7556 28.974C86.5403 29.4727 86.2399 29.8807 85.8546 30.198C85.4806 30.5153 85.0386 30.7477 84.5286 30.895C84.0186 31.0423 83.4746 31.116 82.8966 31.116C82.3186 31.116 81.7746 31.0423 81.2646 30.895C80.7546 30.7477 80.3069 30.5153 79.9216 30.198C79.5476 29.8807 79.2473 29.4727 79.0206 28.974C78.8053 28.4753 78.6976 27.8803 78.6976 27.189V23.585C78.6976 22.8937 78.8053 22.2987 79.0206 21.8C79.2473 21.3013 79.5476 20.8933 79.9216 20.576C80.3069 20.2587 80.7546 20.0263 81.2646 19.879C81.7746 19.7317 82.3186 19.658 82.8966 19.658C83.4746 19.658 84.0186 19.7317 84.5286 19.879C85.0386 20.0263 85.4806 20.2587 85.8546 20.576C86.2399 20.8933 86.5403 21.3013 86.7556 21.8C86.9823 22.2987 87.0956 22.8937 87.0956 23.585V27.189ZM84.5116 23.483C84.5116 22.9163 84.3586 22.5083 84.0526 22.259C83.7466 21.9983 83.3613 21.868 82.8966 21.868C82.4319 21.868 82.0466 21.9983 81.7406 22.259C81.4346 22.5083 81.2816 22.9163 81.2816 23.483V27.291C81.2816 27.8577 81.4346 28.2713 81.7406 28.532C82.0466 28.7813 82.4319 28.906 82.8966 28.906C83.3613 28.906 83.7466 28.7813 84.0526 28.532C84.3586 28.2713 84.5116 27.8577 84.5116 27.291V23.483ZM98.969 34.38V29.977H107.112V29.348H98.969V27.393H109.747V31.728H101.604V32.425H110.002V34.38H98.969ZM104.851 21.63V24.384H106.483V26.492H96.198V24.384H97.796V21.63H96.572V19.522H105.973V21.63H104.851ZM107.843 26.917C107.39 27.0757 107.163 26.9453 107.163 26.526V18.859H109.747V26.254L107.843 26.917ZM100.312 24.384H102.335V21.63H100.312V24.384ZM124.601 23.942C124.601 24.52 124.51 25.0697 124.329 25.591C124.159 26.101 123.887 26.5487 123.513 26.934C123.139 27.3193 122.652 27.6253 122.051 27.852C121.462 28.0787 120.748 28.192 119.909 28.192H117.495C116.656 28.192 115.937 28.0787 115.336 27.852C114.747 27.6253 114.265 27.3193 113.891 26.934C113.517 26.5487 113.239 26.101 113.058 25.591C112.888 25.0697 112.803 24.52 112.803 23.942C112.803 23.364 112.888 22.82 113.058 22.31C113.239 21.7887 113.517 21.3353 113.891 20.95C114.265 20.5647 114.747 20.2587 115.336 20.032C115.937 19.8053 116.656 19.692 117.495 19.692H119.909C120.748 19.692 121.462 19.8053 122.051 20.032C122.652 20.2587 123.139 20.5647 123.513 20.95C123.887 21.3353 124.159 21.7887 124.329 22.31C124.51 22.82 124.601 23.364 124.601 23.942ZM111.188 32.85V30.606H114.605V28.532H117.189V30.606H120.215V28.532H122.799V30.606H126.216V32.85H111.188ZM121.983 23.942C121.983 23.3073 121.802 22.8087 121.439 22.446C121.088 22.0833 120.532 21.902 119.773 21.902H117.631C116.872 21.902 116.311 22.0833 115.948 22.446C115.597 22.8087 115.421 23.3073 115.421 23.942C115.421 24.5767 115.597 25.0753 115.948 25.438C116.311 25.8007 116.872 25.982 117.631 25.982H119.773C120.532 25.982 121.088 25.8007 121.439 25.438C121.802 25.0753 121.983 24.5767 121.983 23.942ZM135.494 28.073C135.494 28.7643 135.381 29.3593 135.154 29.858C134.939 30.3567 134.638 30.7703 134.253 31.099C133.879 31.4163 133.431 31.6543 132.91 31.813C132.4 31.9603 131.856 32.034 131.278 32.034C130.7 32.034 130.15 31.9603 129.629 31.813C129.119 31.6543 128.671 31.4163 128.286 31.099C127.912 30.7703 127.612 30.3567 127.385 29.858C127.17 29.3593 127.062 28.7643 127.062 28.073V27.393C127.062 26.7017 127.17 26.1067 127.385 25.608C127.612 25.1093 127.912 24.7013 128.286 24.384C128.671 24.0553 129.119 23.8173 129.629 23.67C130.15 23.5113 130.7 23.432 131.278 23.432C131.856 23.432 132.4 23.5113 132.91 23.67C133.431 23.8173 133.879 24.0553 134.253 24.384C134.638 24.7013 134.939 25.1093 135.154 25.608C135.381 26.1067 135.494 26.7017 135.494 27.393V28.073ZM137.483 34.567C137.03 34.7257 136.803 34.5953 136.803 34.176V18.859H139.387V25.064H141.818V27.342H139.387V33.904L137.483 34.567ZM126.62 22.854V20.712H129.952V18.927H132.604V20.712H135.817V22.854H126.62ZM132.91 27.308C132.91 26.7527 132.757 26.339 132.451 26.067C132.145 25.7837 131.754 25.642 131.278 25.642C130.802 25.642 130.411 25.7837 130.105 26.067C129.799 26.339 129.646 26.7527 129.646 27.308V28.158C129.646 28.7133 129.799 29.1327 130.105 29.416C130.411 29.688 130.802 29.824 131.278 29.824C131.754 29.824 132.145 29.688 132.451 29.416C132.757 29.1327 132.91 28.7133 132.91 28.158V27.308ZM146.744 24.775L149.498 29.756L147.373 30.844L145.418 27.206L143.208 31.048L141.1 29.96L144.16 24.673V19.658H146.744V24.775ZM150.28 33.887C150.054 33.9663 149.884 33.9777 149.77 33.921C149.668 33.8643 149.617 33.7227 149.617 33.496V25.2H147.781V22.922H149.617V19.114H152.065V33.275L150.28 33.887ZM153.561 34.567C153.335 34.6463 153.165 34.6577 153.051 34.601C152.949 34.5443 152.898 34.4027 152.898 34.176V18.859H155.346V33.955L153.561 34.567ZM169.928 23.942C169.928 24.52 169.838 25.0697 169.656 25.591C169.486 26.101 169.214 26.5487 168.84 26.934C168.466 27.3193 167.979 27.6253 167.378 27.852C166.789 28.0787 166.075 28.192 165.236 28.192H162.822C161.984 28.192 161.264 28.0787 160.663 27.852C160.074 27.6253 159.592 27.3193 159.218 26.934C158.844 26.5487 158.567 26.101 158.385 25.591C158.215 25.0697 158.13 24.52 158.13 23.942C158.13 23.364 158.215 22.82 158.385 22.31C158.567 21.7887 158.844 21.3353 159.218 20.95C159.592 20.5647 160.074 20.2587 160.663 20.032C161.264 19.8053 161.984 19.692 162.822 19.692H165.236C166.075 19.692 166.789 19.8053 167.378 20.032C167.979 20.2587 168.466 20.5647 168.84 20.95C169.214 21.3353 169.486 21.7887 169.656 22.31C169.838 22.82 169.928 23.364 169.928 23.942ZM156.515 32.85V30.606H159.932V28.532H162.516V30.606H165.542V28.532H168.126V30.606H171.543V32.85H156.515ZM167.31 23.942C167.31 23.3073 167.129 22.8087 166.766 22.446C166.415 22.0833 165.86 21.902 165.1 21.902H162.958C162.199 21.902 161.638 22.0833 161.275 22.446C160.924 22.8087 160.748 23.3073 160.748 23.942C160.748 24.5767 160.924 25.0753 161.275 25.438C161.638 25.8007 162.199 25.982 162.958 25.982H165.1C165.86 25.982 166.415 25.8007 166.766 25.438C167.129 25.0753 167.31 24.5767 167.31 23.942ZM180.889 23.5C180.889 24.044 180.787 24.5313 180.583 24.962C180.391 25.3813 180.13 25.761 179.801 26.101C179.473 26.441 179.099 26.7413 178.679 27.002C178.271 27.2627 177.852 27.4893 177.421 27.682V29.62H174.837V26.288C175.257 26.1633 175.67 26.0103 176.078 25.829C176.498 25.6477 176.872 25.438 177.2 25.2C177.529 24.962 177.795 24.6957 177.999 24.401C178.203 24.1063 178.305 23.7833 178.305 23.432V22.82C178.305 22.2987 178.135 21.885 177.795 21.579C177.467 21.273 176.991 21.12 176.367 21.12C176.016 21.12 175.721 21.171 175.483 21.273C175.257 21.3637 175.075 21.4997 174.939 21.681C174.803 21.851 174.707 22.0607 174.65 22.31C174.605 22.548 174.582 22.8143 174.582 23.109L171.964 22.939C171.964 22.293 172.072 21.7207 172.287 21.222C172.503 20.712 172.803 20.2813 173.188 19.93C173.585 19.5787 174.055 19.3123 174.599 19.131C175.155 18.9383 175.761 18.842 176.418 18.842C177.076 18.842 177.676 18.9327 178.22 19.114C178.776 19.2953 179.246 19.5617 179.631 19.913C180.028 20.2643 180.334 20.6893 180.549 21.188C180.776 21.6867 180.889 22.259 180.889 22.905V23.5ZM174.769 34.04V31.32H177.489V34.04H174.769Z" fill="black"/>
<path d="M331.826 32.02L328.46 26.954L325.094 32.02H322.17L326.896 25.271L322.51 18.862H325.417L328.46 23.554L331.503 18.862H334.41L330.024 25.271L334.75 32.02H331.826Z" fill="black"/>
<rect x="14" y="49" width="320" height="44" rx="10" fill="#F5F5F5"/>
<path d="M32.224 77.632C32.1387 77.664 32.0587 77.6587 31.984 77.616C31.92 77.5733 31.888 77.5093 31.888 77.424V64.016H33.584V68.816H35.312V63.776H37.008V77.824L35.648 78.272C35.5627 78.304 35.4827 78.2987 35.408 78.256C35.344 78.2133 35.312 78.1493 35.312 78.064V70.352H33.584V77.184L32.224 77.632ZM25.504 74.336V64.736H27.232V72.864H31.088V74.336H25.504ZM50.755 66.624C50.755 66.8693 50.7177 67.1147 50.643 67.36C50.579 67.6053 50.4723 67.84 50.323 68.064C50.1737 68.288 49.9763 68.4907 49.731 68.672C49.4963 68.8427 49.2083 68.976 48.867 69.072V70.464H52.227V71.936H38.787V70.464H42.147V69.072C41.8057 68.976 41.5123 68.8427 41.267 68.672C41.0323 68.4907 40.8403 68.288 40.691 68.064C40.5417 67.84 40.4297 67.6053 40.355 67.36C40.291 67.1147 40.259 66.8693 40.259 66.624C40.259 66.3147 40.3123 66.0053 40.419 65.696C40.5363 65.3867 40.7177 65.1093 40.963 64.864C41.2083 64.608 41.5283 64.4053 41.923 64.256C42.3283 64.096 42.8137 64.016 43.379 64.016H47.635C48.2003 64.016 48.6803 64.096 49.075 64.256C49.4697 64.4053 49.7897 64.608 50.035 64.864C50.291 65.1093 50.4723 65.3867 50.579 65.696C50.6963 66.0053 50.755 66.3147 50.755 66.624ZM50.755 75.424C50.755 75.7333 50.6963 76.0427 50.579 76.352C50.4723 76.672 50.291 76.9547 50.035 77.2C49.7897 77.456 49.4643 77.664 49.059 77.824C48.6643 77.984 48.179 78.064 47.603 78.064H43.411C42.835 78.064 42.3443 77.984 41.939 77.824C41.5443 77.664 41.219 77.456 40.963 77.2C40.7177 76.9547 40.5363 76.672 40.419 76.352C40.3123 76.0427 40.259 75.7333 40.259 75.424C40.259 75.1147 40.3123 74.8053 40.419 74.496C40.5363 74.176 40.7177 73.8933 40.963 73.648C41.219 73.392 41.5443 73.184 41.939 73.024C42.3443 72.864 42.835 72.784 43.411 72.784H47.603C48.179 72.784 48.6643 72.864 49.059 73.024C49.4643 73.184 49.7897 73.392 50.035 73.648C50.291 73.8933 50.4723 74.176 50.579 74.496C50.6963 74.8053 50.755 75.1147 50.755 75.424ZM48.995 75.424C48.995 75.04 48.8777 74.752 48.643 74.56C48.4083 74.3573 48.0777 74.256 47.651 74.256H43.363C42.9363 74.256 42.6057 74.3573 42.371 74.56C42.1363 74.752 42.019 75.04 42.019 75.424C42.019 75.808 42.1363 76.096 42.371 76.288C42.6057 76.4907 42.9363 76.592 43.363 76.592H47.651C48.0777 76.592 48.4083 76.4907 48.643 76.288C48.8777 76.096 48.995 75.808 48.995 75.424ZM48.995 66.624C48.995 66.24 48.8777 65.9573 48.643 65.776C48.4083 65.584 48.0883 65.488 47.683 65.488H43.331C42.9257 65.488 42.6057 65.584 42.371 65.776C42.1363 65.9573 42.019 66.24 42.019 66.624C42.019 67.008 42.1363 67.296 42.371 67.488C42.6057 67.6693 42.9257 67.76 43.331 67.76H47.683C48.0883 67.76 48.4083 67.6693 48.643 67.488C48.8777 67.296 48.995 67.008 48.995 66.624ZM43.907 70.464H47.107V69.232H43.907V70.464ZM63.686 78.272C63.6007 78.304 63.5207 78.2987 63.446 78.256C63.382 78.2133 63.35 78.1493 63.35 78.064V63.776H65.078V77.808L63.686 78.272ZM60.934 71.632C60.934 72.2293 60.838 72.7413 60.646 73.168C60.4647 73.584 60.2087 73.9253 59.878 74.192C59.558 74.4587 59.1793 74.656 58.742 74.784C58.3153 74.912 57.8567 74.976 57.366 74.976C56.8753 74.976 56.4113 74.912 55.974 74.784C55.5473 74.656 55.1687 74.4587 54.838 74.192C54.518 73.9253 54.262 73.584 54.07 73.168C53.8887 72.7413 53.798 72.2293 53.798 71.632V67.92C53.798 67.3333 53.8887 66.8267 54.07 66.4C54.262 65.9733 54.518 65.6267 54.838 65.36C55.1687 65.0933 55.5473 64.896 55.974 64.768C56.4113 64.64 56.8753 64.576 57.366 64.576C57.8567 64.576 58.3153 64.64 58.742 64.768C59.1793 64.896 59.558 65.0933 59.878 65.36C60.2087 65.6267 60.4647 65.9733 60.646 66.4C60.838 66.8267 60.934 67.3333 60.934 67.92V71.632ZM59.206 67.952C59.206 67.3013 59.03 66.8267 58.678 66.528C58.3367 66.2293 57.8993 66.08 57.366 66.08C56.8327 66.08 56.39 66.2293 56.038 66.528C55.6967 66.8267 55.526 67.3013 55.526 67.952V71.6C55.526 72.2507 55.6967 72.7253 56.038 73.024C56.39 73.3227 56.8327 73.472 57.366 73.472C57.8993 73.472 58.3367 73.3227 58.678 73.024C59.03 72.7253 59.206 72.2507 59.206 71.6V67.952ZM80.8104 78.272C80.725 78.304 80.645 78.2987 80.5704 78.256C80.5064 78.2133 80.4744 78.1493 80.4744 78.064V63.776H82.2024V77.808L80.8104 78.272ZM78.0584 71.632C78.0584 72.2293 77.9624 72.7413 77.7704 73.168C77.589 73.584 77.333 73.9253 77.0024 74.192C76.6824 74.4587 76.3037 74.656 75.8664 74.784C75.4397 74.912 74.981 74.976 74.4904 74.976C73.9997 74.976 73.5357 74.912 73.0984 74.784C72.6717 74.656 72.293 74.4587 71.9624 74.192C71.6424 73.9253 71.3864 73.584 71.1944 73.168C71.013 72.7413 70.9224 72.2293 70.9224 71.632V67.92C70.9224 67.3333 71.013 66.8267 71.1944 66.4C71.3864 65.9733 71.6424 65.6267 71.9624 65.36C72.293 65.0933 72.6717 64.896 73.0984 64.768C73.5357 64.64 73.9997 64.576 74.4904 64.576C74.981 64.576 75.4397 64.64 75.8664 64.768C76.3037 64.896 76.6824 65.0933 77.0024 65.36C77.333 65.6267 77.589 65.9733 77.7704 66.4C77.9624 66.8267 78.0584 67.3333 78.0584 67.92V71.632ZM76.3304 67.952C76.3304 67.3013 76.1544 66.8267 75.8024 66.528C75.461 66.2293 75.0237 66.08 74.4904 66.08C73.957 66.08 73.5144 66.2293 73.1624 66.528C72.821 66.8267 72.6504 67.3013 72.6504 67.952V71.6C72.6504 72.2507 72.821 72.7253 73.1624 73.024C73.5144 73.3227 73.957 73.472 74.4904 73.472C75.0237 73.472 75.461 73.3227 75.8024 73.024C76.1544 72.7253 76.3304 72.2507 76.3304 71.6V67.952ZM96.1414 75.136C96.1414 75.488 96.0774 75.8347 95.9494 76.176C95.8214 76.528 95.6134 76.8427 95.3254 77.12C95.048 77.408 94.6854 77.6373 94.2374 77.808C93.7894 77.9787 93.2454 78.064 92.6054 78.064H89.7574C89.1174 78.064 88.5734 77.9787 88.1254 77.808C87.6774 77.6373 87.3094 77.408 87.0214 77.12C86.744 76.8427 86.5414 76.528 86.4134 76.176C86.2854 75.8347 86.2214 75.488 86.2214 75.136C86.2214 74.784 86.2854 74.4373 86.4134 74.096C86.5414 73.744 86.744 73.4293 87.0214 73.152C87.3094 72.864 87.6774 72.6347 88.1254 72.464C88.5734 72.2933 89.1174 72.208 89.7574 72.208H92.6054C93.2454 72.208 93.7894 72.2933 94.2374 72.464C94.6854 72.6347 95.048 72.864 95.3254 73.152C95.6134 73.4293 95.8214 73.744 95.9494 74.096C96.0774 74.4373 96.1414 74.784 96.1414 75.136ZM91.7414 71.136L88.4614 67.808L85.0054 71.328L83.8694 70.272L87.5814 66.512V64.096H89.3414V66.512L92.8934 70.08L91.7414 71.136ZM94.5894 72.032C94.504 72.064 94.424 72.0587 94.3494 72.016C94.2854 71.9733 94.2534 71.9093 94.2534 71.824V63.776H95.9814V66.752H98.2054V68.256H95.9814V71.568L94.5894 72.032ZM94.3814 75.136C94.3814 74.6667 94.2374 74.3093 93.9494 74.064C93.672 73.808 93.272 73.68 92.7494 73.68H89.6134C89.0907 73.68 88.6854 73.808 88.3974 74.064C88.12 74.3093 87.9814 74.6667 87.9814 75.136C87.9814 75.6053 88.12 75.9627 88.3974 76.208C88.6854 76.464 89.0907 76.592 89.6134 76.592H92.7494C93.272 76.592 93.672 76.464 93.9494 76.208C94.2374 75.9627 94.3814 75.6053 94.3814 75.136ZM106.592 77.632C106.507 77.664 106.427 77.6587 106.352 77.616C106.288 77.5733 106.256 77.5093 106.256 77.424V64.016H107.952V69.776H109.216V63.776H110.912V77.824L109.552 78.272C109.467 78.304 109.387 78.2987 109.312 78.256C109.248 78.2133 109.216 78.1493 109.216 78.064V71.312H107.952V77.184L106.592 77.632ZM105.312 72.896C105.312 73.408 105.232 73.8453 105.072 74.208C104.912 74.5707 104.688 74.8693 104.4 75.104C104.123 75.3387 103.792 75.5093 103.408 75.616C103.035 75.7227 102.635 75.776 102.208 75.776C101.771 75.776 101.366 75.7227 100.992 75.616C100.619 75.5093 100.288 75.3387 100 75.104C99.723 74.8693 99.5044 74.5707 99.3444 74.208C99.1844 73.8453 99.1044 73.408 99.1044 72.896V70.528C99.1044 70.016 99.1844 69.5787 99.3444 69.216C99.5044 68.8533 99.723 68.5547 100 68.32C100.288 68.0853 100.619 67.9147 100.992 67.808C101.366 67.7013 101.771 67.648 102.208 67.648C102.635 67.648 103.035 67.7013 103.408 67.808C103.792 67.9147 104.123 68.0853 104.4 68.32C104.688 68.5547 104.912 68.8533 105.072 69.216C105.232 69.5787 105.312 70.016 105.312 70.528V72.896ZM98.7684 67.088V65.616H101.328V63.856H103.088V65.616H105.504V67.088H98.7684ZM103.616 70.624C103.616 70.112 103.483 69.7387 103.216 69.504C102.95 69.2693 102.614 69.152 102.208 69.152C101.803 69.152 101.467 69.2693 101.2 69.504C100.934 69.7387 100.8 70.112 100.8 70.624V72.8C100.8 73.312 100.934 73.6853 101.2 73.92C101.467 74.1547 101.803 74.272 102.208 74.272C102.614 74.272 102.95 74.1547 103.216 73.92C103.483 73.6853 103.616 73.312 103.616 72.8V70.624ZM113.059 77.44V75.52H114.979V77.44H113.059ZM120.131 74.432V64.896H126.787V66.368H121.859V72.96H128.115V74.432H120.131ZM129.571 78.272C129.486 78.304 129.406 78.2987 129.331 78.256C129.267 78.2133 129.235 78.1493 129.235 78.064V63.776H130.963V68.832H133.283V70.336H130.963V77.808L129.571 78.272ZM141.382 74.496L138.054 70.064L134.582 74.688L133.27 73.792L137.174 68.624V64.576H138.934V68.624L142.694 73.6L141.382 74.496ZM144.246 78.272C144.161 78.304 144.081 78.2987 144.006 78.256C143.942 78.2133 143.91 78.1493 143.91 78.064V63.776H145.638V77.808L144.246 78.272ZM162.586 68.416C162.586 68.9387 162.506 69.4347 162.346 69.904C162.186 70.3627 161.936 70.768 161.594 71.12C161.253 71.472 160.81 71.7493 160.266 71.952C159.733 72.1547 159.088 72.256 158.33 72.256H156.442C155.685 72.256 155.034 72.1547 154.49 71.952C153.957 71.7493 153.52 71.472 153.178 71.12C152.837 70.768 152.586 70.3627 152.426 69.904C152.266 69.4347 152.186 68.9387 152.186 68.416C152.186 67.8933 152.266 67.4027 152.426 66.944C152.586 66.4747 152.837 66.064 153.178 65.712C153.52 65.36 153.957 65.0827 154.49 64.88C155.034 64.6773 155.685 64.576 156.442 64.576H158.33C159.088 64.576 159.733 64.6773 160.266 64.88C160.81 65.0827 161.253 65.36 161.594 65.712C161.936 66.064 162.186 66.4747 162.346 66.944C162.506 67.4027 162.586 67.8933 162.586 68.416ZM150.666 76.64V75.136H154.026V72.656H155.786V75.136H158.986V72.656H160.746V75.136H164.106V76.64H150.666ZM160.826 68.416C160.826 67.6907 160.624 67.1147 160.218 66.688C159.813 66.2613 159.173 66.048 158.298 66.048H156.474C155.6 66.048 154.96 66.2613 154.554 66.688C154.149 67.1147 153.946 67.6907 153.946 68.416C153.946 69.1413 154.149 69.7173 154.554 70.144C154.96 70.5707 155.6 70.784 156.474 70.784H158.298C159.173 70.784 159.813 70.5707 160.218 70.144C160.624 69.7173 160.826 69.1413 160.826 68.416ZM172.781 68.24C172.781 68.8053 172.68 69.2907 172.477 69.696C172.285 70.1013 172.019 70.4373 171.677 70.704C171.347 70.96 170.957 71.152 170.509 71.28C170.061 71.3973 169.587 71.456 169.085 71.456C168.584 71.456 168.109 71.3973 167.661 71.28C167.213 71.152 166.819 70.96 166.477 70.704C166.147 70.4373 165.88 70.1013 165.677 69.696C165.485 69.2907 165.389 68.8053 165.389 68.24V67.312C165.389 66.7467 165.485 66.2613 165.677 65.856C165.88 65.4507 166.147 65.12 166.477 64.864C166.819 64.5973 167.213 64.4053 167.661 64.288C168.109 64.16 168.584 64.096 169.085 64.096C169.587 64.096 170.061 64.16 170.509 64.288C170.957 64.4053 171.347 64.5973 171.677 64.864C172.019 65.12 172.285 65.4507 172.477 65.856C172.68 66.2613 172.781 66.7467 172.781 67.312V68.24ZM175.149 72.192C175.064 72.224 174.984 72.2187 174.909 72.176C174.845 72.1333 174.813 72.0693 174.813 71.984V63.776H176.541V65.392H178.765V66.896H176.541V68.432H178.765V69.936H176.541V71.728L175.149 72.192ZM175.149 78.272C175.064 78.304 174.984 78.2987 174.909 78.256C174.845 78.2133 174.813 78.1493 174.813 78.064V74.16H167.101V72.688H176.541V77.808L175.149 78.272ZM171.053 67.44C171.053 66.8 170.867 66.336 170.493 66.048C170.131 65.7493 169.661 65.6 169.085 65.6C168.509 65.6 168.035 65.7493 167.661 66.048C167.299 66.336 167.117 66.8 167.117 67.44V68.112C167.117 68.752 167.299 69.2213 167.661 69.52C168.035 69.808 168.509 69.952 169.085 69.952C169.661 69.952 170.131 69.808 170.493 69.52C170.867 69.2213 171.053 68.752 171.053 68.112V67.44ZM187.152 77.632C187.067 77.664 186.987 77.6587 186.912 77.616C186.848 77.5733 186.816 77.5093 186.816 77.424V64.016H188.512V69.776H189.776V63.776H191.472V77.824L190.112 78.272C190.027 78.304 189.947 78.2987 189.872 78.256C189.808 78.2133 189.776 78.1493 189.776 78.064V71.312H188.512V77.184L187.152 77.632ZM185.872 72.896C185.872 73.408 185.792 73.8453 185.632 74.208C185.472 74.5707 185.248 74.8693 184.96 75.104C184.683 75.3387 184.352 75.5093 183.968 75.616C183.595 75.7227 183.195 75.776 182.768 75.776C182.331 75.776 181.926 75.7227 181.552 75.616C181.179 75.5093 180.848 75.3387 180.56 75.104C180.283 74.8693 180.064 74.5707 179.904 74.208C179.744 73.8453 179.664 73.408 179.664 72.896V70.528C179.664 70.016 179.744 69.5787 179.904 69.216C180.064 68.8533 180.283 68.5547 180.56 68.32C180.848 68.0853 181.179 67.9147 181.552 67.808C181.926 67.7013 182.331 67.648 182.768 67.648C183.195 67.648 183.595 67.7013 183.968 67.808C184.352 67.9147 184.683 68.0853 184.96 68.32C185.248 68.5547 185.472 68.8533 185.632 69.216C185.792 69.5787 185.872 70.016 185.872 70.528V72.896ZM179.328 67.088V65.616H181.888V63.856H183.648V65.616H186.064V67.088H179.328ZM184.176 70.624C184.176 70.112 184.043 69.7387 183.776 69.504C183.51 69.2693 183.174 69.152 182.768 69.152C182.363 69.152 182.027 69.2693 181.76 69.504C181.494 69.7387 181.36 70.112 181.36 70.624V72.8C181.36 73.312 181.494 73.6853 181.76 73.92C182.027 74.1547 182.363 74.272 182.768 74.272C183.174 74.272 183.51 74.1547 183.776 73.92C184.043 73.6853 184.176 73.312 184.176 72.8V70.624ZM206.949 78.272C206.863 78.304 206.783 78.2987 206.709 78.256C206.645 78.2133 206.613 78.1493 206.613 78.064V75.2H203.541V73.696H206.613V63.776H208.341V77.808L206.949 78.272ZM204.549 70.448L201.141 68.304L197.541 70.576L196.629 69.312L200.261 67.056V66.128H197.333V64.656H204.837V66.128H202.021V67.04L205.461 69.184L204.549 70.448ZM200.453 77.792C200.367 77.824 200.287 77.8187 200.213 77.776C200.149 77.7333 200.117 77.6693 200.117 77.584V72.64H196.181V71.136H205.973V72.64H201.845V77.328L200.453 77.792ZM210.744 77.44V75.52H212.664V77.44H210.744Z" fill="black"/>
<rect x="14" y="103" width="320" height="44" rx="10" fill="#F5F5F5"/>
<path d="M27.264 120.368V127.088H33.68V128.56H25.536V118.896H32.192V120.368H27.264ZM35.296 132.272C35.2107 132.304 35.1307 132.299 35.056 132.256C34.992 132.213 34.96 132.149 34.96 132.064V124.16H31.312V122.656H34.96V117.776H36.688V131.808L35.296 132.272ZM49.1564 128.736L46.0524 124.72L42.8044 128.928L41.5084 128.032L45.1724 123.312V120.368H42.0844V118.896H49.9084V120.368H46.9324V123.312L50.4524 127.84L49.1564 128.736ZM51.9404 132.272C51.855 132.304 51.775 132.299 51.7004 132.256C51.6364 132.213 51.6044 132.149 51.6044 132.064V117.776H53.3324V122.832H55.6524V124.336H53.3324V131.808L51.9404 132.272ZM64.0874 131.632C64.002 131.664 63.922 131.659 63.8474 131.616C63.7834 131.573 63.7514 131.509 63.7514 131.424V123.392H61.7194V121.888H63.7514V118.016H65.4474V131.184L64.0874 131.632ZM61.8794 128.736L59.5914 124.576L57.1914 128.928L55.7834 128.224L58.7274 122.928V118.656H60.4554V122.928L63.2874 128.032L61.8794 128.736ZM66.9674 132.272C66.882 132.304 66.802 132.299 66.7274 132.256C66.6634 132.213 66.6314 132.149 66.6314 132.064V117.776H68.3274V131.824L66.9674 132.272ZM78.1224 126.384C78.1224 126.981 78.0264 127.493 77.8344 127.92C77.6424 128.347 77.381 128.699 77.0504 128.976C76.7304 129.243 76.3464 129.445 75.8984 129.584C75.461 129.712 74.9917 129.776 74.4904 129.776C73.989 129.776 73.5144 129.712 73.0664 129.584C72.629 129.445 72.245 129.243 71.9144 128.976C71.5944 128.699 71.3384 128.347 71.1464 127.92C70.9544 127.493 70.8584 126.981 70.8584 126.384V125.168C70.8584 124.581 70.9544 124.075 71.1464 123.648C71.3384 123.211 71.5944 122.859 71.9144 122.592C72.245 122.315 72.629 122.112 73.0664 121.984C73.5144 121.845 73.989 121.776 74.4904 121.776C74.9917 121.776 75.461 121.845 75.8984 121.984C76.3464 122.112 76.7304 122.315 77.0504 122.592C77.381 122.859 77.6424 123.211 77.8344 123.648C78.0264 124.075 78.1224 124.581 78.1224 125.168V126.384ZM80.3304 132.272C80.245 132.304 80.165 132.299 80.0904 132.256C80.0264 132.213 79.9944 132.149 79.9944 132.064V117.776H81.7224V123.792H84.0424V125.296H81.7224V131.808L80.3304 132.272ZM76.3944 125.216C76.3944 124.565 76.213 124.08 75.8504 123.76C75.4877 123.44 75.0344 123.28 74.4904 123.28C73.9464 123.28 73.493 123.44 73.1304 123.76C72.7677 124.08 72.5864 124.565 72.5864 125.216V126.336C72.5864 126.987 72.7677 127.472 73.1304 127.792C73.493 128.112 73.9464 128.272 74.4904 128.272C75.0344 128.272 75.4877 128.112 75.8504 127.792C76.213 127.472 76.3944 126.987 76.3944 126.336V125.216ZM70.3304 121.088V119.616H73.5944V117.856H75.3864V119.616H78.5064V121.088H70.3304ZM88.8294 129.344C88.744 129.376 88.664 129.371 88.5894 129.328C88.5254 129.285 88.4934 129.221 88.4934 129.136V120.368H84.7334V118.896H90.2214V122.896H91.8854V118.016H93.5814V131.184L92.2214 131.632C92.136 131.664 92.056 131.659 91.9814 131.616C91.9174 131.573 91.8854 131.509 91.8854 131.424V124.4H90.2214V128.88L88.8294 129.344ZM95.3574 132.272C95.272 132.304 95.192 132.299 95.1174 132.256C95.0534 132.213 95.0214 132.149 95.0214 132.064V117.776H96.7174V131.824L95.3574 132.272ZM104.146 132.08V128.192H111.81V127.12H104.146V125.728H113.586V129.52H105.922V130.688H113.826V132.08H104.146ZM109.026 124.896L105.746 121.616L102.29 125.088L101.154 124.048L104.866 120.336V118.096H106.626V120.336L110.178 123.856L109.026 124.896ZM112.194 125.232C112.108 125.264 112.028 125.259 111.954 125.216C111.89 125.173 111.858 125.109 111.858 125.024V121.36H109.074V119.856H111.858V117.776H113.586V124.768L112.194 125.232ZM116.373 125.04V118.416H123.509V119.472H126.053V117.776H127.781V125.568L126.389 126.032C126.303 126.064 126.223 126.059 126.149 126.016C126.085 125.973 126.053 125.909 126.053 125.824V123.824H123.509V125.04H116.373ZM127.941 129.136C127.941 129.488 127.877 129.835 127.749 130.176C127.621 130.528 127.413 130.843 127.125 131.12C126.847 131.408 126.485 131.637 126.037 131.808C125.589 131.979 125.045 132.064 124.405 132.064H121.397C120.757 132.064 120.213 131.979 119.765 131.808C119.317 131.637 118.949 131.408 118.661 131.12C118.383 130.843 118.181 130.528 118.053 130.176C117.925 129.835 117.861 129.488 117.861 129.136C117.861 128.784 117.925 128.437 118.053 128.096C118.181 127.744 118.383 127.429 118.661 127.152C118.949 126.864 119.317 126.635 119.765 126.464C120.213 126.293 120.757 126.208 121.397 126.208H124.405C125.045 126.208 125.589 126.293 126.037 126.464C126.485 126.635 126.847 126.864 127.125 127.152C127.413 127.429 127.621 127.744 127.749 128.096C127.877 128.437 127.941 128.784 127.941 129.136ZM126.181 129.136C126.181 128.667 126.037 128.309 125.749 128.064C125.471 127.808 125.071 127.68 124.549 127.68H121.253C120.73 127.68 120.325 127.808 120.037 128.064C119.759 128.309 119.621 128.667 119.621 129.136C119.621 129.605 119.759 129.963 120.037 130.208C120.325 130.464 120.73 130.592 121.253 130.592H124.549C125.071 130.592 125.471 130.464 125.749 130.208C126.037 129.963 126.181 129.605 126.181 129.136ZM121.781 119.888H118.101V123.568H121.781V119.888ZM123.509 122.32H126.053V120.976H123.509V122.32ZM137.912 131.632C137.826 131.664 137.746 131.659 137.672 131.616C137.608 131.573 137.576 131.509 137.576 131.424V118.016H139.272V123.776H140.536V117.776H142.232V131.824L140.872 132.272C140.786 132.304 140.706 132.299 140.632 132.256C140.568 132.213 140.536 132.149 140.536 132.064V125.312H139.272V131.184L137.912 131.632ZM136.632 126.896C136.632 127.408 136.552 127.845 136.392 128.208C136.232 128.571 136.008 128.869 135.72 129.104C135.442 129.339 135.112 129.509 134.728 129.616C134.354 129.723 133.954 129.776 133.528 129.776C133.09 129.776 132.685 129.723 132.312 129.616C131.938 129.509 131.608 129.339 131.32 129.104C131.042 128.869 130.824 128.571 130.664 128.208C130.504 127.845 130.424 127.408 130.424 126.896V124.528C130.424 124.016 130.504 123.579 130.664 123.216C130.824 122.853 131.042 122.555 131.32 122.32C131.608 122.085 131.938 121.915 132.312 121.808C132.685 121.701 133.09 121.648 133.528 121.648C133.954 121.648 134.354 121.701 134.728 121.808C135.112 121.915 135.442 122.085 135.72 122.32C136.008 122.555 136.232 122.853 136.392 123.216C136.552 123.579 136.632 124.016 136.632 124.528V126.896ZM130.088 121.088V119.616H132.648V117.856H134.408V119.616H136.824V121.088H130.088ZM134.936 124.624C134.936 124.112 134.802 123.739 134.536 123.504C134.269 123.269 133.933 123.152 133.528 123.152C133.122 123.152 132.786 123.269 132.52 123.504C132.253 123.739 132.12 124.112 132.12 124.624V126.8C132.12 127.312 132.253 127.685 132.52 127.92C132.786 128.155 133.122 128.272 133.528 128.272C133.933 128.272 134.269 128.155 134.536 127.92C134.802 127.685 134.936 127.312 134.936 126.8V124.624ZM157.708 132.272C157.623 132.304 157.543 132.299 157.468 132.256C157.404 132.213 157.372 132.149 157.372 132.064V129.2H154.3V127.696H157.372V117.776H159.1V131.808L157.708 132.272ZM155.308 124.448L151.9 122.304L148.3 124.576L147.388 123.312L151.02 121.056V120.128H148.092V118.656H155.596V120.128H152.78V121.04L156.22 123.184L155.308 124.448ZM151.212 131.792C151.127 131.824 151.047 131.819 150.972 131.776C150.908 131.733 150.876 131.669 150.876 131.584V126.64H146.94V125.136H156.732V126.64H152.604V131.328L151.212 131.792ZM161.503 131.44V129.52H163.423V131.44H161.503Z" fill="black"/>
<rect x="14" y="157" width="155" height="44" rx="10" fill="#498B70"/>
<path d="M71.5 186.144V180.848H75.58V179.888H69.74V177.872H83.884V179.888H78.044V180.848H82.124V186.144H71.5ZM78.076 173.264L83.084 175.92L81.852 177.696L76.812 175.056L71.772 177.696L70.54 175.92L75.548 173.264V171.696H78.076V173.264ZM79.692 182.896H73.932V184.096H79.692V182.896ZM94.943 186.416C94.5163 186.565 94.303 186.443 94.303 186.048V171.632H96.735V185.792L94.943 186.416ZM84.655 174.784V172.704H92.063V182.752L90.271 183.376C89.8443 183.525 89.631 183.403 89.631 183.008V174.784H84.655ZM109.138 186.416C108.711 186.565 108.498 186.443 108.498 186.048V171.632H110.93V185.792L109.138 186.416ZM98.85 174.784V172.704H106.258V182.752L104.466 183.376C104.039 183.525 103.826 183.403 103.826 183.008V174.784H98.85Z" fill="white"/>
<rect x="179" y="157" width="155" height="44" rx="10" fill="#F16161"/>
<path d="M234.048 185.776C233.835 185.851 233.675 185.861 233.568 185.808C233.472 185.755 233.424 185.621 233.424 185.408V171.872H235.728V176.304H237.056V171.632H239.36V185.84L237.68 186.416C237.467 186.491 237.307 186.501 237.2 186.448C237.104 186.395 237.056 186.261 237.056 186.048V178.544H235.728V185.2L234.048 185.776ZM232.784 182.528H227.152V172.544H229.584V180.448H232.784V182.528ZM240.435 180.24V178.224H243.731V177.136C243.4 177.029 243.118 176.885 242.883 176.704C242.659 176.512 242.472 176.304 242.323 176.08C242.184 175.856 242.078 175.616 242.003 175.36C241.939 175.104 241.907 174.853 241.907 174.608C241.907 174.288 241.966 173.963 242.083 173.632C242.2 173.301 242.387 173.008 242.643 172.752C242.899 172.485 243.235 172.272 243.651 172.112C244.067 171.941 244.574 171.856 245.171 171.856H249.843C250.44 171.856 250.947 171.941 251.363 172.112C251.779 172.272 252.115 172.485 252.371 172.752C252.627 173.008 252.814 173.301 252.931 173.632C253.048 173.963 253.107 174.288 253.107 174.608C253.107 174.853 253.07 175.104 252.995 175.36C252.931 175.616 252.824 175.856 252.675 176.08C252.536 176.304 252.35 176.512 252.115 176.704C251.88 176.885 251.603 177.029 251.283 177.136V178.224H254.579V180.24H240.435ZM253.107 183.488C253.107 183.808 253.048 184.133 252.931 184.464C252.814 184.795 252.627 185.088 252.371 185.344C252.115 185.611 251.779 185.824 251.363 185.984C250.947 186.155 250.44 186.24 249.843 186.24H245.171C244.574 186.24 244.067 186.155 243.651 185.984C243.235 185.824 242.899 185.611 242.643 185.344C242.387 185.088 242.2 184.795 242.083 184.464C241.966 184.133 241.907 183.808 241.907 183.488C241.907 183.168 241.966 182.843 242.083 182.512C242.2 182.181 242.387 181.888 242.643 181.632C242.899 181.365 243.235 181.152 243.651 180.992C244.067 180.821 244.574 180.736 245.171 180.736H249.843C250.44 180.736 250.947 180.821 251.363 180.992C251.779 181.152 252.115 181.365 252.371 181.632C252.627 181.888 252.814 182.181 252.931 182.512C253.048 182.843 253.107 183.168 253.107 183.488ZM250.643 174.608C250.643 174.363 250.563 174.187 250.403 174.08C250.243 173.963 250.03 173.904 249.763 173.904H245.251C244.984 173.904 244.771 173.963 244.611 174.08C244.451 174.187 244.371 174.363 244.371 174.608C244.371 174.853 244.451 175.035 244.611 175.152C244.771 175.259 244.984 175.312 245.251 175.312H249.763C250.03 175.312 250.243 175.259 250.403 175.152C250.563 175.035 250.643 174.853 250.643 174.608ZM250.643 183.488C250.643 183.243 250.563 183.067 250.403 182.96C250.243 182.843 250.03 182.784 249.763 182.784H245.251C244.984 182.784 244.771 182.843 244.611 182.96C244.451 183.067 244.371 183.243 244.371 183.488C244.371 183.733 244.451 183.909 244.611 184.016C244.771 184.133 244.984 184.192 245.251 184.192H249.763C250.03 184.192 250.243 184.133 250.403 184.016C250.563 183.909 250.643 183.733 250.643 183.488ZM246.163 178.224H248.851V177.36H246.163V178.224ZM263.223 174.656L266.903 178.144L265.223 179.616L261.991 176.528L258.615 179.776L256.951 178.304L260.759 174.672V171.936H263.223V174.656ZM259.799 182.704V180.624H269.943V185.792L268.151 186.416C267.725 186.565 267.511 186.443 267.511 186.048V182.704H259.799ZM268.151 180.176C267.725 180.325 267.511 180.203 267.511 179.808V171.632H269.943V174.512H272.135V176.656H269.943V179.552L268.151 180.176ZM276.762 174.784V177.888L279.466 182.176L277.53 183.28L275.626 180.144L273.562 183.472L271.626 182.368L274.33 178.128V174.784H272.138V172.704H278.746V174.784H276.762ZM280.154 185.776C279.941 185.851 279.781 185.861 279.674 185.808C279.578 185.755 279.53 185.621 279.53 185.408V178.32H277.818V176.176H279.53V171.872H281.834V185.2L280.154 185.776ZM283.194 186.416C282.981 186.491 282.821 186.501 282.714 186.448C282.618 186.395 282.57 186.261 282.57 186.048V171.632H284.874V185.84L283.194 186.416Z" fill="white"/>
</g>
<defs>
<filter id="filter0_dd_199_2246" x="0" y="0" width="348" height="220" filterUnits="userSpaceOnUse" color-interpolation-filters="sRGB">
<feFlood flood-opacity="0" result="BackgroundImageFix"/>
<feColorMatrix in="SourceAlpha" type="matrix" values="0 0 0 0 0 0 0 0 0 0 0 0 0 0 0 0 0 0 127 0" result="hardAlpha"/>
<feOffset dy="-1"/>
<feGaussianBlur stdDeviation="2"/>
<feComposite in2="hardAlpha" operator="out"/>
<feColorMatrix type="matrix" values="0 0 0 0 0 0 0 0 0 0 0 0 0 0 0 0 0 0 0.25 0"/>
<feBlend mode="normal" in2="BackgroundImageFix" result="effect1_dropShadow_199_2246"/>
<feColorMatrix in="SourceAlpha" type="matrix" values="0 0 0 0 0 0 0 0 0 0 0 0 0 0 0 0 0 0 127 0" result="hardAlpha"/>
<feOffset dy="1"/>
<feGaussianBlur stdDeviation="2"/>
<feComposite in2="hardAlpha" operator="out"/>
<feColorMatrix type="matrix" values="0 0 0 0 0 0 0 0 0 0 0 0 0 0 0 0 0 0 0.25 0"/>
<feBlend mode="normal" in2="effect1_dropShadow_199_2246" result="effect2_dropShadow_199_2246"/>
<feBlend mode="normal" in="SourceGraphic" in2="effect2_dropShadow_199_2246" result="shape"/>
</filter>
</defs>
</svg>
