<svg width="133" height="72" viewBox="0 0 133 72" fill="none" xmlns="http://www.w3.org/2000/svg">
<path d="M1.08 43.168V34.096H16.992V27.832H27.936V34.096H37.872V27.832H48.816V34.096H64.728V43.168H1.08ZM38.592 10.264L61.128 22.936L55.44 30.712L32.904 18.256L10.368 30.712L4.68 22.936L27.216 10.264V2.632H38.592V10.264ZM38.592 49.864L61.128 60.592L55.872 69.016L32.904 58.144L9.936 69.016L4.68 60.592L27.216 49.864V44.968H38.592V49.864ZM123.487 54.904C123.487 56.44 123.199 58 122.623 59.584C122.095 61.168 121.207 62.584 119.959 63.832C118.759 65.08 117.175 66.088 115.207 66.856C113.239 67.672 110.839 68.08 108.007 68.08H88.5665C85.7345 68.08 83.3345 67.672 81.3665 66.856C79.3985 66.088 77.7905 65.08 76.5425 63.832C75.3425 62.584 74.4545 61.168 73.8785 59.584C73.3505 58 73.0865 56.44 73.0865 54.904C73.0865 53.368 73.3505 51.832 73.8785 50.296C74.4545 48.712 75.3425 47.296 76.5425 46.048C77.7905 44.752 79.3985 43.72 81.3665 42.952C83.3345 42.136 85.7345 41.728 88.5665 41.728H108.007C110.839 41.728 113.239 42.136 115.207 42.952C117.175 43.72 118.759 44.752 119.959 46.048C121.207 47.296 122.095 48.712 122.623 50.296C123.199 51.832 123.487 53.368 123.487 54.904ZM66.4625 38.344V29.272H88.7105V19.192H99.7985V29.272H130.111V38.344H66.4625ZM73.6625 13.792V4.432H122.191V24.376L114.127 27.184C112.207 27.856 111.247 27.304 111.247 25.528V13.792H73.6625ZM112.399 54.904C112.399 52.264 110.887 50.944 107.863 50.944H88.7105C85.6865 50.944 84.1745 52.264 84.1745 54.904C84.1745 57.544 85.6865 58.864 88.7105 58.864H107.863C110.887 58.864 112.399 57.544 112.399 54.904Z" fill="#4DB6AC"/>
</svg>
