<svg width="190" height="98" viewBox="0 0 190 98" fill="none" xmlns="http://www.w3.org/2000/svg">
<path d="M29.08 66.504V57.432H92.728V66.504H29.08ZM85.888 54.192H37V30.432H85.168V39.648H47.944V44.976H85.888V54.192ZM85.888 93.648H37V69.816H85.168V79.032H47.944V84.432H85.888V93.648ZM151.487 80.904C151.487 82.44 151.199 84 150.623 85.584C150.095 87.168 149.207 88.584 147.959 89.832C146.759 91.08 145.175 92.088 143.207 92.856C141.239 93.672 138.839 94.08 136.007 94.08H116.567C113.735 94.08 111.335 93.672 109.367 92.856C107.399 92.088 105.791 91.08 104.542 89.832C103.343 88.584 102.455 87.168 101.879 85.584C101.351 84 101.087 82.44 101.087 80.904C101.087 79.368 101.351 77.832 101.879 76.296C102.455 74.712 103.343 73.296 104.542 72.048C105.791 70.752 107.399 69.72 109.367 68.952C111.335 68.136 113.735 67.728 116.567 67.728H136.007C138.839 67.728 141.239 68.136 143.207 68.952C145.175 69.72 146.759 70.752 147.959 72.048C149.207 73.296 150.095 74.712 150.623 76.296C151.199 77.832 151.487 79.368 151.487 80.904ZM94.4625 64.344V55.272H116.71V45.192H127.799V55.272H158.111V64.344H94.4625ZM101.662 39.792V30.432H150.191V50.376L142.127 53.184C140.207 53.856 139.247 53.304 139.247 51.528V39.792H101.662ZM140.399 80.904C140.399 78.264 138.887 76.944 135.863 76.944H116.71C113.687 76.944 112.175 78.264 112.175 80.904C112.175 83.544 113.687 84.864 116.71 84.864H135.863C138.887 84.864 140.399 83.544 140.399 80.904Z" fill="#4DB6AC"/>
<path d="M147.273 17.1036C146.884 17.6772 146.431 18.1373 145.914 18.4839C145.398 18.8306 144.847 19.0778 144.262 19.2257L144.388 21.3525L141.888 20.1258L141.837 19.271C141.199 19.1578 140.583 18.9555 139.989 18.6641C139.329 18.3398 138.771 17.9484 138.316 17.4899C137.865 17.045 137.543 16.5514 137.349 16.0093C137.159 15.4807 137.106 14.9194 137.191 14.3254C137.275 13.7314 137.524 13.1299 137.937 12.5211L140.022 9.45022C140.436 8.84135 140.924 8.35741 141.487 7.9984C142.05 7.63939 142.648 7.39769 143.282 7.27329C143.931 7.14477 144.595 7.13533 145.274 7.24497C145.968 7.35049 146.645 7.5654 147.306 7.88971C147.967 8.21401 148.52 8.60306 148.965 9.05684C149.426 9.50651 149.748 10.0001 149.932 10.5375C150.131 11.0708 150.189 11.6344 150.105 12.2284C150.021 12.8225 149.772 13.4239 149.358 14.0328L147.273 17.1036ZM146.96 13.2788C148.044 11.6816 147.758 10.4765 146.102 9.66338C144.445 8.85027 143.075 9.24231 141.99 10.8395L140.336 13.275C139.251 14.8722 139.537 16.0773 141.194 16.8905C141.28 16.9328 141.361 16.9727 141.438 17.0103C141.53 17.0438 141.618 17.0749 141.7 17.1037L141.507 13.6379L144.006 14.8646L144.11 16.9102C144.554 16.6336 144.952 16.235 145.306 15.7143L146.96 13.2788ZM151.855 24.418C151.612 24.3811 151.468 24.3218 151.421 24.24C151.384 24.163 151.425 24.0363 151.545 23.8598L154.547 19.4388C154.883 18.9447 154.98 18.51 154.839 18.1349C154.704 17.7509 154.407 17.4462 153.947 17.2206C153.488 16.9949 153.024 16.944 152.557 17.0677C152.09 17.1915 151.685 17.4869 151.343 17.954L148.52 22.1102L146.599 21.8377C146.132 21.7732 146.009 21.5777 146.231 21.2513L151.291 13.7992L153.245 14.758L152.804 15.4066C153.215 15.2905 153.641 15.2465 154.081 15.2745C154.532 15.3072 154.972 15.4293 155.403 15.6408C155.872 15.8711 156.276 16.1514 156.613 16.4818C156.95 16.8121 157.182 17.1849 157.309 17.6C157.451 18.011 157.472 18.4685 157.373 18.9726C157.279 19.4678 157.04 19.9978 156.657 20.5625L153.834 24.7187L151.855 24.418ZM162.639 29.4287L163.327 26.5544L159.061 24.4605L156.492 26.4113L154.251 25.3115L165.359 17.104L167.686 18.2461L164.88 30.5286L162.639 29.4287ZM160.905 23.0712L163.82 24.5023L164.905 20.0576L160.905 23.0712ZM177.711 26.9436C177.423 27.3672 177.079 27.7043 176.679 27.955C176.295 28.2016 175.874 28.3891 175.416 28.5176C174.959 28.646 174.484 28.7247 173.992 28.7538C173.509 28.7875 173.035 28.7901 172.57 28.7615L171.545 30.2705L169.362 29.1989L171.124 26.6045C171.544 26.6814 171.974 26.7338 172.415 26.7618C172.865 26.7945 173.292 26.7864 173.695 26.7374C174.099 26.6884 174.465 26.5914 174.793 26.4466C175.121 26.3018 175.378 26.0926 175.564 25.819L175.887 25.3425C176.163 24.9366 176.238 24.544 176.113 24.1648C175.997 23.7902 175.675 23.4737 175.149 23.2152C174.852 23.0695 174.576 22.987 174.321 22.9677C174.082 22.9443 173.856 22.975 173.646 23.0598C173.441 23.1357 173.249 23.259 173.069 23.4297C172.905 23.5962 172.745 23.7942 172.589 24.0236L170.467 22.8055C170.809 22.3025 171.202 21.9016 171.648 21.6026C172.099 21.2948 172.581 21.084 173.092 20.9703C173.613 20.8612 174.151 20.8489 174.707 20.9333C175.278 21.0136 175.841 21.1901 176.396 21.4627C176.952 21.7353 177.411 22.055 177.775 22.4218C178.148 22.7932 178.405 23.1957 178.545 23.629C178.694 24.0671 178.728 24.5249 178.646 25.0024C178.574 25.4847 178.367 25.9773 178.026 26.4803L177.711 26.9436ZM166.967 32.6121L168.405 30.4943L170.703 31.6223L169.265 33.7401L166.967 32.6121ZM178.536 33.702L176.525 32.715L181.631 24.6322L184.216 25.9012L178.536 33.702ZM174.044 36.0859L175.483 33.9681L177.781 35.0961L176.342 37.214L174.044 36.0859Z" fill="black"/>
</svg>
