<svg width="134" height="72" viewBox="0 0 134 72" fill="none" xmlns="http://www.w3.org/2000/svg">
<path d="M1.33 40.504V31.432H64.978V40.504H1.33ZM58.138 28.192H9.25V4.432H57.418V13.648H20.194V18.976H58.138V28.192ZM58.138 67.648H9.25V43.816H57.418V53.032H20.194V58.432H58.138V67.648ZM123.737 54.904C123.737 56.44 123.449 58 122.873 59.584C122.345 61.168 121.457 62.584 120.209 63.832C119.009 65.08 117.425 66.088 115.457 66.856C113.489 67.672 111.089 68.08 108.257 68.08H88.8165C85.9845 68.08 83.5845 67.672 81.6165 66.856C79.6485 66.088 78.0405 65.08 76.7925 63.832C75.5925 62.584 74.7045 61.168 74.1285 59.584C73.6005 58 73.3365 56.44 73.3365 54.904C73.3365 53.368 73.6005 51.832 74.1285 50.296C74.7045 48.712 75.5925 47.296 76.7925 46.048C78.0405 44.752 79.6485 43.72 81.6165 42.952C83.5845 42.136 85.9845 41.728 88.8165 41.728H108.257C111.089 41.728 113.489 42.136 115.457 42.952C117.425 43.72 119.009 44.752 120.209 46.048C121.457 47.296 122.345 48.712 122.873 50.296C123.449 51.832 123.737 53.368 123.737 54.904ZM66.7125 38.344V29.272H88.9605V19.192H100.049V29.272H130.361V38.344H66.7125ZM73.9125 13.792V4.432H122.441V24.376L114.377 27.184C112.457 27.856 111.497 27.304 111.497 25.528V13.792H73.9125ZM112.649 54.904C112.649 52.264 111.137 50.944 108.113 50.944H88.9605C85.9365 50.944 84.4245 52.264 84.4245 54.904C84.4245 57.544 85.9365 58.864 88.9605 58.864H108.113C111.137 58.864 112.649 57.544 112.649 54.904Z" fill="#4DB6AC"/>
</svg>
